<?xml version="1.0" encoding="UTF-8" standalone="no"?>
<!-- Created with Inkscape (http://www.inkscape.org/) -->

<svg
   xmlns:osb="http://www.openswatchbook.org/uri/2009/osb"
   xmlns:dc="http://purl.org/dc/elements/1.1/"
   xmlns:cc="http://creativecommons.org/ns#"
   xmlns:rdf="http://www.w3.org/1999/02/22-rdf-syntax-ns#"
   xmlns:svg="http://www.w3.org/2000/svg"
   xmlns="http://www.w3.org/2000/svg"
   xmlns:sodipodi="http://sodipodi.sourceforge.net/DTD/sodipodi-0.dtd"
   xmlns:inkscape="http://www.inkscape.org/namespaces/inkscape"
   width="227.89458mm"
   height="195.39684mm"
   viewBox="0 0 113.94729 97.698413"
   version="1.1"
   id="svg8"
   inkscape:version="0.92.4 (5da689c313, 2019-01-14)"
   sodipodi:docname="var-topologicas-paracompato.svg">
  <defs
     id="defs2">
    <linearGradient
       id="linearGradient3098"
       osb:paint="solid">
      <stop
         style="stop-color:#ffed7a;stop-opacity:1;"
         offset="0"
         id="stop3096" />
    </linearGradient>
    <clipPath
       clipPathUnits="userSpaceOnUse"
       id="clipPath1085">
      <path
         sodipodi:nodetypes="ccccc"
         inkscape:connector-curvature="0"
         id="path1087"
         d="m 107.47612,126.06081 c 13.86779,129.91067 4.76378,201.09564 12.16262,323.61138 192.62422,4.29472 324.04914,21.13682 394.79131,-11.08048 4.48248,-69.02808 14.74674,-214.86756 -21.74668,-331.04219 -122.03256,2.56048 -215.50786,-5.05041 -385.20725,18.51129 z"
         style="fill:#c9c9c9;fill-opacity:0.46636771;stroke:#8e0000;stroke-width:2.42051435;stroke-linecap:butt;stroke-linejoin:miter;stroke-miterlimit:4;stroke-dasharray:2.42051441, 4.84102877;stroke-dashoffset:0;stroke-opacity:1" />
    </clipPath>
    <clipPath
       clipPathUnits="userSpaceOnUse"
       id="clipPath1089">
      <path
         sodipodi:nodetypes="ccccc"
         inkscape:connector-curvature="0"
         id="path1091"
         d="m 35.824402,41.505333 c 3.669186,34.372197 1.260417,53.206554 3.218027,85.622177 50.965158,1.13631 85.738001,5.59245 104.455201,-2.93171 1.18599,-18.26368 3.90174,-56.850376 -5.75381,-87.588247 -32.28778,0.67746 -57.019788,-1.336253 -101.919418,4.89778 z"
         style="fill:#c9c9c9;fill-opacity:0.46636771;stroke:#8e0000;stroke-width:0.64042777;stroke-linecap:butt;stroke-linejoin:miter;stroke-miterlimit:4;stroke-dasharray:0.64042777, 1.28085553;stroke-dashoffset:0;stroke-opacity:1" />
    </clipPath>
  </defs>
  <sodipodi:namedview
     id="base"
     pagecolor="#ffffff"
     bordercolor="#666666"
     borderopacity="1.0"
     inkscape:pageopacity="0.0"
     inkscape:pageshadow="2"
     inkscape:zoom="0.6505876"
     inkscape:cx="189.57305"
     inkscape:cy="342.02278"
     inkscape:document-units="mm"
     inkscape:current-layer="layer1"
     showgrid="false"
     showguides="false"
     inkscape:window-width="1920"
     inkscape:window-height="1024"
     inkscape:window-x="0"
     inkscape:window-y="28"
     inkscape:window-maximized="1"
     fit-margin-top="5"
     fit-margin-left="5"
     fit-margin-right="5"
     fit-margin-bottom="5"
     scale-x="0.5" />
  <metadata
     id="metadata5">
    <rdf:RDF>
      <cc:Work
         rdf:about="">
        <dc:format>image/svg+xml</dc:format>
        <dc:type
           rdf:resource="http://purl.org/dc/dcmitype/StillImage" />
        <dc:title></dc:title>
      </cc:Work>
    </rdf:RDF>
  </metadata>
  <g
     inkscape:label="Camada 1"
     inkscape:groupmode="layer"
     id="layer1"
     transform="translate(-33.324402,-34.107553)">
    <text
       xml:space="preserve"
       style="font-style:normal;font-variant:normal;font-weight:normal;font-stretch:normal;font-size:5.71672678px;line-height:1.25;font-family:Cantarell;-inkscape-font-specification:Cantarell;letter-spacing:0px;word-spacing:0px;baseline-shift:baseline;fill:#000000;fill-opacity:1;stroke:none;stroke-width:0.23819694"
       x="93.045982"
       y="48.472332"
       id="text1283-8"
       transform="matrix(0.89940776,0.04865716,-0.03943612,1.1097093,0,0)"><tspan
         sodipodi:role="line"
         id="tspan1281-6"
         x="93.045982"
         y="48.472332"
         style="font-style:italic;font-variant:normal;font-weight:normal;font-stretch:normal;font-size:5.08153486px;font-family:sans-serif;-inkscape-font-specification:'sans-serif Italic';letter-spacing:0px;baseline-shift:baseline;stroke-width:0.23819694">K<tspan
   style="font-style:italic;font-variant:normal;font-weight:normal;font-stretch:normal;font-size:3.30299759px;font-family:sans-serif;-inkscape-font-specification:'sans-serif Italic';baseline-shift:sub;stroke-width:0.23819694"
   id="tspan871">j+2</tspan></tspan></text>
    <text
       xml:space="preserve"
       style="font-style:normal;font-variant:normal;font-weight:normal;font-stretch:normal;font-size:5.86819029px;line-height:1.25;font-family:Cantarell;-inkscape-font-specification:Cantarell;letter-spacing:0px;word-spacing:0px;baseline-shift:baseline;fill:#000000;fill-opacity:1;stroke:none;stroke-width:0.24450791"
       x="82.800652"
       y="66.56282"
       id="text1283-8-4"
       transform="matrix(0.91208039,-0.05585132,0.09748978,1.0904248,0,0)"><tspan
         sodipodi:role="line"
         id="tspan1281-6-5"
         x="82.800652"
         y="66.56282"
         style="font-style:italic;font-variant:normal;font-weight:normal;font-stretch:normal;font-size:5.21616936px;font-family:sans-serif;-inkscape-font-specification:'sans-serif Italic';letter-spacing:0px;baseline-shift:baseline;stroke-width:0.24450791">K<tspan
   style="font-size:3.39051008px;baseline-shift:sub;stroke-width:0.24450791;-inkscape-font-specification:'sans-serif Italic';font-family:sans-serif;font-weight:normal;font-style:italic;font-stretch:normal;font-variant:normal"
   id="tspan869">j+1</tspan></tspan><tspan
         sodipodi:role="line"
         x="82.800652"
         y="73.898056"
         style="font-style:italic;font-variant:normal;font-weight:normal;font-stretch:normal;font-size:5.21616936px;font-family:sans-serif;-inkscape-font-specification:'sans-serif Italic';letter-spacing:0px;baseline-shift:baseline;stroke-width:0.24450791"
         id="tspan1341" /></text>
    <text
       xml:space="preserve"
       style="font-style:normal;font-variant:normal;font-weight:normal;font-stretch:normal;font-size:5.52454758px;line-height:1.25;font-family:Cantarell;-inkscape-font-specification:Cantarell;letter-spacing:0px;word-spacing:0px;baseline-shift:baseline;fill:#000000;fill-opacity:1;stroke:none;stroke-width:0.23018947"
       x="84.368439"
       y="74.942726"
       id="text1283-8-1"
       transform="matrix(0.9121436,-0.0693045,0.07376359,1.0907141,0,0)"
       inkscape:transform-center-x="0.50710526"
       inkscape:transform-center-y="-0.2259336"><tspan
         sodipodi:role="line"
         id="tspan1281-6-0"
         x="84.368439"
         y="74.942726"
         style="font-style:italic;font-variant:normal;font-weight:normal;font-stretch:normal;font-size:4.91070938px;font-family:sans-serif;-inkscape-font-specification:'sans-serif Italic';letter-spacing:0px;baseline-shift:baseline;stroke-width:0.23018947">K<tspan
   style="font-style:italic;font-variant:normal;font-weight:normal;font-stretch:normal;font-size:3.19196105px;font-family:sans-serif;-inkscape-font-specification:'sans-serif Italic';baseline-shift:sub;stroke-width:0.23018947"
   id="tspan867">j</tspan></tspan></text>
    <text
       xml:space="preserve"
       style="font-style:normal;font-variant:normal;font-weight:normal;font-stretch:normal;font-size:5.15746021px;line-height:1.25;font-family:Cantarell;-inkscape-font-specification:Cantarell;letter-spacing:0px;word-spacing:0px;baseline-shift:baseline;fill:#000000;fill-opacity:1;stroke:none;stroke-width:0.21489418"
       x="85.209534"
       y="79.471046"
       id="text1283-8-3"
       transform="scale(0.95179794,1.0506432)"><tspan
         sodipodi:role="line"
         id="tspan1281-6-7"
         x="85.209534"
         y="79.471046"
         style="font-style:italic;font-variant:normal;font-weight:normal;font-stretch:normal;font-size:4.58440971px;font-family:sans-serif;-inkscape-font-specification:'sans-serif Italic';letter-spacing:0px;baseline-shift:baseline;stroke-width:0.21489418">K<tspan
   style="font-style:italic;font-variant:normal;font-weight:normal;font-stretch:normal;font-size:2.97986603px;font-family:sans-serif;-inkscape-font-specification:'sans-serif Italic';baseline-shift:sub;stroke-width:0.21489418"
   id="tspan865">j-1</tspan></tspan></text>
    <path
       style="fill:#72c8ff;fill-opacity:1;stroke:none;stroke-width:0.64042777;stroke-linecap:butt;stroke-linejoin:miter;stroke-miterlimit:4;stroke-dasharray:0.64042777, 1.28085553;stroke-dashoffset:0;stroke-opacity:1"
       d="m 35.824402,41.505333 c 3.669186,34.372197 1.260417,53.206553 3.218028,85.622177 50.965157,1.13631 85.738,5.59245 104.4552,-2.93171 1.18599,-18.26368 3.90174,-56.850375 -5.75381,-87.588247 -32.28778,0.67746 -57.019788,-1.336253 -101.919418,4.89778 z"
       id="path58"
       inkscape:connector-curvature="0"
       sodipodi:nodetypes="ccccc" />
    <path
       style="fill:#fffff7;fill-opacity:0.25560536;stroke:#000000;stroke-width:0.41890848;stroke-linecap:butt;stroke-linejoin:miter;stroke-miterlimit:4;stroke-dasharray:0.41890847, 2.51345084;stroke-dashoffset:0;stroke-opacity:0.99551571"
       d="m 97.435165,32.315612 c 15.724725,4.10631 32.635435,11.151185 46.440115,20.870781 19.73449,13.89466 6.54036,71.048967 -18.77367,76.990017 -5.36303,1.25866 -13.51479,1.00232 -18.77366,-0.23192 -5.40327,-1.26811 -15.130808,-0.44425 -20.255786,1.15949 C 76.613913,134.0637 46.268707,123.89969 37.902902,119.9729 24.700453,113.77584 23.444331,102.28396 25.30479,90.058107 26.858401,79.848685 23.167125,68.562934 28.269051,58.983831 37.290742,42.045182 77.554092,26.98309 97.435165,32.315612 Z"
       id="path908-3"
       inkscape:connector-curvature="0"
       clip-path="url(#clipPath1089)" />
    <path
       style="fill:#fffff7;fill-opacity:0.31390136;stroke:#000000;stroke-width:0.32769948;stroke-linecap:butt;stroke-linejoin:miter;stroke-miterlimit:4;stroke-dasharray:0.32769946, 1.96619676;stroke-dashoffset:0;stroke-opacity:0.99551571"
       d="m 98.160859,45.282878 c 11.978761,3.298648 24.860981,8.957883 35.377091,16.765753 15.03331,11.161749 4.98231,57.074499 -14.30138,61.847009 -4.08544,1.0111 -10.29528,0.80518 -14.30137,-0.18629 -4.1161,-1.01869 -11.526333,-0.35687 -15.430432,0.93143 -7.205092,2.37758 -30.321422,-5.78729 -36.694314,-8.94173 C 42.75311,110.72088 41.796223,101.4893 43.213481,91.668129 44.396989,83.466775 41.585054,74.400795 45.471592,66.705784 52.344124,53.09876 83.015885,40.999198 98.160859,45.282878 Z"
       id="path908"
       inkscape:connector-curvature="0" />
    <path
       id="path904"
       style="fill:#fdd69b;fill-opacity:0.9192825;fill-rule:evenodd;stroke:#090909;stroke-width:0.45199998;stroke-linecap:butt;stroke-linejoin:miter;stroke-miterlimit:4;stroke-dasharray:none;stroke-opacity:1;stroke-dashoffset:0"
       d="m 107.5981,55.236363 c 10.64716,7.892667 24.97339,17.46826 24.97339,32.146592 0,34.810625 -50.63578,44.535615 -77.31123,17.268825 -16.892625,-17.267091 6.9864,-44.33525 21.253945,-52.603508 4.60402,-2.668099 11.915359,-2.922418 17.003157,-2.922418 8.356088,0 10.350538,0.515202 14.080738,6.110509 z M 81.296342,78.881376 C 83.654611,77.068362 92.72876,77.595051 94.077139,80.065965 108.4637,106.42945 63.319457,97.943213 81.296342,78.881376 Z"
       inkscape:connector-curvature="0"
       sodipodi:nodetypes="cssssccsc" />
    <path
       id="path896"
       style="fill:#fff513;fill-opacity:1;fill-rule:evenodd;stroke:#000000;stroke-width:0.20199999;stroke-linecap:butt;stroke-linejoin:miter;stroke-miterlimit:4;stroke-dasharray:none;stroke-opacity:1"
       d="m 66.042801,69.266384 c 6.047126,-6.164456 16.552147,-8.302369 25.661675,-7.193398 3.475353,0.423079 7.479693,-0.656809 10.804914,0.287734 16.24821,4.615376 14.41616,31.050901 10.46727,41.14624 -7.42605,18.98459 -39.391181,4.31826 -47.271515,-5.75472 C 58.568169,88.629437 64.6242,77.728529 66.042801,69.266384 Z m 10.129607,3.452832 C 90.368419,62.422888 112.92008,84.864385 102.17174,96.313559 91.348217,107.84282 74.412094,99.294473 70.094643,88.256953 67.663069,82.040667 74.82628,76.734136 76.172408,72.719216 Z"
       inkscape:connector-curvature="0" />
    <path
       style="opacity:1;fill:none;fill-opacity:0.22869957;fill-rule:nonzero;stroke:#000000;stroke-width:4.15748024;stroke-linecap:butt;stroke-linejoin:round;stroke-miterlimit:4;stroke-dasharray:2.07874016, 2.07874016;stroke-dashoffset:0;stroke-opacity:0.39013456"
       d="m 352.87648,434.98577 c 1.59465,1.14987 3.2618,2.30614 5.00542,3.46856 0.4371,-0.97061 0.86393,-1.96003 1.28118,-2.96738"
       id="path967"
       transform="matrix(0.26458333,0,0,0.26458333,7.3880133,8.151743)"
       inkscape:connector-curvature="0" />
    <text
       xml:space="preserve"
       style="font-style:normal;font-weight:normal;font-size:10.58333302px;line-height:1.25;font-family:sans-serif;letter-spacing:0px;word-spacing:0px;fill:#000000;fill-opacity:1;stroke:none;stroke-width:0.26458332"
       x="107.5981"
       y="55.236366"
       id="text1287"><tspan
         sodipodi:role="line"
         id="tspan1285"
         x="107.5981"
         y="64.600136"
         style="stroke-width:0.26458332" /></text>
    <path
       style="opacity:0.711;fill:#5fd1ff;fill-opacity:0.99545456;stroke:none;stroke-width:1.06500006;stroke-linecap:butt;stroke-linejoin:miter;stroke-miterlimit:4;stroke-dasharray:1.065, 1.06499999999999995;stroke-dashoffset:0;stroke-opacity:1"
       d="m 118.1416,78.610879 c -10.67372,5.97268 -8.94913,7.371248 -20.317258,6.170031 -7.293287,-1.053563 -35.654591,12.356135 -32.754963,15.180859 0.430572,0.430571 1.691997,-1.016709 2.440101,-1.016709 12.220362,-0.867439 9.337459,25.80973 32.83708,29.99024 21.90791,-7.77318 15.89146,-28.26904 15.66841,-33.837166 -0.24155,-6.030033 3.56703,-16.043072 2.12663,-16.487253"
       id="path3078"
       inkscape:connector-curvature="0"
       sodipodi:nodetypes="cccccsc" />
    <path
       style="opacity:1;fill:#ff238f;fill-opacity:0.62727272;stroke:#ff4e96;stroke-width:0.61499995;stroke-linecap:butt;stroke-linejoin:miter;stroke-miterlimit:4;stroke-dasharray:0.61499997, 0.61499997;stroke-dashoffset:0;stroke-opacity:1"
       d="m 101.57549,90.356863 c -2.104532,2.062212 -2.807945,14.078327 -18.379996,6.217509 -6.120379,-3.329999 -0.98043,12.660098 6.276662,19.289658 4.211472,2.27018 13.881014,1.80396 21.713194,-2.41368 5.94351,-8.52843 3.23007,-15.962689 4.00779,-26.299113 -4.84983,-1.142683 -13.61765,3.205626 -13.61765,3.205626 z"
       id="path3120"
       inkscape:connector-curvature="0"
       sodipodi:nodetypes="cccccc" />
    <path
       id="path2924"
       style="opacity:0.65499998;fill:none;fill-opacity:0.22869957;fill-rule:nonzero;stroke:#000000;stroke-width:4.34645653;stroke-linecap:butt;stroke-linejoin:round;stroke-miterlimit:4;stroke-dasharray:2.17322826, 2.17322826;stroke-dashoffset:0;stroke-opacity:0.89237665"
       d="m 215.70272,343.15584 c -41.0514,2.91437 -87.4646,13.41314 -103.85834,26.44153 m 80.00496,90.04541 c 19.18009,-27.30079 62.64945,-88.77984 23.85338,-116.48694 79.42207,-0.76465 28.63396,81.77006 135.63669,113.34894 M 126.47293,109.94875 c 1.04568,7.18928 3.73246,44.95062 18.61658,69.72961 14.88412,24.77898 41.96558,36.57562 48.32567,37.48421 -15.76306,19.38867 -59.24342,36.06772 -79.84787,50.29934 M 454.27986,98.849595 C 425.8137,137.131 398.76789,211.07222 418.59623,266.30225 c -13.92544,5.96806 -24.30032,19.11579 -38.42679,23.82462 -10.83043,3.61015 -30.58761,-1.75228 -42.26949,0 -44.18904,6.62836 -86.78451,26.77554 -122.19723,53.02898 15.65582,-31.31163 -18.36567,-91.94949 -22.28754,-126.80844 3.9161,-7.72629 -4.48307,-25.95948 3.84268,-31.50998 13.97924,-9.31949 30.77242,12.30691 42.26948,16.13926 37.35502,12.45167 20.87577,-69.33712 26.83487,-92.30974 m 27.91223,-1.28129 c 12.81027,10.80852 28.92016,47.37571 42.08844,60.54398 20.06893,20.06893 18.57406,47.42826 43.13124,66.5283 12.32583,9.58675 26.24185,23.24367 39.10211,31.84431 21.68134,-11.30553 81.68155,-32.77421 109.67972,-32.27725 m -109.67972,32.27725 c -3.5423,57.04299 47.35179,155.47423 86.09978,189.87555 m -153.3566,0.32698 c 91.21877,-35.06563 42.81614,-120.36553 67.25682,-190.20253"
       transform="matrix(0.26458333,0,0,0.26458333,7.3880128,8.1517446)"
       inkscape:connector-curvature="0"
       sodipodi:nodetypes="ccccccsccccssccssccsscccccc"
       clip-path="url(#clipPath1085)" />
    <path
       id="path931"
       style="fill:none;stroke:#000000;stroke-width:0.27549999;stroke-linecap:butt;stroke-linejoin:miter;stroke-opacity:1;stroke-miterlimit:4;stroke-dasharray:none;opacity:0.748"
       d="m 81.60339,76.47225 c 0.32686,-0.172589 0.850558,0.485341 1.246125,0.831132 -0.08773,-0.526383 0.294452,-0.939559 0.688649,-1.177438 m -0.131171,-1.766156 c -1.166864,-0.141091 -1.121857,2.228383 -0.557478,2.943594"
       inkscape:connector-curvature="0" />
    <path
       id="path955"
       style="fill:none;stroke:#000000;stroke-width:0.28249999;stroke-linecap:round;stroke-linejoin:round;stroke-opacity:1;stroke-miterlimit:4;stroke-dasharray:none;opacity:0.748"
       d="m 82.151854,69.634211 c 0.308513,-0.285641 0.470284,-0.818495 0.813368,-1.092962 m -0.482938,-1.550482 c -0.506076,0.688595 -0.460999,1.860027 -0.33043,2.643444 -0.334069,-0.355505 -0.611395,-0.79014 -0.864203,-1.194633" />
    <path
       id="path968"
       style="fill:none;stroke:#000000;stroke-width:0.28249999;stroke-linecap:round;stroke-linejoin:round;stroke-opacity:1;stroke-miterlimit:4;stroke-dasharray:none;opacity:0.748"
       d="m 82.888969,59.899222 c 0.193343,0.386688 0.481492,0.984586 0.686277,1.448811 0.223008,-0.391553 0.563712,-0.723937 0.915039,-1.01671 m -0.127089,-1.626734 c -0.741873,0.381828 -0.893131,1.907173 -0.78795,2.643444" />
    <path
       id="path998"
       style="fill:none;stroke:#000000;stroke-width:0.28249999;stroke-linecap:round;stroke-linejoin:round;stroke-opacity:1;stroke-miterlimit:4;stroke-dasharray:none"
       d="m 80.347196,49.706714 c 0.399764,-0.356624 0.643866,-0.898043 1.042127,-1.296305 m -0.55919,-1.092962 c -0.596207,0.541765 -0.661921,1.673332 -0.482937,2.389267 -0.362588,-0.262364 -0.652973,-0.654288 -0.965874,-0.915039"
       inkscape:connector-curvature="0" />
    <path
       id="path1029"
       style="fill:none;stroke:#000000;stroke-width:0.45116377;stroke-linecap:round;stroke-linejoin:miter;stroke-miterlimit:4;stroke-dasharray:none;stroke-opacity:1;opacity:0.772"
       d="m 92.44256,57.996453 c 0.03041,0.01126 0.583358,-0.968641 0.586309,-0.965689 0.151793,0.151794 0.241422,1.801377 0.241422,2.103824 0,0.242514 -0.954337,-0.0077 -0.724265,0.06897 0.522516,0.174173 1.05017,-0.405006 1.51751,-0.137955 m -4.242133,-0.551816 c 0.564839,-0.09559 1.304505,-0.371259 1.758935,-0.241421 m -1.00018,-0.758756 c 0.183777,0.560778 0.09036,1.184264 0.172445,1.758932 m -2.138312,-1.551999 c -0.306067,0.18682 -0.209327,0.139551 0,0 z m 0.103462,0.689777 c 0.412817,0.616388 1.098352,2.790575 -0.344889,1.965868 m -2.172799,-3.414402 c 0.487497,0.674975 0.837603,1.445609 1.241601,2.172802 M 85.820691,57.78952 c 0.38618,-1.005246 0.991672,-2.186028 1.345067,-3.069512 m -2.310755,0.6208 c 0.6607,1.359654 0.881726,3.128025 1.310577,4.41458"
       inkscape:connector-curvature="0" />
    <path
       id="path1035"
       style="fill:none;stroke:#000000;stroke-width:0.4755114;stroke-linecap:round;stroke-linejoin:miter;stroke-miterlimit:4;stroke-dasharray:none;stroke-opacity:1;opacity:0.772"
       d="m 87.064026,65.790386 c 0.259568,-0.18869 0.135946,-0.06797 0,0 z m 0.109046,0.763354 c 0.211901,0.798809 0.478801,3.969664 -0.981454,2.217358 M 84.08331,65.317835 c 0.445697,0.852421 1.086573,1.601614 1.563055,2.43546 m -2.144656,-1.635757 c 0.416528,-0.843107 1.356339,-1.666674 1.999257,-2.181007 m -2.108309,0.03635 c 0.08455,1.088647 -0.07032,2.646987 0.290803,3.489614"
       inkscape:connector-curvature="0" />
    <path
       id="path1043"
       style="fill:none;fill-rule:nonzero;stroke:#000000;stroke-width:0.36905205;stroke-linecap:round;stroke-linejoin:miter;stroke-miterlimit:4;stroke-dasharray:none;stroke-opacity:1;opacity:0.772"
       d="m 91.246046,75.036231 c 0.24028,-0.04767 0.251554,-1.199515 0.374848,-1.199515 0.12646,0 0.410205,1.193127 0.449819,1.311969 0.0991,0.29729 0.688219,0.862153 0.374848,0.862153 -0.120977,0 -1.124547,-0.145234 -1.124547,0.112446 0,0.01618 0.538282,-0.178428 0.562274,-0.187426 0.483675,-0.181377 0.99195,-0.154975 1.461911,-0.03749 M 88.8845,75.186169 c 0.296903,-0.257118 0.953909,-0.328319 1.124545,-0.29988 m -2.661423,-0.974605 c -0.412034,0.410047 0.230389,-0.345585 -0.149942,0.224908 m 0.337367,0.787181 c 0.739814,2.242821 1.759339,2.951322 -0.749698,2.324061 M 84.723681,73.27444 c 0.07138,1.001764 0.573549,1.914779 1.087059,2.736395 m -1.611847,-1.874243 c 0.462276,-0.755015 1.291756,-1.303295 1.911728,-1.799272 m -1.799274,-0.299881 c -0.140795,1.208775 -0.109409,2.74854 0.149941,3.785971"
       inkscape:connector-curvature="0" />
    <path
       id="path1057"
       style="opacity:0.70800003;fill:none;stroke:#000000;stroke-width:0.45195115;stroke-linecap:round;stroke-linejoin:miter;stroke-miterlimit:4;stroke-dasharray:none;stroke-opacity:1"
       d="m 87.224723,46.555844 c -0.06418,-0.120634 -0.09137,-0.306488 0.103643,-0.345491 1.81714,-0.363428 0.0754,1.526463 0.345491,1.796553 0.288105,0.288106 1.068797,0.01616 1.381963,0.172746 m -3.765845,-0.621883 c 0.492854,0.06595 0.978473,-0.171162 1.45106,-0.103643 M 85.773661,46.72859 c -0.09291,0.594932 0.148814,1.064783 0.345492,1.589257 m -1.658357,-0.72553 c 0.617349,0.849772 1.671699,2.033093 0.03455,1.623807 m -2.487537,-2.798477 c 0.427222,0.766561 1.096797,1.475083 1.623806,2.107495 m -2.107494,-1.105571 c 0.511831,-0.932931 1.097653,-2.410518 1.727455,-3.040319 m -2.107494,0.656432 c 0.07014,1.357777 0.686753,3.12987 1.001922,4.18044 m 2.000713,-2.121158 c -0.300826,0.198724 -0.220238,-0.05506 0,0 z" />
    <path
       style="opacity:0.794;fill:#000000;fill-opacity:1;fill-rule:nonzero;stroke:#000000;stroke-width:0.28249997;stroke-linecap:round;stroke-linejoin:round;stroke-miterlimit:4;stroke-dasharray:none;stroke-dashoffset:0;stroke-opacity:1"
       id="path1527"
       d="m 97.891783,65.544512 c 0.247381,0.328695 0.412499,0.711071 0.583319,1.082691 0.251927,0.565483 0.48048,1.140968 0.726345,1.709068 0.167835,0.387799 0.222452,0.502314 0.39631,0.882688 0.30487,0.643479 0.619103,1.28237 0.920493,1.927501 0.0703,0.157563 0.1411,0.314925 0.20898,0.473567 0.0259,0.06047 0.0503,0.121211 0.0799,0.179923 0.0658,0.08248 0.28175,-0.09877 -0.32004,0.182765 -0.006,0.0027 -0.004,-0.01212 -0.006,-0.01812 -0.006,-0.01631 -0.0128,-0.03329 -0.0192,-0.04937 -0.0464,-0.105115 -0.0539,-0.217614 -0.0532,-0.330901 0.003,-0.03828 0.004,-0.07669 0.008,-0.114832 0.021,-0.1871 0.0626,-0.372472 0.10508,-0.555556 0.0559,-0.240985 0.0918,-0.373902 0.15526,-0.620752 0.16589,-0.623215 0.34422,-1.243919 0.56384,-1.850644 0.15342,-0.423806 0.20832,-0.539508 0.38122,-0.949341 0.22961,-0.526472 0.49411,-1.036759 0.78405,-1.532309 0.0363,-0.07369 0.0922,-0.135606 0.13429,-0.205448 0.26467,-0.13646 0.38631,-0.258729 0.33572,-0.112233 0,0 -0.34784,0.150471 -0.34784,0.150471 v 0 c 0.0131,-0.0071 0.008,-0.0021 0.0152,-0.01497 0.11635,-0.05545 0.2327,-0.110898 0.34905,-0.166346 -0.0497,0.02114 -0.12619,0.168882 -0.15967,0.204157 -0.31992,0.496021 -0.6018,1.015891 -0.84428,1.554162 -0.1761,0.408589 -0.23388,0.526272 -0.38707,0.949651 -0.21696,0.599596 -0.38607,1.215132 -0.53599,1.834466 -0.0586,0.252728 -0.0866,0.365523 -0.13692,0.610603 -0.0367,0.178829 -0.0727,0.359913 -0.0889,0.542058 -0.003,0.03687 -0.004,0.07393 -0.006,0.110889 6.6e-4,0.10771 0.0101,0.213844 0.0556,0.313043 10e-4,0.0031 0.032,0.0703 0.0302,0.07168 -0.20316,0.150209 -0.27161,0.323341 -0.3394,0.180373 -0.0817,-0.225233 -0.1585,-0.452325 -0.25469,-0.672101 -0.283043,-0.654534 -0.588689,-1.298607 -0.887506,-1.946025 -0.166965,-0.372961 -0.228313,-0.507196 -0.392508,-0.885556 -0.24587,-0.566575 -0.481762,-1.137813 -0.748183,-1.69522 -0.179831,-0.360484 -0.35431,-0.741328 -0.625806,-1.043992 0,0 0.319916,-0.196043 0.319916,-0.196043 z"
       inkscape:connector-curvature="0" />
    <path
       style="opacity:0.794;fill:#000000;fill-opacity:1;fill-rule:nonzero;stroke:#000000;stroke-width:0.28249997;stroke-linecap:round;stroke-linejoin:round;stroke-miterlimit:4;stroke-dasharray:none;stroke-dashoffset:0;stroke-opacity:1"
       id="path1529"
       d="m 102.98829,71.602323 c 0.0693,0.266385 0.14551,0.531063 0.21645,0.797091 0.0869,0.342912 0.16942,0.687386 0.22733,1.036566 0.0358,0.216019 0.0431,0.297225 0.0686,0.512148 0.0231,0.313083 0.06,0.664787 -0.056,0.965847 -0.0163,0.04233 -0.0405,0.0812 -0.0607,0.121793 -0.0257,0.0308 -0.0473,0.06558 -0.0771,0.0924 -0.0291,0.02617 -0.0629,0.04734 -0.0979,0.06487 -0.14159,0.07089 -0.2806,0.150143 -0.43092,0.199922 -0.0447,0.01479 -0.0944,-0.0022 -0.14071,-0.01062 -0.13878,-0.02532 -0.19752,-0.0618 -0.32793,-0.12017 -0.3252,-0.175986 -0.60565,-0.422454 -0.85273,-0.695628 -0.0487,-0.05388 -0.0948,-0.110106 -0.14224,-0.16516 -0.18361,-0.220931 -0.34525,-0.458632 -0.50777,-0.695122 0,0 0.3096,-0.181205 0.3096,-0.181205 v 0 c 0.15229,0.241039 0.31132,0.478373 0.492,0.699333 0.0468,0.05475 0.0922,0.11074 0.14045,0.16426 0.2443,0.27113 0.52343,0.514607 0.85066,0.680215 0.13009,0.05281 0.18975,0.08774 0.32746,0.105047 0.0455,0.0057 0.15333,-0.0417 0.13759,0.0014 -0.0277,0.07582 -0.13581,0.08959 -0.19199,0.147546 -0.054,0.05571 0.27158,-0.160258 0.18555,-0.140549 0.0221,-0.03902 0.0483,-0.07596 0.0663,-0.117049 0.12877,-0.294557 0.0972,-0.649738 0.078,-0.960738 -0.0239,-0.220502 -0.0286,-0.290159 -0.0645,-0.511814 -0.0563,-0.347723 -0.13946,-0.690397 -0.23358,-1.029619 -0.0771,-0.262186 -0.15654,-0.523674 -0.24735,-0.781484 0,0 0.33149,-0.179259 0.33149,-0.179259 z"
       inkscape:connector-curvature="0" />
    <path
       style="opacity:0.785;fill:#000000;fill-opacity:1;fill-rule:nonzero;stroke:#000000;stroke-width:0.28249997;stroke-linecap:round;stroke-linejoin:round;stroke-miterlimit:4;stroke-dasharray:none;stroke-dashoffset:0;stroke-opacity:1"
       id="path1531"
       d="m 102.18897,70.412688 c -0.009,-0.09336 0.0325,-0.170283 0.0984,-0.232497 0.17056,-0.09504 0.36681,-0.329452 0.52839,-0.134696 0.0457,0.08608 0.0247,0.147107 -0.0458,0.208504 -0.20616,0.116997 -0.36723,0.305609 -0.55474,0.125006 -0.0515,-0.07039 -0.0468,-0.129976 0.008,-0.195528 0,0 0.34764,-0.142923 0.34764,-0.142923 v 0 c -0.0543,0.03954 -0.0812,0.08012 -0.0369,0.141415 0.0283,0.02432 0.0554,0.04338 0.0939,0.04797 0.0132,0.0016 0.0267,0.0014 0.0399,-7.4e-5 0.0127,-0.0014 0.048,-0.0154 0.0373,-0.0084 -0.092,0.06036 -0.18871,0.113108 -0.28306,0.169662 0.0614,-0.03316 0.11039,-0.07927 0.0724,-0.152019 -0.0292,-0.03295 -0.0638,-0.05194 -0.10958,-0.04204 -0.012,0.0026 -0.0452,0.01924 -0.0347,0.01274 0.0936,-0.05825 0.18979,-0.112204 0.28469,-0.168306 -0.0716,0.04472 -0.11771,0.107496 -0.11174,0.195066 0,0 -0.33387,0.176127 -0.33387,0.176127 z"
       inkscape:connector-curvature="0" />
    <path
       style="opacity:0.794;fill:#000000;fill-opacity:1;fill-rule:nonzero;stroke:#000000;stroke-width:0.28249997;stroke-linecap:round;stroke-linejoin:round;stroke-miterlimit:4;stroke-dasharray:none;stroke-dashoffset:0;stroke-opacity:1"
       id="path1545"
       d="m 120.83359,82.483041 c 0.10045,0.268178 0.17811,0.543818 0.25367,0.819784 0.18201,0.66872 0.28811,1.354025 0.394,2.03788 0.10274,0.6558 0.17547,1.31551 0.24713,1.975231 0.0338,0.337533 0.0816,0.673189 0.12757,1.009168 0.0172,0.110361 0.025,0.221875 0.0389,0.332612 0.0279,0.123596 0.0125,0.04609 -0.33253,0.149733 -0.0148,0.0045 0.005,-0.03062 0.008,-0.04579 0.0211,-0.100785 0.0496,-0.199008 0.0788,-0.297701 0.15769,-0.517307 0.38858,-1.006913 0.62643,-1.491082 0.32149,-0.645921 0.67033,-1.277456 1.03304,-1.900976 0.16141,-0.267156 0.30878,-0.542316 0.46104,-0.814653 0.0656,-0.126653 0.29553,-0.436447 0.42389,-0.265242 0.0341,0.07064 0.0462,0.148561 0.0602,0.224992 0.0346,0.158592 0.0602,0.318548 0.0785,0.479784 0.0423,0.364294 0.0733,0.729969 0.12627,1.092989 0.015,0.102782 0.0327,0.205148 0.0491,0.307721 0.10809,0.632841 0.26368,1.256521 0.43342,1.875296 0.0811,0.275923 0.15644,0.5552 0.27154,0.819554 0.0397,0.09108 0.0584,0.121844 0.10304,0.203859 0.0121,0.01864 0.0236,0.03768 0.0363,0.05592 0.0119,0.01715 0.0255,0.04921 0.0455,0.04318 0.006,-0.0018 0.0132,-0.01973 0.008,-0.01693 -0.30797,0.156361 -0.36818,0.274163 -0.29357,0.142269 0.0495,-0.178692 0.07,-0.364853 0.10021,-0.547634 0.0891,-0.542641 0.21516,-1.078066 0.33899,-1.613538 0.19056,-0.783541 0.387,-1.566404 0.62125,-2.338249 0.0524,-0.172769 0.10862,-0.344379 0.16293,-0.516569 0.24431,-0.733473 0.54148,-1.449909 0.89879,-2.135709 0.0499,-0.09574 0.10289,-0.189816 0.15434,-0.284723 0.16099,-0.284842 0.32171,-0.571469 0.51709,-0.834574 0.10455,-0.12261 0.32431,-0.372885 0.45554,-0.235197 0.026,0.03664 0.036,0.08139 0.0377,0.125631 1.3e-4,0.02123 -0.009,0.03936 -0.0174,0.05812 0,0 -0.34449,0.154058 -0.34449,0.154058 v 0 c 0.009,-0.01359 0.019,-0.02689 0.0237,-0.04283 0.007,-0.03111 -0.003,-0.06908 -0.021,-0.09504 -0.0185,-0.01032 -0.0285,0.0049 -0.0268,0.004 0.51295,-0.304475 0.33182,-0.224312 0.23096,-0.11372 -0.21464,0.262742 -0.38733,0.556239 -0.55991,0.847435 -0.15446,0.272336 -0.19458,0.335735 -0.34065,0.626104 -0.29294,0.582338 -0.54351,1.185932 -0.74928,1.80449 -0.0541,0.171842 -0.11041,0.343009 -0.16232,0.51553 -0.23054,0.7662 -0.418,1.544814 -0.5967,2.32443 -0.11347,0.528754 -0.22941,1.057634 -0.3034,1.593736 -0.0258,0.182075 -0.0441,0.365641 -0.0794,0.546147 -0.003,0.01261 0.002,0.03036 -0.009,0.03782 -0.11265,0.07923 -0.24862,0.273141 -0.36328,0.196838 -0.0407,-0.02709 -0.0543,-0.0828 -0.0798,-0.120773 -0.15729,-0.333967 -0.25504,-0.689933 -0.34855,-1.046144 -0.16227,-0.622083 -0.31594,-1.247182 -0.43169,-1.879807 -0.0802,-0.460415 -0.14241,-0.923229 -0.20554,-1.386226 -0.0226,-0.158637 -0.0524,-0.31595 -0.0887,-0.47204 -0.0132,-0.06945 -0.0253,-0.140246 -0.0554,-0.20478 -0.1132,-0.06119 -0.0123,-0.0047 0.31277,-0.188525 0.004,-0.0024 -0.006,0.0073 -0.009,0.01116 -0.0122,0.01552 -0.0259,0.03497 -0.0365,0.05084 -0.0105,0.01559 -0.0206,0.03141 -0.0309,0.04712 -0.16948,0.274055 -0.32317,0.557821 -0.49568,0.830106 -0.37319,0.62066 -0.7294,1.251593 -1.04543,1.903624 -0.22844,0.476187 -0.45047,0.957964 -0.59199,1.468521 -0.0258,0.09543 -0.0499,0.1899 -0.0668,0.287305 -0.002,0.01425 0.006,0.03466 -0.006,0.04294 -0.10778,0.0752 -0.22578,0.134644 -0.34039,0.198959 -0.002,0.0013 6e-5,-0.0053 8e-5,-0.008 -0.001,-0.113159 -0.0122,-0.225985 -0.0231,-0.338522 -0.0374,-0.340485 -0.0768,-0.680688 -0.10445,-1.022189 -0.0601,-0.66312 -0.123,-1.326211 -0.22581,-1.984415 -0.10695,-0.679675 -0.21994,-1.36019 -0.41739,-2.02067 -0.082,-0.271189 -0.16424,-0.543947 -0.28457,-0.801163 0,0 0.32952,-0.181477 0.32952,-0.181477 z"
       inkscape:connector-curvature="0" />
    <path
       style="opacity:0.794;fill:#000000;fill-opacity:1;fill-rule:nonzero;stroke:#000000;stroke-width:0.28249997;stroke-linecap:round;stroke-linejoin:round;stroke-miterlimit:4;stroke-dasharray:none;stroke-dashoffset:0;stroke-opacity:1"
       id="path1547"
       d="m 127.46556,87.94952 c 0.0792,0.297014 0.15717,0.594325 0.23242,0.892376 0.14168,0.564531 0.26637,1.133293 0.3622,1.707411 0.0403,0.318753 0.10727,0.658234 0.0177,0.975741 -0.0114,0.04048 -0.0299,0.07861 -0.0449,0.117923 -0.021,0.03268 -0.0384,0.06799 -0.0631,0.09804 -0.0244,0.02969 -0.0507,0.0591 -0.0829,0.07997 -0.13278,0.08597 -0.27025,0.164823 -0.40989,0.239119 -0.11054,0.05882 -0.27442,0.07518 -0.39621,0.09001 -0.29439,0.01678 -0.58693,-0.03441 -0.85552,-0.15777 -0.0606,-0.02782 -0.11791,-0.06221 -0.17686,-0.09332 -0.21984,-0.138706 -0.41531,-0.311843 -0.58234,-0.51076 -0.0878,-0.104597 -0.11048,-0.142788 -0.18625,-0.252752 -0.0596,-0.09802 -0.11777,-0.199044 -0.15433,-0.308432 -0.0226,-0.06755 -0.0226,-0.0875 -0.032,-0.1543 0,0 0.327,-0.171129 0.327,-0.171129 v 0 c 0.002,0.02245 0.002,0.0451 0.005,0.06734 0.0219,0.139409 0.0914,0.266013 0.16034,0.386778 0.0691,0.103809 0.0986,0.153413 0.17909,0.251665 0.16199,0.197698 0.35505,0.367693 0.57282,0.501669 0.0586,0.02978 0.11564,0.06285 0.17579,0.08933 0.26846,0.118158 0.5602,0.163278 0.85181,0.13883 0.11953,-0.01806 0.16217,-0.01911 0.27575,-0.05671 0.0397,-0.01312 0.14775,-0.07438 0.11616,-0.04704 -0.0604,0.05224 -0.13181,0.09201 -0.20502,0.123908 -0.0688,0.02999 0.25103,-0.17032 0.15433,-0.164035 0.0169,-0.03795 0.0376,-0.07443 0.0508,-0.113845 0.1034,-0.310151 0.0434,-0.658971 0.008,-0.97441 -0.0139,-0.09052 -0.0264,-0.181266 -0.0418,-0.271549 -0.0821,-0.482019 -0.19851,-0.958029 -0.32335,-1.430479 -0.0815,-0.293913 -0.16291,-0.588463 -0.2668,-0.87544 0,0 0.3315,-0.17814 0.3315,-0.17814 z"
       inkscape:connector-curvature="0" />
    <path
       style="opacity:0.785;fill:#000000;fill-opacity:1;fill-rule:nonzero;stroke:#000000;stroke-width:0.28249997;stroke-linecap:round;stroke-linejoin:round;stroke-miterlimit:4;stroke-dasharray:none;stroke-dashoffset:0;stroke-opacity:1"
       id="path1549"
       d="m 126.82078,86.852426 c 0.008,-0.114476 0.0363,-0.187552 0.12614,-0.260682 0.12172,-0.06437 0.23936,-0.137097 0.36515,-0.193099 0.0154,-0.0069 0.0337,0.0035 0.0499,0.0083 0.068,0.0201 0.11521,0.07137 0.15634,0.125793 0.0397,0.07389 0.0524,0.158414 0.008,0.233824 -0.009,0.01481 -0.0211,0.02724 -0.0316,0.04086 -0.23236,0.185241 -0.3993,0.290011 -0.66517,0.228634 -0.0901,-0.03216 -0.14702,-0.06711 -0.15222,-0.168554 0.008,-0.05892 0.0506,-0.09161 0.0953,-0.124915 0,0 0.34793,-0.136631 0.34793,-0.136631 v 0 c -0.0404,0.02532 -0.0848,0.04785 -0.10754,0.092 -0.013,0.08061 0.0563,0.104942 0.12152,0.125871 0.0582,0.01061 0.11294,0.01677 0.17214,0.0068 0.0205,-0.0035 0.0775,-0.02724 0.0606,-0.01508 -0.11737,0.08444 -0.37972,0.222471 -0.2163,0.135751 0.0118,-0.01046 0.0252,-0.01935 0.0353,-0.03141 0.0495,-0.0588 0.0452,-0.13185 0.0117,-0.196485 -0.0269,-0.0347 -0.0551,-0.06888 -0.0966,-0.08727 -0.13189,-0.05849 -0.33056,0.136456 0.19314,-0.180352 -0.0137,0.0074 -0.0286,0.01287 -0.0412,0.02208 -0.064,0.04695 -0.0941,0.126648 -0.0964,0.20338 0,0 -0.3359,0.171146 -0.3359,0.171146 z"
       inkscape:connector-curvature="0" />
    <path
       style="opacity:0.65499998;fill:#000000;fill-opacity:1;fill-rule:nonzero;stroke:#000000;stroke-width:0.28249997;stroke-linecap:round;stroke-linejoin:round;stroke-miterlimit:4;stroke-dasharray:none;stroke-dashoffset:0;stroke-opacity:1"
       id="path1573"
       d="m 106.56807,91.765799 c -0.0197,0.361405 -0.006,0.723123 0.006,1.084479 0.0337,0.737009 0.0815,1.475253 0.0464,2.213246 -0.008,0.160011 -0.0226,0.319584 -0.0339,0.479375 -0.0573,0.56967 -0.17846,1.131473 -0.39224,1.663564 -0.11492,0.286006 -0.15374,0.341262 -0.29561,0.604451 -0.15596,0.263988 -0.33507,0.517502 -0.57403,0.712348 0,0 -0.33864,0.135016 -0.33864,0.135016 v 0 c 0.0266,-0.0191 0.0546,-0.03642 0.0798,-0.0573 0.21954,-0.181753 0.38509,-0.418658 0.53637,-0.657342 0.14836,-0.263679 0.18829,-0.317676 0.30869,-0.605209 0.22199,-0.53018 0.34961,-1.092101 0.41037,-1.662758 0.0117,-0.159472 0.0275,-0.318698 0.0352,-0.478415 0.0353,-0.733159 -0.0174,-1.466703 -0.0723,-2.197418 -0.0233,-0.354166 -0.0448,-0.708226 -0.0518,-1.063138 0,0 0.33542,-0.170902 0.33542,-0.170902 z"
       inkscape:connector-curvature="0" />
    <path
       style="opacity:0.65499998;fill:#000000;fill-opacity:1;fill-rule:nonzero;stroke:#000000;stroke-width:0.28249997;stroke-linecap:round;stroke-linejoin:round;stroke-miterlimit:4;stroke-dasharray:none;stroke-dashoffset:0;stroke-opacity:1"
       id="path1575"
       d="m 105.25217,92.815926 c 0.0403,-0.04901 0.059,-0.0782 0.11927,-0.114141 0.14409,-0.08599 0.28879,-0.17179 0.43992,-0.244709 0.0617,-0.02978 0.12965,-0.04483 0.19595,-0.0621 0.23695,-0.06172 0.34606,-0.06994 0.59754,-0.106953 0.55629,-0.05711 1.12199,-0.04397 1.67094,0.0695 0.36586,0.07563 0.43521,0.115192 0.77772,0.241454 0.10261,0.05401 0.2099,0.09995 0.30785,0.162027 0.2013,0.127576 0.4214,0.319175 0.43781,0.578039 0.0118,0.185807 -0.0605,0.250358 -0.15153,0.40204 -0.0656,0.06194 -0.12543,0.130762 -0.19694,0.185823 -0.0817,0.06291 -0.17073,0.116178 -0.26072,0.16653 -0.19156,0.107187 -0.3843,0.212999 -0.58328,0.305712 -0.10918,0.05088 -0.22481,0.08692 -0.33936,0.124199 -0.3021,0.09832 -0.41399,0.115351 -0.72334,0.183996 -0.50674,0.103461 -1.02271,0.149735 -1.53854,0.17577 -0.0331,4.1e-5 -0.0663,7.94e-4 -0.0994,1.22e-4 -0.0214,-3.97e-4 -0.0429,-0.0014 -0.0643,-0.0032 -0.0113,-9.26e-4 -0.0236,1.19e-4 -0.0337,-0.005 -0.007,-0.0036 -0.0204,-0.01465 -0.014,-0.01927 0.30447,-0.217912 0.21607,-0.19757 0.39782,-0.223451 0.32995,-0.05734 0.66366,-0.08251 0.99783,-0.09781 0.51427,-0.01255 1.02716,0.04863 1.53089,0.148853 0.11154,0.02219 0.22228,0.04823 0.33341,0.07235 0.31069,0.07479 0.61946,0.164586 0.91109,0.297105 0.15048,0.06838 0.31228,0.154681 0.44075,0.261322 0.0548,0.04549 0.1,0.101437 0.14998,0.152155 0.033,0.0545 0.0739,0.104943 0.0991,0.163488 0.077,0.17914 0.0578,0.371925 -0.0313,0.542623 -0.0898,0.171945 -0.17211,0.232832 -0.30926,0.371873 -0.60413,0.475838 -1.32243,0.77003 -2.05388,0.986907 -0.16304,0.04834 -0.32816,0.08934 -0.49224,0.134006 -0.86612,0.223173 -1.7494,0.365649 -2.63209,0.503882 -0.20942,0.02871 -0.41515,0.0749 -0.61888,0.130052 0,0 0.28243,-0.215965 0.28243,-0.215965 v 0 c 0.19694,-0.045 0.39516,-0.08372 0.59586,-0.108486 0.8745,-0.123451 1.74833,-0.261367 2.60343,-0.486803 0.16512,-0.04605 0.33135,-0.08827 0.49535,-0.138153 0.29311,-0.08915 0.5985,-0.196231 0.88046,-0.317563 0.12353,-0.05316 0.24322,-0.114827 0.36472,-0.172487 0.008,-0.0039 0.0172,-0.007 0.0247,-0.01232 0.0807,-0.05702 0.1598,-0.116304 0.2397,-0.174457 0.13393,-0.13238 0.21417,-0.191045 0.30472,-0.354249 0.0889,-0.16022 0.11451,-0.341712 0.0449,-0.514389 -0.0228,-0.05658 -0.061,-0.105685 -0.0914,-0.158527 -0.0475,-0.04976 -0.0901,-0.104568 -0.14238,-0.149288 -0.12417,-0.106293 -0.28082,-0.192757 -0.42758,-0.260948 -0.28788,-0.133764 -0.59399,-0.222739 -0.90184,-0.296537 -0.11106,-0.0237 -0.22169,-0.04949 -0.33318,-0.07109 -0.50667,-0.0982 -1.02303,-0.153453 -1.53952,-0.133379 -0.34269,0.02068 -0.68497,0.05189 -1.02173,0.121458 -0.0194,0.0045 -0.0736,0.02604 -0.0582,0.01344 0.0905,-0.07398 0.19425,-0.130348 0.28752,-0.200824 0.004,-0.0027 -0.0137,-0.0083 -0.009,-0.0093 0.009,-0.0021 0.018,0.0041 0.0272,0.0052 0.0575,0.0069 0.0885,0.006 0.15079,0.0078 0.50379,-0.0095 1.00748,-0.05391 1.50157,-0.155964 0.30929,-0.07003 0.42012,-0.08691 0.72196,-0.188365 0.11522,-0.03873 0.22508,-0.09263 0.34101,-0.12919 0.009,-0.003 0.0177,0.0178 0.0265,0.0133 0.24152,-0.123741 0.25899,-0.160515 0.45043,-0.333031 0.0895,-0.137179 0.16396,-0.20276 0.1609,-0.375357 -0.004,-0.249397 -0.2126,-0.441268 -0.40304,-0.567043 -0.0947,-0.06252 -0.19919,-0.108598 -0.29879,-0.162897 -0.339,-0.127572 -0.40347,-0.166546 -0.76741,-0.240989 -0.55205,-0.112918 -1.12104,-0.11918 -1.67892,-0.05164 -0.25566,0.04332 -0.37205,0.05421 -0.61234,0.12537 -0.0685,0.02028 -0.16239,0.132349 -0.20157,0.07264 -0.0381,-0.05808 0.1151,-0.07807 0.17549,-0.112379 0.0433,-0.02459 -0.13532,0.08743 -0.11308,0.09752 0,0 -0.34422,0.151815 -0.34422,0.151815 z"
       inkscape:connector-curvature="0" />
    <path
       style="opacity:0.65499998;fill:#000000;fill-opacity:1;fill-rule:nonzero;stroke:#000000;stroke-width:0.28249997;stroke-linecap:round;stroke-linejoin:round;stroke-miterlimit:4;stroke-dasharray:none;stroke-dashoffset:0;stroke-opacity:1"
       id="path1577"
       d="m 108.90989,100.01083 c 0.0113,-0.01819 0.0218,-0.03696 0.034,-0.05456 0.0849,-0.122018 0.18466,-0.233481 0.2842,-0.34342 0.0718,-0.07936 0.28134,-0.304761 0.34785,-0.376494 0.42536,-0.460716 0.83701,-0.933744 1.25484,-1.401233 0.17145,-0.196947 0.35452,-0.38642 0.5056,-0.600113 0,0 0.33862,-0.146424 0.33862,-0.146424 v 0 c -0.16457,0.218734 -0.35874,0.414071 -0.53995,0.61862 -0.42021,0.464047 -0.83146,0.935978 -1.25148,1.400201 -0.21906,0.240568 -0.4524,0.474793 -0.6307,0.748233 0,0 -0.343,0.15519 -0.343,0.15519 z"
       inkscape:connector-curvature="0" />
    <path
       style="opacity:0.65499998;fill:#000000;fill-opacity:1;fill-rule:nonzero;stroke:#000000;stroke-width:0.28249997;stroke-linecap:round;stroke-linejoin:round;stroke-miterlimit:4;stroke-dasharray:none;stroke-dashoffset:0;stroke-opacity:1"
       id="path1579"
       d="m 109.88351,97.538953 c 0.16911,0.210955 0.31409,0.440798 0.45922,0.668611 0.24659,0.398955 0.47923,0.805989 0.73716,1.197828 0.0383,0.0549 0.0766,0.109808 0.11488,0.164713 0,0 -0.29823,0.175129 -0.29823,0.175129 v 0 c -0.0371,-0.05587 -0.0741,-0.111743 -0.11116,-0.167615 -0.25563,-0.393311 -0.48649,-0.801586 -0.74022,-1.196107 -0.14861,-0.223079 -0.29651,-0.451914 -0.48285,-0.645724 0,0 0.3212,-0.196835 0.3212,-0.196835 z"
       inkscape:connector-curvature="0" />
    <path
       style="opacity:0.65499998;fill:#000000;fill-opacity:1;fill-rule:nonzero;stroke:#000000;stroke-width:0.28249997;stroke-linecap:round;stroke-linejoin:round;stroke-miterlimit:4;stroke-dasharray:none;stroke-dashoffset:0;stroke-opacity:1"
       id="path1581"
       d="m 97.096097,107.80052 c -0.08355,-0.0687 -0.11633,-0.11377 -0.09589,-0.22424 0.0073,-0.0139 0.01249,-0.0291 0.02178,-0.0417 0.0099,-0.0135 0.02094,-0.0272 0.03531,-0.0359 0.105648,-0.0636 0.267261,-0.21088 0.426312,-0.21379 0.05705,-0.001 0.07812,0.008 0.133397,0.0217 0.126738,0.0493 0.224939,0.13897 0.286021,0.25948 0.0083,0.0377 0.01567,0.0493 0.0056,0.0875 -0.0054,0.0205 -0.02594,0.0603 -0.04511,0.0722 -0.343297,0.21202 -0.22574,0.194 -0.41158,0.2109 -0.1017,-5.3e-4 -0.199479,-0.037 -0.262237,-0.12026 -0.01151,-0.0153 -0.01985,-0.0327 -0.02977,-0.049 -0.02335,-0.0437 -0.02525,-0.0841 -0.01924,-0.13149 0,0 0.338218,-0.16264 0.338218,-0.16264 v 0 c -0.01469,0.039 -0.01636,0.0681 0.0027,0.10757 0.0085,0.0142 0.01549,0.0294 0.02553,0.0426 0.05754,0.0753 0.151835,0.0982 0.242134,0.0891 0.149582,-0.0415 0.07643,-0.0258 -0.231751,0.15544 -0.01125,0.007 0.02213,-0.0141 0.03161,-0.0231 0.02866,-0.0271 0.03763,-0.0565 0.02981,-0.0948 -0.05189,-0.11358 -0.14596,-0.19424 -0.265219,-0.23247 -0.05337,-0.009 -0.0721,-0.0165 -0.126082,-0.009 -0.01879,0.003 -0.07062,0.0254 -0.05503,0.0146 0.08662,-0.0601 0.179939,-0.10985 0.27042,-0.16393 0.01327,-0.008 -0.02705,0.0154 -0.03876,0.0255 -0.01015,0.009 -0.01746,0.0203 -0.02619,0.0305 -0.03478,0.0906 -0.0012,0.12895 0.07406,0.17982 0,0 -0.316042,0.20544 -0.316042,0.20544 z"
       inkscape:connector-curvature="0" />
    <path
       style="opacity:0.65499998;fill:#000000;fill-opacity:1;fill-rule:nonzero;stroke:#000000;stroke-width:0.28249997;stroke-linecap:round;stroke-linejoin:round;stroke-miterlimit:4;stroke-dasharray:none;stroke-dashoffset:0;stroke-opacity:1"
       id="path1593"
       d="m 99.190878,105.24017 c -0.07324,0.19316 -0.136841,0.38986 -0.197334,0.58732 -0.05482,0.2115 -0.125526,0.42481 -0.136673,0.64484 -0.0015,0.0302 7.94e-4,0.0604 0.0011,0.0906 0.0093,0.0413 0.0095,0.0873 0.04965,0.11431 0.03945,0.0265 0.106934,0.0171 0.146545,0.01 0.106569,-0.0202 0.180048,-0.0538 0.283546,-0.0926 0.312252,-0.1268 0.619948,-0.26455 0.931728,-0.39246 0.20849,-0.0855 0.33948,-0.13481 0.5501,-0.21611 0.5284,-0.20213 1.07369,-0.35256 1.62488,-0.47715 0.25262,-0.0569 0.50764,-0.10155 0.76438,-0.13468 0,0 -0.28583,0.21296 -0.28583,0.21296 v 0 c -0.25081,0.0281 -0.4996,0.0706 -0.74605,0.12527 -0.54866,0.12297 -1.0907,0.27433 -1.61602,0.47652 -0.22042,0.0856 -0.33308,0.12796 -0.55111,0.2182 -0.317355,0.13134 -0.630323,0.2731 -0.94814,0.40336 -0.11683,0.0426 -0.353222,0.15665 -0.472748,0.0551 -0.04555,-0.0387 -0.04464,-0.0828 -0.0559,-0.13648 -6.3e-5,-0.0319 -0.0021,-0.0638 -1.32e-4,-0.0957 0.01319,-0.22286 0.08528,-0.43846 0.139138,-0.65337 0.05685,-0.19427 0.118329,-0.3871 0.177387,-0.5807 0,0 0.34155,-0.15886 0.34155,-0.15886 z"
       inkscape:connector-curvature="0" />
    <path
       style="opacity:0.65499998;fill:#000000;fill-opacity:1;fill-rule:nonzero;stroke:#000000;stroke-width:0.28249997;stroke-linecap:round;stroke-linejoin:round;stroke-miterlimit:4;stroke-dasharray:none;stroke-dashoffset:0;stroke-opacity:1"
       id="path1595"
       d="m 103.82634,106.72111 c 0.1423,-0.24225 0.35163,-0.43563 0.5508,-0.63019 0.36207,-0.34832 0.73194,-0.68839 1.09796,-1.03253 0.1538,-0.14592 0.30832,-0.29116 0.45713,-0.4422 0,0 0.33465,-0.13857 0.33465,-0.13857 v 0 c -0.15637,0.15345 -0.31793,0.30146 -0.47733,0.45173 -0.36668,0.34174 -0.73599,0.68078 -1.09514,1.03049 -0.18974,0.18719 -0.39121,0.37267 -0.52507,0.60608 0,0 -0.343,0.15519 -0.343,0.15519 z"
       inkscape:connector-curvature="0" />
    <path
       style="opacity:0.65499998;fill:#000000;fill-opacity:1;fill-rule:nonzero;stroke:#000000;stroke-width:0.28249997;stroke-linecap:round;stroke-linejoin:round;stroke-miterlimit:4;stroke-dasharray:none;stroke-dashoffset:0;stroke-opacity:1"
       id="path1597"
       d="m 104.25036,104.12293 c 0.25322,0.25593 0.47636,0.5401 0.69626,0.82459 0.21052,0.27852 0.40558,0.56981 0.56335,0.8818 0.0855,0.16917 0.11007,0.2385 0.18043,0.41057 0.0201,0.0567 0.0402,0.11343 0.0603,0.17015 0,0 -0.30614,0.16868 -0.30614,0.16868 v 0 c -0.0181,-0.0571 -0.0362,-0.11421 -0.0542,-0.17132 -0.068,-0.17498 -0.0885,-0.23835 -0.17311,-0.41029 -0.15365,-0.31211 -0.34696,-0.60251 -0.55937,-0.8774 -0.1457,-0.18335 -0.29262,-0.3629 -0.45203,-0.53458 -0.0686,-0.0739 -0.1342,-0.14423 -0.20922,-0.21104 -0.0199,-0.0177 -0.0415,-0.0332 -0.0623,-0.0498 0,0 0.31604,-0.20134 0.31604,-0.20134 z"
       inkscape:connector-curvature="0" />
    <path
       style="opacity:0.65499998;fill:#000000;fill-opacity:1;fill-rule:nonzero;stroke:#000000;stroke-width:0.28249997;stroke-linecap:round;stroke-linejoin:round;stroke-miterlimit:4;stroke-dasharray:none;stroke-dashoffset:0;stroke-opacity:1"
       id="path1601"
       d="m 98.878432,106.88763 c 0.232248,0.0145 0.462948,0.0413 0.693281,0.074 0.279287,0.0392 0.555837,0.0973 0.827087,0.17426 0.10769,0.0357 0.0577,0.0178 0.15039,0.0529 0,0 -0.30685,0.20572 -0.30685,0.20572 v 0 c -0.0872,-0.0362 -0.0398,-0.0179 -0.14285,-0.0539 -0.266885,-0.0798 -0.539697,-0.13937 -0.816038,-0.17552 -0.235418,-0.0311 -0.471732,-0.0568 -0.70957,-0.0563 0,0 0.30455,-0.22127 0.30455,-0.22127 z"
       inkscape:connector-curvature="0" />
    <path
       style="opacity:1;fill:none;fill-opacity:1;fill-rule:nonzero;stroke:#000000;stroke-width:0.28249997;stroke-linecap:round;stroke-linejoin:round;stroke-miterlimit:4;stroke-dasharray:none;stroke-dashoffset:0;stroke-opacity:1"
       id="path1603"
       d="m 49.109776,51.510235 c -0.02534,-0.01591 -0.101684,-0.01938 -0.122523,-0.03606 -0.0046,-0.0037 -0.0067,-0.0098 -0.01003,-0.01468 0.110665,-0.06832 0.218026,-0.142297 0.331993,-0.20495 0.0036,-0.002 0.16399,0.01929 0.184455,0.02093 0.109601,0.0088 0.158696,0.01012 0.272869,0.01563 0.369025,0.0097 0.737932,-0.0082 1.106632,-0.02145 0.200902,-0.0063 0.40164,-0.01995 0.602506,-0.0073 0.231324,0.01635 -0.03312,0.09417 -0.248278,0.212613 -0.01957,-0.0045 -0.03095,-0.01954 -0.0418,-0.03546 -0.0086,-0.01271 -0.0133,-0.02469 -0.0181,-0.04019 -0.04002,-0.182542 -0.05515,-0.368908 -0.07151,-0.554668 -0.04582,-0.538661 -0.06533,-1.079038 -0.07947,-1.619308 -0.01449,-0.680078 -0.05186,-1.359344 -0.08675,-2.038595 -0.03415,-0.633589 -0.04905,-1.267848 -0.04451,-1.902291 0.0022,-0.366195 0.02222,-0.731913 0.03314,-1.097879 0.0016,-0.07978 0.0051,-0.159613 0.0038,-0.23943 -0.01538,-0.918036 0.352168,-0.150528 0.382575,-0.09938 0.0208,0.03475 0.03953,0.07085 0.05064,0.109918 0.0096,0.04724 0.01968,0.09439 0.03135,0.141174 0.04968,0.169332 0.133442,0.325473 0.218182,0.479267 0.200646,0.349472 0.41092,0.693253 0.625283,1.034442 0.273723,0.436442 0.562337,0.863206 0.861074,1.282843 0.227476,0.317258 0.456986,0.633156 0.679395,0.954003 0.110868,0.158506 0.215923,0.320737 0.303805,0.493164 0.02586,0.05301 0.04668,0.108164 0.05808,0.166073 5.29e-4,0.0029 0.0033,0.01094 0.0014,0.0087 -0.0064,-0.0077 -0.0019,-0.03254 -0.01082,-0.02797 -0.106141,0.0603 -0.212281,0.120599 -0.318421,0.180899 0.0093,-0.0036 0.0052,-9.26e-4 0.0123,-0.008 0.01462,-0.100284 0.06021,-0.189047 0.105212,-0.278686 0.192182,-0.351594 0.438388,-0.669606 0.682332,-0.986102 0.381279,-0.480079 0.731793,-0.983054 1.072038,-1.492671 0.305538,-0.471953 0.61957,-0.938176 0.935085,-1.403474 0.164715,-0.232249 0.313659,-0.474804 0.449756,-0.724734 0.115751,-0.217129 -0.0029,-0.09215 0.402739,-0.264922 0.0015,0.05433 -0.0028,0.108514 -2.64e-4,0.162858 0.01236,0.118027 0.01408,0.236699 0.01499,0.355249 -0.0099,0.32732 -0.05228,0.652666 -0.08074,0.978708 -0.03633,0.454166 -0.04387,0.91135 -0.0064,1.365748 0.0079,0.09538 0.01971,0.190396 0.02956,0.285595 0.0667,0.586228 0.220457,1.156376 0.371004,1.725195 0.121995,0.464617 0.250404,0.927588 0.367201,1.393552 0.06716,0.273339 0.117111,0.549998 0.14846,0.829603 0.0091,0.08906 0.01574,0.178376 0.01985,0.2678 0.01786,0.134247 -0.32314,0.308335 -0.339891,0.165357 -0.04585,-0.132662 0.223432,-0.161756 0.34875,-0.205315 0.210392,-0.04216 0.421201,-0.08117 0.632786,-0.117019 0.501835,-0.07972 1.008971,-0.121184 1.516286,-0.144279 0.276903,0.0015 0.567446,-0.02438 0.836268,0.05858 0.01193,0.0059 0.02494,0.0099 0.03578,0.01762 0.111289,0.07888 -0.202317,0.187669 -0.32297,0.251309 -0.0077,0.0041 -0.06473,-0.0077 -0.06885,-0.0084 -0.0881,-0.01864 -0.163777,-0.06781 -0.241092,-0.111196 -0.044,-0.02369 -0.09206,-0.03436 -0.140647,-0.0434 0,0 0.308228,-0.214053 0.308228,-0.214053 v 0 c 0.05062,0.01248 0.100433,0.02719 0.145866,0.05365 0.07325,0.04242 0.147325,0.08748 0.233149,0.09758 0.01132,1.2e-4 0.02272,0.0016 0.03398,3.97e-4 0.0091,-9.26e-4 0.03426,-0.0118 0.02658,-0.0068 -0.09871,0.06381 -0.204006,0.117327 -0.300746,0.184084 -0.0059,0.004 0.01164,0.0091 0.01861,0.01061 0.01345,0.003 -0.09074,-0.07589 -0.03457,-0.02261 -0.256757,-0.08439 -0.535392,-0.06585 -0.801407,-0.06796 -0.509668,0.02149 -1.01914,0.06511 -1.52187,0.154082 -0.220153,0.04112 -0.439011,0.0874 -0.65794,0.134374 -0.170411,-5.3e-4 0.360916,-0.164655 0.292553,-0.195047 -0.0096,0.134636 -0.362607,0.327957 -0.33611,0.180213 0.0048,-0.09035 -2.65e-4,-0.180944 -0.0054,-0.271161 -0.02186,-0.280928 -0.06784,-0.558749 -0.130042,-0.833595 -0.110409,-0.468604 -0.233637,-0.934064 -0.353298,-1.400365 -0.148891,-0.570828 -0.303624,-1.142295 -0.373521,-1.729568 -0.01013,-0.09557 -0.02224,-0.190949 -0.03041,-0.286706 -0.03871,-0.454049 -0.03319,-0.910858 -0.0049,-1.365289 0.02199,-0.321216 0.05644,-0.642151 0.05986,-0.964278 -0.0038,-0.116658 -0.0072,-0.233533 -0.02191,-0.349449 -0.0053,-0.05311 -0.0028,-0.106298 -0.0026,-0.15963 0.114283,-0.05716 0.229191,-0.113084 0.342846,-0.171481 0.0019,-9.65e-4 -0.0042,-0.0024 -0.0061,-0.0015 -0.0036,0.0017 -0.0062,0.0052 -0.0084,0.0084 -0.02234,0.03274 -0.03612,0.07141 -0.05933,0.103631 -0.148098,0.252705 -0.302246,0.501923 -0.474637,0.739017 -0.321894,0.465846 -0.640833,0.933628 -0.948655,1.408958 -0.338157,0.507809 -0.684743,1.010298 -1.061557,1.490494 -0.236565,0.310462 -0.475651,0.622391 -0.658998,0.968314 -0.04021,0.08323 -0.09136,0.170847 -0.09383,0.265906 -0.0043,0.147302 -0.295714,0.336339 -0.362706,0.193181 -0.0011,-0.0022 7.4e-5,-0.0048 1.09e-4,-0.0072 -0.0039,-0.05574 -0.02353,-0.108601 -0.04494,-0.159746 -0.08035,-0.174152 -0.180598,-0.337475 -0.286987,-0.496878 -0.215008,-0.325087 -0.440915,-0.642865 -0.665301,-0.961507 -0.295798,-0.422318 -0.583079,-0.85053 -0.86164,-1.284429 -0.218129,-0.339687 -0.43337,-0.681219 -0.643969,-1.025633 -0.0898,-0.154099 -0.177873,-0.310232 -0.236423,-0.479449 -0.01381,-0.04605 -0.02628,-0.09292 -0.03571,-0.139868 -0.0074,-0.03631 -0.02445,-0.06944 -0.04345,-0.10098 -0.101531,-0.16615 -0.02226,-0.08758 0.282813,-0.266089 0.0016,-9.13e-4 -3.97e-4,0.0036 -5.29e-4,0.0054 -0.0076,0.0825 -0.01318,0.165174 -0.01934,0.247789 -0.02716,0.369572 -0.0518,0.739558 -0.06022,1.110096 -0.01335,0.635329 -0.0011,1.270647 0.03417,1.905195 0.03431,0.679125 0.07024,1.358236 0.08938,2.038005 0.01802,0.535667 0.04199,1.071677 0.102645,1.6045 0.02163,0.180151 0.04144,0.36143 0.09218,0.536302 0.0028,0.01136 0.0081,0.01929 0.0139,0.02906 0.0086,0.01323 0.02365,0.01665 0.03528,0.02704 -0.105999,0.06697 -0.215147,0.129187 -0.317996,0.200896 -0.0047,0.0033 0.0082,0.0086 0.0097,0.01407 5.3e-4,0.002 -0.0041,-7.94e-4 -0.0061,-0.0011 -0.02063,-0.0037 -0.04137,-0.0067 -0.06224,-0.0088 -0.19375,-0.0174 -0.388234,-0.0056 -0.582377,-0.0025 -0.370196,0.01032 -0.740406,0.02749 -1.110834,0.02138 -0.126086,-0.004 -0.251852,-0.0084 -0.377721,-0.01682 -0.195416,-0.01304 -0.194328,0.0303 0.205714,-0.2117 -0.0021,-0.0026 -0.009,-0.0062 -0.0061,-0.0077 0.0018,-9.26e-4 0.108878,0.03452 0.120189,0.03502 0,0 -0.31135,0.213229 -0.31135,0.213229 z"
       inkscape:connector-curvature="0" />
    <path
       id="path1637"
       style="opacity:1;fill:#000000;fill-opacity:1;fill-rule:nonzero;stroke:#0b4088;stroke-width:0.28249997;stroke-linecap:round;stroke-linejoin:round;stroke-miterlimit:4;stroke-dasharray:none;stroke-dashoffset:0;stroke-opacity:1"
       d="m 86.922217,95.692676 c 0.218472,0.02399 0.438657,0.02685 0.658203,0.03094 0.19968,0.0027 0.399392,0.0029 0.599081,0.0012 0,0 -0.423393,0.30746 -0.423393,0.30746 v 0 c -0.197359,-0.0027 -0.394735,-0.0041 -0.592091,-0.0072 -0.225405,-0.0036 -0.451057,-0.0066 -0.6759,-0.02426 0,0 0.4341,-0.308111 0.4341,-0.308111 z m 3.878396,-6.25454 c 0.238652,0.02983 0.479655,0.02145 0.719221,0.01046 0.291007,-0.01432 0.580697,-0.04715 0.870913,-0.07214 0.02555,-0.0024 0.05109,-0.0048 0.07664,-0.0072 0,0 -0.423123,0.312449 -0.423123,0.312449 v 0 c -0.02428,0.0015 -0.04855,0.0029 -0.07283,0.0044 -0.287437,0.02004 -0.574167,0.0497 -0.862014,0.06355 -0.247851,0.01144 -0.496456,0.02007 -0.743943,-0.0036 0,0 0.435136,-0.307951 0.435136,-0.307951 z m 0.01772,5.996204 c 0.189429,0.05016 0.386837,0.06392 0.581646,0.07789 0.168715,0.0081 0.337451,0.01498 0.50614,0.02382 0,0 -0.294635,0.211316 -0.294635,0.211316 v 0 c -0.167123,-0.0118 -0.334429,-0.0186 -0.501727,-0.02737 -0.201767,-0.01389 -0.404857,-0.02882 -0.602773,-0.07242 0,0 0.311349,-0.213229 0.311349,-0.213229 z m -4.548338,-5.810052 c 0.234224,-0.01213 0.467344,-0.04148 0.700372,-0.06732 0.313472,-0.04248 0.628101,-0.06652 0.944033,-0.07871 0,0 -0.284562,0.20815 -0.284562,0.20815 v 0 c -0.315097,0.0081 -0.628332,0.03557 -0.940523,0.07975 -0.2403,0.02895 -0.480534,0.05863 -0.721379,0.08275 0,0 0.302059,-0.224607 0.302059,-0.224607 z m 6.201926,4.50477 c 0.150947,0.324885 0.353612,0.621692 0.555778,0.916098 0.31537,0.443069 0.669076,0.856309 1.012795,1.2771 0.142293,0.167949 0.277107,0.341895 0.409145,0.517939 0,0 -0.311042,0.183411 -0.311042,0.183411 v 0 c -0.12111,-0.182005 -0.251605,-0.357401 -0.389523,-0.527081 -0.337366,-0.426494 -0.687828,-0.842763 -1.00887,-1.282027 -0.209089,-0.293083 -0.415856,-0.588292 -0.594665,-0.9012 0,0 0.326382,-0.18424 0.326382,-0.18424 z m -0.419002,2.761786 c 0.101434,-0.247077 0.264836,-0.463305 0.420257,-0.678265 0.353256,-0.468852 0.707587,-0.936897 1.075222,-1.394601 0.270014,-0.331813 0.554399,-0.651469 0.843089,-0.96703 0.0642,-0.0729 0.03631,-0.03996 0.08442,-0.09816 0,0 0.342781,-0.145092 0.342781,-0.145092 v 0 c -0.05508,0.06231 -0.02358,0.02732 -0.09507,0.104464 -0.30366,0.314972 -0.597316,0.639654 -0.875161,0.977733 -0.36566,0.452653 -0.715181,0.917781 -1.060416,1.386156 -0.146603,0.207047 -0.300636,0.415086 -0.394259,0.652894 0,0 -0.340872,0.161897 -0.340872,0.161897 z m -5.400623,-7.09992 c 0.03284,0.04306 0.05712,0.07457 0.09044,0.120229 0.06103,0.08364 0.125311,0.176617 0.187366,0.25828 0.133212,0.175307 0.197171,0.248584 0.34393,0.426304 0.652506,0.765507 1.335867,1.503901 2.030722,2.230922 0.433339,0.452408 0.881035,0.891175 1.306335,1.351289 0.204887,0.221657 0.234897,0.260768 0.42179,0.479536 0.16327,0.199854 0.328336,0.399488 0.468663,0.616516 0.115833,0.116298 -0.241521,0.332489 -0.326325,0.197792 0,0 0.326228,-0.191485 0.326228,-0.191485 v 0 c 0.0885,0.116988 -0.288785,0.331962 -0.323256,0.180541 -0.117872,-0.226753 -0.276025,-0.429525 -0.42833,-0.633587 -0.179308,-0.224174 -0.20527,-0.261643 -0.404538,-0.487885 -0.412804,-0.468685 -0.853101,-0.912128 -1.282738,-1.365114 -0.695077,-0.731398 -1.384064,-1.468574 -2.068586,-2.209853 -0.15504,-0.174171 -0.221408,-0.245302 -0.363696,-0.416638 -0.0682,-0.08212 -0.132882,-0.167112 -0.200881,-0.249397 -0.04925,-0.0596 -0.05395,-0.06368 -0.0995,-0.11329 0,0 0.322371,-0.19416 0.322371,-0.19416 z m 0.0053,6.051608 c 0.181685,-0.387276 0.430631,-0.737241 0.674161,-1.087096 0.532653,-0.756612 1.122343,-1.470324 1.707268,-2.186477 0.494788,-0.61106 1.007554,-1.207151 1.503018,-1.81762 0.113317,-0.144088 0.230469,-0.285765 0.331675,-0.438898 0.03902,-0.05904 0.07356,-0.116434 0.09418,-0.183966 -6.62e-4,-0.01583 -3.97e-4,-0.01024 -4.1e-5,0.01682 0,0 0.439156,-0.307872 0.439156,-0.307872 v 0 c 0.04058,0.03756 0.02866,0.01574 0.04086,0.06242 -0.01954,0.07841 -0.05667,0.140706 -0.102452,0.207828 -0.107801,0.158073 -0.232903,0.303439 -0.353005,0.452006 -0.511591,0.612124 -1.035611,1.213742 -1.539003,1.832729 -0.578995,0.708783 -1.161927,1.416181 -1.680911,2.170982 -0.230968,0.338814 -0.471729,0.67789 -0.631454,1.057756 0,0 -0.483453,0.22138 -0.483453,0.22138 z"
       inkscape:connector-curvature="0" />
  </g>
</svg>
