<?xml version="1.0" encoding="UTF-8" standalone="no"?>
<!-- Created with Inkscape (http://www.inkscape.org/) -->

<svg
   xmlns:dc="http://purl.org/dc/elements/1.1/"
   xmlns:cc="http://creativecommons.org/ns#"
   xmlns:rdf="http://www.w3.org/1999/02/22-rdf-syntax-ns#"
   xmlns:svg="http://www.w3.org/2000/svg"
   xmlns="http://www.w3.org/2000/svg"
   xmlns:sodipodi="http://sodipodi.sourceforge.net/DTD/sodipodi-0.dtd"
   xmlns:inkscape="http://www.inkscape.org/namespaces/inkscape"
   width="335.46405mm"
   height="182.99586mm"
   viewBox="0 0 335.46405 182.99585"
   version="1.1"
   id="svg8"
   inkscape:version="0.92.4 (5da689c313, 2019-01-14)"
   sodipodi:docname="qubit.svg">
  <defs
     id="defs2">
    <marker
       inkscape:isstock="true"
       style="overflow:visible"
       id="marker11204"
       refX="0"
       refY="0"
       orient="auto"
       inkscape:stockid="Arrow2Mend">
      <path
         inkscape:connector-curvature="0"
         transform="scale(-0.6)"
         d="M 8.7185878,4.0337352 -2.2072895,0.01601326 8.7185884,-4.0017078 c -1.7454984,2.3720609 -1.7354408,5.6174519 -6e-7,8.035443 z"
         style="fill:#000000;fill-opacity:1;fill-rule:evenodd;stroke:#000000;stroke-width:0.625;stroke-linejoin:round;stroke-opacity:1"
         id="path11202" />
    </marker>
    <marker
       inkscape:isstock="true"
       style="overflow:visible"
       id="marker8965"
       refX="0"
       refY="0"
       orient="auto"
       inkscape:stockid="Arrow2Mend">
      <path
         transform="scale(-0.6)"
         d="M 8.7185878,4.0337352 -2.2072895,0.01601326 8.7185884,-4.0017078 c -1.7454984,2.3720609 -1.7354408,5.6174519 -6e-7,8.035443 z"
         style="fill:#000000;fill-opacity:0.99545456;fill-rule:evenodd;stroke:none;stroke-width:0.625;stroke-linejoin:round;stroke-opacity:1"
         id="path8963"
         inkscape:connector-curvature="0" />
    </marker>
    <marker
       inkscape:isstock="true"
       style="overflow:visible"
       id="marker7204"
       refX="0"
       refY="0"
       orient="auto"
       inkscape:stockid="Arrow2Mend">
      <path
         transform="scale(-0.6)"
         d="M 8.7185878,4.0337352 -2.2072895,0.01601326 8.7185884,-4.0017078 c -1.7454984,2.3720609 -1.7354408,5.6174519 -6e-7,8.035443 z"
         style="fill:#000000;fill-opacity:0.99545456;fill-rule:evenodd;stroke:none;stroke-width:0.625;stroke-linejoin:round;stroke-opacity:1"
         id="path7202"
         inkscape:connector-curvature="0" />
    </marker>
    <marker
       inkscape:isstock="true"
       style="overflow:visible"
       id="marker5974"
       refX="0"
       refY="0"
       orient="auto"
       inkscape:stockid="Arrow2Mend">
      <path
         transform="scale(-0.6)"
         d="M 8.7185878,4.0337352 -2.2072895,0.01601326 8.7185884,-4.0017078 c -1.7454984,2.3720609 -1.7354408,5.6174519 -6e-7,8.035443 z"
         style="fill:#63ff85;fill-opacity:1;fill-rule:evenodd;stroke:#63ff85;stroke-width:0.625;stroke-linejoin:round;stroke-opacity:1"
         id="path5972"
         inkscape:connector-curvature="0" />
    </marker>
    <marker
       inkscape:isstock="true"
       style="overflow:visible"
       id="marker5396"
       refX="0"
       refY="0"
       orient="auto"
       inkscape:stockid="Arrow2Mend">
      <path
         transform="scale(-0.6)"
         d="M 8.7185878,4.0337352 -2.2072895,0.01601326 8.7185884,-4.0017078 c -1.7454984,2.3720609 -1.7354408,5.6174519 -6e-7,8.035443 z"
         style="fill:#739bff;fill-opacity:1;fill-rule:evenodd;stroke:#739bff;stroke-width:0.625;stroke-linejoin:round;stroke-opacity:1"
         id="path5394"
         inkscape:connector-curvature="0" />
    </marker>
    <marker
       inkscape:stockid="Arrow2Mend"
       orient="auto"
       refY="0"
       refX="0"
       id="Arrow2Mend"
       style="overflow:visible"
       inkscape:isstock="true"
       inkscape:collect="always">
      <path
         id="path4553"
         style="fill:#ff5161;fill-opacity:1;fill-rule:evenodd;stroke:#ff5161;stroke-width:0.625;stroke-linejoin:round;stroke-opacity:1"
         d="M 8.7185878,4.0337352 -2.2072895,0.01601326 8.7185884,-4.0017078 c -1.7454984,2.3720609 -1.7354408,5.6174519 -6e-7,8.035443 z"
         transform="scale(-0.6)"
         inkscape:connector-curvature="0" />
    </marker>
    <marker
       inkscape:stockid="Arrow2Send"
       orient="auto"
       refY="0"
       refX="0"
       id="Arrow2Send"
       style="overflow:visible"
       inkscape:isstock="true">
      <path
         id="path4559"
         style="fill:#000000;fill-opacity:1;fill-rule:evenodd;stroke:#000000;stroke-width:0.625;stroke-linejoin:round;stroke-opacity:1"
         d="M 8.7185878,4.0337352 -2.2072895,0.01601326 8.7185884,-4.0017078 c -1.7454984,2.3720609 -1.7354408,5.6174519 -6e-7,8.035443 z"
         transform="matrix(-0.3,0,0,-0.3,0.69,0)"
         inkscape:connector-curvature="0" />
    </marker>
    <marker
       inkscape:stockid="Arrow2Lend"
       orient="auto"
       refY="0"
       refX="0"
       id="Arrow2Lend"
       style="overflow:visible"
       inkscape:isstock="true">
      <path
         id="path4547"
         style="fill:#000000;fill-opacity:1;fill-rule:evenodd;stroke:#000000;stroke-width:0.625;stroke-linejoin:round;stroke-opacity:1"
         d="M 8.7185878,4.0337352 -2.2072895,0.01601326 8.7185884,-4.0017078 c -1.7454984,2.3720609 -1.7354408,5.6174519 -6e-7,8.035443 z"
         transform="matrix(-1.1,0,0,-1.1,-1.1,0)"
         inkscape:connector-curvature="0" />
    </marker>
    <marker
       inkscape:stockid="Arrow1Lend"
       orient="auto"
       refY="0"
       refX="0"
       id="marker5006"
       style="overflow:visible"
       inkscape:isstock="true">
      <path
         id="path5004"
         d="M 0,0 5,-5 -12.5,0 5,5 Z"
         style="fill:#000000;fill-opacity:1;fill-rule:evenodd;stroke:#000000;stroke-width:1.00000003pt;stroke-opacity:1"
         transform="matrix(-0.8,0,0,-0.8,-10,0)"
         inkscape:connector-curvature="0" />
    </marker>
    <marker
       inkscape:stockid="Arrow1Lend"
       orient="auto"
       refY="0"
       refX="0"
       id="marker4978"
       style="overflow:visible"
       inkscape:isstock="true">
      <path
         id="path4976"
         d="M 0,0 5,-5 -12.5,0 5,5 Z"
         style="fill:#000000;fill-opacity:1;fill-rule:evenodd;stroke:#000000;stroke-width:1.00000003pt;stroke-opacity:1"
         transform="matrix(-0.8,0,0,-0.8,-10,0)"
         inkscape:connector-curvature="0" />
    </marker>
    <marker
       inkscape:stockid="Arrow1Lend"
       orient="auto"
       refY="0"
       refX="0"
       id="Arrow1Lend"
       style="overflow:visible"
       inkscape:isstock="true">
      <path
         id="path4529"
         d="M 0,0 5,-5 -12.5,0 5,5 Z"
         style="fill:#000000;fill-opacity:1;fill-rule:evenodd;stroke:#000000;stroke-width:1.00000003pt;stroke-opacity:1"
         transform="matrix(-0.8,0,0,-0.8,-10,0)"
         inkscape:connector-curvature="0" />
    </marker>
  </defs>
  <sodipodi:namedview
     id="base"
     pagecolor="#ffffff"
     bordercolor="#666666"
     borderopacity="1.0"
     inkscape:pageopacity="0.0"
     inkscape:pageshadow="2"
     inkscape:zoom="0.7"
     inkscape:cx="39.423924"
     inkscape:cy="185.04001"
     inkscape:document-units="mm"
     inkscape:current-layer="layer1"
     showgrid="true"
     inkscape:window-width="1920"
     inkscape:window-height="1025"
     inkscape:window-x="0"
     inkscape:window-y="27"
     inkscape:window-maximized="1"
     fit-margin-top="2"
     fit-margin-left="2"
     fit-margin-right="2"
     fit-margin-bottom="2">
    <inkscape:grid
       empopacity="0.25098039"
       empcolor="#3fa1ff"
       opacity="0.1254902"
       color="#ff683f"
       empspacing="5"
       dotted="true"
       spacingy="1.3229167"
       spacingx="1.3229167"
       visible="true"
       id="grid815"
       type="xygrid"
       originx="95.339061"
       originy="-97.218729" />
  </sodipodi:namedview>
  <metadata
     id="metadata5">
    <rdf:RDF>
      <cc:Work
         rdf:about="">
        <dc:format>image/svg+xml</dc:format>
        <dc:type
           rdf:resource="http://purl.org/dc/dcmitype/StillImage" />
        <dc:title />
      </cc:Work>
    </rdf:RDF>
  </metadata>
  <g
     inkscape:label="Camada 1"
     inkscape:groupmode="layer"
     id="layer1"
     transform="translate(95.339068,-16.78534)">
    <rect
       style="opacity:1;vector-effect:none;fill:none;fill-opacity:1;fill-rule:nonzero;stroke:#000000;stroke-width:1.00399995;stroke-miterlimit:4;stroke-dasharray:none;stroke-opacity:1"
       id="rect11200"
       width="330.72916"
       height="178.59372"
       x="-92.604172"
       y="19.187481" />
    <path
       style="opacity:0.822;fill:none;fill-opacity:0.99545456;fill-rule:nonzero;stroke:#000000;stroke-width:0.60100001;stroke-linecap:butt;stroke-linejoin:round;stroke-miterlimit:4;stroke-dasharray:2.404, 1.202;stroke-dashoffset:3.7262001;stroke-opacity:1"
       d="m 105.83334,65.606711 a 10.510423,52.799528 0 0 1 10.51043,52.799529 10.510423,52.799528 0 0 1 -10.51043,52.79952"
       id="path4522-3"
       inkscape:connector-curvature="0" />
    <path
       style="fill:none;stroke:#739bff;stroke-width:1.08700001;stroke-linecap:butt;stroke-linejoin:miter;stroke-miterlimit:4;stroke-dasharray:none;stroke-opacity:1;marker-end:url(#marker5396)"
       d="M 105.83333,118.40624 V 170"
       id="path5296"
       inkscape:connector-curvature="0" />
    <path
       style="opacity:1;vector-effect:none;fill:none;fill-opacity:1;stroke:#63ff85;stroke-width:1.08700001;stroke-linecap:butt;stroke-linejoin:miter;stroke-miterlimit:4;stroke-dasharray:none;stroke-dashoffset:0;stroke-opacity:1;marker-end:url(#marker5974)"
       d="m 105.83333,118.40624 48.94792,2.64583"
       id="path5944"
       inkscape:connector-curvature="0"
       sodipodi:nodetypes="cc"
       inkscape:transform-center-x="-25.771634"
       inkscape:transform-center-y="0.27771001" />
    <circle
       style="opacity:0.822;fill:none;fill-opacity:0.99545456;fill-rule:nonzero;stroke:#000000;stroke-width:1.60399997;stroke-linecap:butt;stroke-linejoin:round;stroke-miterlimit:4;stroke-dasharray:none;stroke-dashoffset:0;stroke-opacity:1"
       id="path4520"
       cx="105.83333"
       cy="118.40624"
       r="52.916664" />
    <path
       style="opacity:0.822;fill:none;fill-opacity:0.99545456;fill-rule:nonzero;stroke:#000000;stroke-width:0.60000002;stroke-linecap:butt;stroke-linejoin:round;stroke-miterlimit:4;stroke-dasharray:none;stroke-dashoffset:0;stroke-opacity:1"
       d="m 158.6729,118.40624 v 0 a 52.839572,9.0765516 0 0 1 -52.83957,9.07655 52.839572,9.0765516 0 0 1 -52.839575,-9.07655"
       id="path7441"
       inkscape:connector-curvature="0" />
    <path
       style="opacity:0.822;fill:none;fill-opacity:0.99545456;fill-rule:nonzero;stroke:#000000;stroke-width:0.60100001;stroke-linecap:butt;stroke-linejoin:round;stroke-miterlimit:4;stroke-dasharray:2.404, 1.202;stroke-dashoffset:3.7262001;stroke-opacity:1"
       d="m 52.993755,118.40624 a 52.839572,9.0765516 0 0 1 52.839575,-9.07655 52.839572,9.0765516 0 0 1 52.83957,9.07655"
       id="path4522"
       inkscape:connector-curvature="0" />
    <path
       style="fill:none;stroke:#ff5161;stroke-width:1.08700001;stroke-linecap:butt;stroke-linejoin:miter;stroke-miterlimit:4;stroke-dasharray:none;stroke-opacity:1;marker-end:url(#Arrow2Mend)"
       d="M 105.83333,118.40624 V 66.812494"
       id="path4524"
       inkscape:connector-curvature="0" />
    <path
       style="opacity:0.822;fill:none;fill-opacity:0.99545456;fill-rule:nonzero;stroke:#000000;stroke-width:0.60000002;stroke-linecap:butt;stroke-linejoin:round;stroke-miterlimit:4;stroke-dasharray:none;stroke-dashoffset:0;stroke-opacity:1"
       d="m 105.83334,171.20576 v 0 A 10.510423,52.799528 0 0 1 95.322914,118.40624 10.510423,52.799528 0 0 1 105.83334,65.606711"
       id="path7441-5"
       inkscape:connector-curvature="0" />
    <path
       style="opacity:0.822;fill:none;fill-opacity:0.99545456;fill-rule:nonzero;stroke:#000000;stroke-width:0.38037771;stroke-linecap:butt;stroke-linejoin:round;stroke-miterlimit:4;stroke-dasharray:none;stroke-dashoffset:0;stroke-opacity:1"
       d="m 151.98124,91.947776 v 0 a 46.224989,4.169951 0 0 1 -46.225,4.169949 46.224989,4.169951 0 0 1 -46.224988,-4.169949"
       id="path7441-2"
       inkscape:connector-curvature="0" />
    <path
       style="opacity:0.822;fill:none;fill-opacity:0.99545456;fill-rule:nonzero;stroke:#000000;stroke-width:0.40575433;stroke-linecap:butt;stroke-linejoin:round;stroke-miterlimit:4;stroke-dasharray:1.62301729, 0.81150864;stroke-dashoffset:3.7262001;stroke-opacity:1"
       d="m 59.539989,91.957121 a 46.216252,4.7300181 0 0 1 46.216251,-4.730017 46.216252,4.7300181 0 0 1 46.21626,4.730017"
       id="path4522-9"
       inkscape:connector-curvature="0" />
    <path
       style="opacity:0.822;fill:none;fill-opacity:0.99545456;fill-rule:nonzero;stroke:#000000;stroke-width:0.54187012;stroke-linecap:butt;stroke-linejoin:round;stroke-miterlimit:4;stroke-dasharray:none;stroke-dashoffset:0;stroke-opacity:1"
       d="m 150.96669,144.86448 v 0 a 45.056256,8.6818626 0 0 1 -45.05627,8.68186 45.056256,8.6818626 0 0 1 -45.056252,-8.68186"
       id="path7441-2-1"
       inkscape:connector-curvature="0" />
    <path
       style="opacity:0.822;fill:none;fill-opacity:0.99545456;fill-rule:nonzero;stroke:#000000;stroke-width:0.55494761;stroke-linecap:butt;stroke-linejoin:round;stroke-miterlimit:4;stroke-dasharray:2.21979049, 1.10989523;stroke-dashoffset:3.7262001;stroke-opacity:1"
       d="m 60.858399,144.86458 a 45.052025,9.0765516 0 0 1 45.052021,-9.07655 45.052025,9.0765516 0 0 1 45.05204,9.07655"
       id="path4522-9-2"
       inkscape:connector-curvature="0" />
    <circle
       style="opacity:1;vector-effect:none;fill:#ff5161;fill-opacity:1;fill-rule:nonzero;stroke:none;stroke-width:0.1;stroke-linecap:butt;stroke-linejoin:miter;stroke-miterlimit:4;stroke-dasharray:none;stroke-dashoffset:14.08327579;stroke-opacity:1"
       id="path8961-7"
       cx="105.83333"
       cy="65.489578"
       r="2.6458333" />
    <circle
       style="opacity:1;vector-effect:none;fill:#739bff;fill-opacity:1;fill-rule:nonzero;stroke:none;stroke-width:0.1;stroke-linecap:butt;stroke-linejoin:miter;stroke-miterlimit:4;stroke-dasharray:none;stroke-dashoffset:14.08327579;stroke-opacity:1"
       id="path8961-0"
       cx="105.85174"
       cy="171.24539"
       r="2.6458333" />
    <g
       id="g10338"
       transform="matrix(0.83821281,0,0,0.83821281,28.38225,-24.682756)"
       style="fill:#ff5161;fill-opacity:1">
      <g
         word-spacing="normal"
         letter-spacing="normal"
         font-size-adjust="none"
         font-stretch="normal"
         font-weight="normal"
         font-variant="normal"
         font-style="normal"
         stroke-miterlimit="10.433"
         xml:space="preserve"
         transform="matrix(0.3,0,0,-0.3,-52.5,222.75)"
         id="content"
         style="font-style:normal;font-variant:normal;font-weight:normal;font-stretch:normal;letter-spacing:normal;word-spacing:normal;text-anchor:start;fill:#ff5161;fill-opacity:1;fill-rule:evenodd;stroke:#000000;stroke-linecap:butt;stroke-linejoin:miter;stroke-miterlimit:10.43299961;stroke-dasharray:none;stroke-dashoffset:0;stroke-opacity:1"><path
           id="path10331"
           d="m 463.44,441.78 v 0.16 0.17 l -0.01,0.16 v 0.08 0.08 l -0.01,0.08 -0.01,0.08 -0.01,0.07 -0.01,0.07 -0.02,0.07 -0.01,0.07 -0.02,0.07 -0.02,0.06 -0.03,0.06 -0.03,0.06 -0.03,0.06 -0.03,0.05 -0.04,0.05 -0.04,0.05 -0.05,0.04 -0.05,0.04 -0.03,0.01 -0.03,0.02 -0.03,0.02 -0.03,0.01 -0.03,0.01 -0.03,0.02 -0.03,0.01 -0.04,0.01 -0.04,0.01 -0.03,0.01 h -0.04 l -0.04,0.01 h -0.04 l -0.05,0.01 h -0.04 -0.05 c -1,0 -1,-0.89 -1,-1.78 v -46.24 c 0,-0.9 0,-1.79 1,-1.79 1,0 1,0.89 1,1.79 z"
           inkscape:connector-curvature="0"
           style="fill:#ff5161;fill-opacity:1;stroke-width:0" /><path
           id="path10333"
           d="m 483.96,438.09 v 0.05 0.06 0.05 0.05 0.05 0.05 0.04 l -0.01,0.05 v 0.04 0.04 0.04 0.04 0.04 0.03 l -0.01,0.04 v 0.03 l -0.01,0.07 -0.01,0.06 -0.01,0.05 -0.01,0.05 -0.02,0.05 -0.02,0.04 -0.02,0.04 -0.03,0.03 -0.02,0.03 -0.04,0.03 -0.03,0.03 -0.04,0.02 -0.05,0.02 -0.02,0.01 -0.02,0.01 h -0.03 l -0.03,0.01 -0.02,0.01 h -0.03 l -0.04,0.01 h -0.03 l -0.03,0.01 h -0.04 -0.03 l -0.04,0.01 h -0.04 -0.04 -0.04 -0.04 -0.05 l -0.04,0.01 h -0.05 -0.05 -0.05 -0.05 c -3.1,-3.19 -7.47,-3.19 -9.07,-3.19 v -1.55 c 1,0 3.94,0 6.52,1.3 v -25.81 c 0,-1.8 -0.14,-2.39 -4.63,-2.39 h -1.59 v -1.55 c 1.75,0.16 6.08,0.16 8.06,0.16 2,0 6.33,0 8.08,-0.16 v 1.55 h -1.59 c -4.49,0 -4.64,0.54 -4.64,2.39 z"
           inkscape:connector-curvature="0"
           style="fill:#ff5161;fill-opacity:1;stroke-width:0" /><path
           id="path10335"
           d="m 507.87,417.81 0.01,0.03 0.01,0.02 0.01,0.03 0.01,0.02 0.01,0.03 0.01,0.02 0.01,0.03 0.01,0.02 0.01,0.02 0.01,0.02 0.01,0.02 v 0.03 l 0.02,0.03 0.01,0.04 0.01,0.04 0.02,0.03 0.01,0.03 0.01,0.03 v 0.03 l 0.01,0.02 0.01,0.03 0.01,0.02 v 0.02 l 0.01,0.02 v 0.02 0.02 l 0.01,0.02 v 0.01 0.02 0.01 0.02 l 0.01,0.01 v 0.03 0.03 0.02 c 0,0.16 0,0.25 -0.25,0.85 l -8.72,22.92 c -0.3,0.84 -0.6,1.14 -1.14,1.14 -0.55,0 -1,-0.44 -1,-0.99 0,-0.15 0,-0.25 0.25,-0.79 l 8.83,-23.13 -8.83,-23.01 c -0.25,-0.55 -0.25,-0.64 -0.25,-0.89 0,-0.55 0.45,-1 1,-1 0.65,0 0.84,0.5 1.04,1 z"
           inkscape:connector-curvature="0"
           style="fill:#ff5161;fill-opacity:1;stroke-width:0" /></g>    </g>
    <g
       id="g10399"
       transform="matrix(0.89036591,0,0,0.89036591,23.741259,93.689084)"
       style="fill:#739bff;fill-opacity:1">
      <g
         word-spacing="normal"
         letter-spacing="normal"
         font-size-adjust="none"
         font-stretch="normal"
         font-weight="normal"
         font-variant="normal"
         font-style="normal"
         stroke-miterlimit="10.433"
         xml:space="preserve"
         transform="matrix(0.3,0,0,-0.3,-52.5,222.75)"
         id="g10397"
         style="font-style:normal;font-variant:normal;font-weight:normal;font-stretch:normal;letter-spacing:normal;word-spacing:normal;text-anchor:start;fill:#739bff;fill-opacity:1;fill-rule:evenodd;stroke:#000000;stroke-linecap:butt;stroke-linejoin:miter;stroke-miterlimit:10.43299961;stroke-dasharray:none;stroke-dashoffset:0;stroke-opacity:1"><path
           id="path10391"
           d="m 463.44,441.78 v 0.16 0.17 l -0.01,0.16 v 0.08 0.08 l -0.01,0.08 -0.01,0.08 -0.01,0.07 -0.01,0.07 -0.02,0.07 -0.01,0.07 -0.02,0.07 -0.02,0.06 -0.03,0.06 -0.03,0.06 -0.03,0.06 -0.03,0.05 -0.04,0.05 -0.04,0.05 -0.05,0.04 -0.05,0.04 -0.03,0.01 -0.03,0.02 -0.03,0.02 -0.03,0.01 -0.03,0.01 -0.03,0.02 -0.03,0.01 -0.04,0.01 -0.04,0.01 -0.03,0.01 h -0.04 l -0.04,0.01 h -0.04 l -0.05,0.01 h -0.04 -0.05 c -1,0 -1,-0.89 -1,-1.78 v -46.24 c 0,-0.9 0,-1.79 1,-1.79 1,0 1,0.89 1,1.79 z"
           inkscape:connector-curvature="0"
           style="fill:#739bff;fill-opacity:1;stroke-width:0" /><path
           id="path10393"
           d="m 492.24,422.14 -0.01,0.74 -0.01,0.75 -0.02,0.75 -0.03,0.74 -0.04,0.75 -0.06,0.74 -0.08,0.74 -0.1,0.73 -0.11,0.73 -0.14,0.73 -0.16,0.72 -0.19,0.72 -0.22,0.72 -0.24,0.7 -0.28,0.7 -0.15,0.35 -0.16,0.34 c -2.28,4.8 -6.38,5.6 -8.47,5.6 -2.98,0 -6.63,-1.3 -8.67,-5.94 -1.6,-3.44 -1.85,-7.33 -1.85,-11.31 0,-3.74 0.21,-8.22 2.25,-12 2.14,-4.03 5.79,-5.03 8.22,-5.03 v 1.09 c -1.93,0 -4.89,1.25 -5.78,6.03 -0.55,2.98 -0.55,7.56 -0.55,10.52 0,3.18 0,6.46 0.41,9.15 0.94,5.94 4.67,6.38 5.92,6.38 1.64,0 4.94,-0.89 5.88,-5.83 0.5,-2.78 0.5,-6.58 0.5,-9.7 0,-3.75 0,-7.13 -0.55,-10.32 -0.75,-4.73 -3.59,-6.23 -5.83,-6.23 v 0 -1.09 c 2.69,0 6.47,1.04 8.67,5.78 1.6,3.43 1.85,7.31 1.85,11.25 z"
           inkscape:connector-curvature="0"
           style="fill:#739bff;fill-opacity:1;stroke-width:0" /><path
           id="path10395"
           d="m 507.87,417.81 0.01,0.03 0.01,0.02 0.01,0.03 0.01,0.02 0.01,0.03 0.01,0.02 0.01,0.03 0.01,0.02 0.01,0.02 0.01,0.02 0.01,0.02 v 0.03 l 0.02,0.03 0.01,0.04 0.01,0.04 0.02,0.03 0.01,0.03 0.01,0.03 v 0.03 l 0.01,0.02 0.01,0.03 0.01,0.02 v 0.02 l 0.01,0.02 v 0.02 0.02 l 0.01,0.02 v 0.01 0.02 0.01 0.02 l 0.01,0.01 v 0.03 0.03 0.02 c 0,0.16 0,0.25 -0.25,0.85 l -8.72,22.92 c -0.3,0.84 -0.6,1.14 -1.14,1.14 -0.55,0 -1,-0.44 -1,-0.99 0,-0.15 0,-0.25 0.25,-0.79 l 8.83,-23.13 -8.83,-23.01 c -0.25,-0.55 -0.25,-0.64 -0.25,-0.89 0,-0.55 0.45,-1 1,-1 0.65,0 0.84,0.5 1.04,1 z"
           inkscape:connector-curvature="0"
           style="fill:#739bff;fill-opacity:1;stroke-width:0" /></g>    </g>
    <g
       id="g10547"
       transform="matrix(0.69293942,0,0,0.69293942,101.8558,54.312651)"
       style="fill:#63ff85;fill-opacity:1;stroke:#63ff85;stroke-opacity:1">
      <g
         word-spacing="normal"
         letter-spacing="normal"
         font-size-adjust="none"
         font-stretch="normal"
         font-weight="normal"
         font-variant="normal"
         font-style="normal"
         stroke-miterlimit="10.433"
         xml:space="preserve"
         transform="matrix(0.3,0,0,-0.3,-52.5,222.75)"
         id="g10545"
         style="font-style:normal;font-variant:normal;font-weight:normal;font-stretch:normal;letter-spacing:normal;word-spacing:normal;text-anchor:start;fill:#63ff85;fill-opacity:1;fill-rule:evenodd;stroke:#63ff85;stroke-miterlimit:10.43299961;stroke-opacity:1"><path
           id="path10523"
           d="m 469.44,454.26 v 0.16 0.17 l -0.01,0.16 v 0.08 0.08 l -0.01,0.08 -0.01,0.08 -0.01,0.07 -0.01,0.07 -0.02,0.07 -0.01,0.07 -0.02,0.07 -0.02,0.06 -0.03,0.06 -0.03,0.06 -0.03,0.06 -0.03,0.05 -0.04,0.05 -0.04,0.05 -0.05,0.04 -0.05,0.04 -0.03,0.01 -0.03,0.02 -0.03,0.02 -0.03,0.01 -0.03,0.01 -0.03,0.02 -0.03,0.01 -0.04,0.01 -0.04,0.01 -0.03,0.01 h -0.04 l -0.04,0.01 h -0.04 l -0.05,0.01 h -0.04 -0.05 c -1,0 -1,-0.89 -1,-1.78 v -46.24 c 0,-0.9 0,-1.79 1,-1.79 1,0 1,0.89 1,1.79 z"
           inkscape:connector-curvature="0"
           style="fill:#63ff85;fill-opacity:1;stroke:#63ff85;stroke-opacity:1" /><path
           id="path10525"
           d="m 498.24,434.62 -0.01,0.74 -0.01,0.75 -0.02,0.75 -0.03,0.74 -0.04,0.75 -0.06,0.74 -0.08,0.74 -0.1,0.73 -0.11,0.73 -0.14,0.73 -0.16,0.73 -0.19,0.71 -0.22,0.72 -0.24,0.7 -0.28,0.7 -0.15,0.35 -0.16,0.34 c -2.28,4.8 -6.38,5.6 -8.47,5.6 -2.98,0 -6.63,-1.3 -8.67,-5.94 -1.6,-3.44 -1.85,-7.33 -1.85,-11.31 0,-3.74 0.21,-8.22 2.25,-12 2.14,-4.03 5.79,-5.03 8.22,-5.03 v 1.09 c -1.93,0 -4.89,1.25 -5.78,6.03 -0.55,2.99 -0.55,7.56 -0.55,10.52 0,3.18 0,6.47 0.41,9.15 0.94,5.94 4.67,6.38 5.92,6.38 1.64,0 4.94,-0.89 5.88,-5.83 0.5,-2.78 0.5,-6.58 0.5,-9.7 0,-3.75 0,-7.13 -0.55,-10.32 -0.75,-4.73 -3.59,-6.23 -5.83,-6.23 v 0 -1.09 c 2.69,0 6.47,1.04 8.67,5.78 1.6,3.43 1.85,7.31 1.85,11.25 z"
           inkscape:connector-curvature="0"
           style="fill:#63ff85;fill-opacity:1;stroke:#63ff85;stroke-opacity:1" /><path
           id="path10527"
           d="m 513.87,430.29 0.01,0.03 0.01,0.02 0.01,0.03 0.01,0.02 0.01,0.03 0.01,0.02 0.01,0.03 0.01,0.02 0.01,0.02 0.01,0.02 0.01,0.02 v 0.03 l 0.02,0.03 0.01,0.04 0.01,0.04 0.02,0.03 0.01,0.03 0.01,0.03 v 0.03 l 0.01,0.02 0.01,0.03 0.01,0.02 v 0.02 l 0.01,0.02 v 0.02 0.02 l 0.01,0.02 v 0.01 0.02 0.02 0.01 l 0.01,0.01 v 0.03 0.03 0.02 c 0,0.16 0,0.25 -0.25,0.85 l -8.72,22.92 c -0.3,0.84 -0.6,1.14 -1.14,1.14 -0.55,0 -1,-0.44 -1,-0.99 0,-0.15 0,-0.25 0.25,-0.79 l 8.83,-23.13 -8.83,-23.01 c -0.25,-0.55 -0.25,-0.64 -0.25,-0.89 0,-0.55 0.45,-1 1,-1 0.65,0 0.84,0.5 1.04,1 z"
           inkscape:connector-curvature="0"
           style="fill:#63ff85;fill-opacity:1;stroke:#63ff85;stroke-opacity:1" /><path
           id="path10529"
           d="m 551.12,430.13 h 13.91 c 0.69,0 1.64,0 1.64,1 0,1 -0.95,1 -1.64,1 h -13.91 v 13.96 c 0,0.68 0,1.64 -1,1.64 -0.98,0 -0.98,-0.96 -0.98,-1.64 v -13.96 h -13.95 c -0.71,0 -1.64,0 -1.64,-1 0,-1 0.93,-1 1.64,-1 h 13.95 V 416.2 c 0,-0.71 0,-1.66 0.98,-1.66 1,0 1,0.95 1,1.66 z"
           inkscape:connector-curvature="0"
           style="fill:#63ff85;fill-opacity:1;stroke:#63ff85;stroke-opacity:1" /><path
           id="path10531"
           d="m 588.47,454.26 v 0.16 0.17 l -0.01,0.16 v 0.08 l -0.01,0.08 v 0.08 l -0.01,0.08 -0.01,0.07 -0.01,0.07 -0.02,0.07 -0.01,0.07 -0.02,0.07 -0.03,0.06 -0.02,0.06 -0.03,0.06 -0.03,0.06 -0.04,0.05 -0.03,0.05 -0.05,0.05 -0.04,0.04 -0.05,0.04 -0.03,0.01 -0.03,0.02 -0.03,0.02 -0.03,0.01 -0.03,0.01 -0.03,0.02 -0.04,0.01 -0.03,0.01 -0.04,0.01 -0.04,0.01 h -0.03 l -0.04,0.01 h -0.05 l -0.04,0.01 h -0.04 -0.05 c -1,0 -1,-0.89 -1,-1.78 v -46.24 c 0,-0.9 0,-1.79 1,-1.79 1,0 1,0.89 1,1.79 z"
           inkscape:connector-curvature="0"
           style="fill:#63ff85;fill-opacity:1;stroke:#63ff85;stroke-opacity:1" /><path
           id="path10533"
           d="m 608.98,450.57 v 0.05 0.06 0.05 0.05 0.05 0.05 0.04 0.05 0.04 0.04 0.04 0.04 l -0.01,0.04 v 0.03 0.04 0.03 l -0.01,0.07 -0.01,0.06 -0.01,0.05 -0.02,0.05 -0.01,0.05 -0.02,0.04 -0.02,0.04 -0.03,0.03 -0.03,0.04 -0.03,0.02 -0.03,0.03 -0.04,0.02 -0.05,0.02 -0.02,0.01 -0.03,0.01 h -0.02 l -0.03,0.01 -0.03,0.01 h -0.03 l -0.03,0.01 h -0.03 l -0.03,0.01 h -0.04 -0.03 l -0.04,0.01 h -0.04 -0.04 -0.04 -0.04 -0.05 l -0.05,0.01 h -0.04 -0.05 -0.05 -0.06 c -3.09,-3.19 -7.46,-3.19 -9.06,-3.19 v -1.55 c 1,0 3.94,0 6.52,1.3 v -25.81 c 0,-1.8 -0.14,-2.39 -4.63,-2.39 h -1.59 v -1.55 c 1.75,0.16 6.08,0.16 8.06,0.16 2,0 6.33,0 8.08,-0.16 v 1.55 h -1.6 c -4.48,0 -4.64,0.54 -4.64,2.39 z"
           inkscape:connector-curvature="0"
           style="fill:#63ff85;fill-opacity:1;stroke:#63ff85;stroke-opacity:1" /><path
           id="path10535"
           d="m 632.9,430.29 0.01,0.03 0.01,0.02 0.01,0.03 0.01,0.02 0.01,0.03 0.01,0.02 0.01,0.03 0.01,0.02 0.01,0.02 v 0.02 l 0.01,0.02 0.01,0.03 0.02,0.03 0.01,0.04 0.01,0.04 0.01,0.03 0.01,0.03 0.01,0.03 0.01,0.03 0.01,0.02 0.01,0.03 v 0.02 l 0.01,0.02 v 0.02 l 0.01,0.02 v 0.02 0.02 l 0.01,0.01 v 0.02 0.02 0.01 0.01 0.03 0.03 l 0.01,0.02 c 0,0.16 0,0.25 -0.25,0.85 l -8.72,22.92 c -0.3,0.84 -0.6,1.14 -1.15,1.14 -0.54,0 -1,-0.44 -1,-0.99 0,-0.15 0,-0.25 0.25,-0.79 l 8.83,-23.13 -8.83,-23.01 c -0.25,-0.55 -0.25,-0.64 -0.25,-0.89 0,-0.55 0.46,-1 1,-1 0.66,0 0.85,0.5 1.05,1 z"
           inkscape:connector-curvature="0"
           style="fill:#63ff85;fill-opacity:1;stroke:#63ff85;stroke-opacity:1" /><polyline
           id="polyline10537"
           points="462,396 639.12,396 639.12,398.04 462,398.04 "
           style="fill:#63ff85;fill-opacity:1;fill-rule:nonzero;stroke:#63ff85;stroke-opacity:1" /><path
           id="path10539"
           d="m 536.22,343.8 -8.77,19.38 c -0.35,0.8 -0.6,0.8 -0.75,0.8 -0.05,0 -0.3,0 -0.85,-0.39 l -4.73,-3.6 c -0.64,-0.5 -0.64,-0.64 -0.64,-0.79 0,-0.25 0.14,-0.55 0.5,-0.55 0.3,0 1.14,0.7 1.69,1.09 0.3,0.25 1.05,0.8 1.59,1.21 l 9.81,-21.58 c 0.36,-0.8 0.61,-0.8 1.05,-0.8 0.75,0 0.91,0.3 1.25,1 L 559,386.4 c 0.34,0.7 0.34,0.89 0.34,1 0,0.5 -0.41,1 -1,1 -0.39,0 -0.75,-0.25 -1.14,-1.05 z"
           inkscape:connector-curvature="0"
           style="fill:#63ff85;fill-opacity:1;stroke:#63ff85;stroke-opacity:1" /><polyline
           id="polyline10541"
           points="558,386 582.96,386 582.96,388.04 558,388.04 "
           style="fill:#63ff85;fill-opacity:1;fill-rule:nonzero;stroke:#63ff85;stroke-opacity:1" /><path
           id="path10543"
           d="m 564.69,349.08 5.28,5.13 c 7.76,6.87 10.76,9.56 10.76,14.54 0,5.69 -4.48,9.68 -10.56,9.68 -5.64,0 -9.33,-4.6 -9.33,-9.04 0,-2.78 2.5,-2.78 2.64,-2.78 0.86,0 2.6,0.6 2.6,2.64 0,1.3 -0.89,2.6 -2.64,2.6 -0.39,0 -0.5,0 -0.64,-0.05 1.14,3.24 3.82,5.08 6.72,5.08 4.53,0 6.68,-4.05 6.68,-8.13 0,-3.98 -2.5,-7.92 -5.23,-11.01 l -9.56,-10.66 c -0.57,-0.54 -0.57,-0.64 -0.57,-1.84 h 18.49 l 1.4,8.67 h -1.25 c -0.25,-1.5 -0.59,-3.69 -1.09,-4.44 -0.36,-0.39 -3.64,-0.39 -4.73,-0.39 z"
           inkscape:connector-curvature="0"
           style="fill:#63ff85;fill-opacity:1;stroke:#63ff85;stroke-opacity:1" /></g>    </g>
    <circle
       style="opacity:1;vector-effect:none;fill:#606060;fill-opacity:1;fill-rule:nonzero;stroke:none;stroke-width:0.06428571;stroke-linecap:butt;stroke-linejoin:miter;stroke-miterlimit:4;stroke-dasharray:none;stroke-dashoffset:14.08327579;stroke-opacity:1"
       id="path8961-0-9"
       cx="105.85173"
       cy="118.5555"
       r="1.7008928" />
    <circle
       style="opacity:1;vector-effect:none;fill:#63ff85;fill-opacity:1;fill-rule:nonzero;stroke:none;stroke-width:0.07979695;stroke-linecap:butt;stroke-linejoin:miter;stroke-miterlimit:4;stroke-dasharray:none;stroke-dashoffset:14.08327579;stroke-opacity:1"
       id="path8961-0-3"
       cx="155.83382"
       cy="121.00409"
       r="2.1112943" />
    <circle
       style="opacity:1;vector-effect:none;fill:#ff5161;fill-opacity:1;fill-rule:nonzero;stroke:none;stroke-width:0.1;stroke-linecap:butt;stroke-linejoin:miter;stroke-miterlimit:4;stroke-dasharray:none;stroke-dashoffset:14.08327579;stroke-opacity:1"
       id="path8961-7-6"
       cx="-6.3500094"
       cy="65.412956"
       r="2.6458333" />
    <circle
       style="opacity:1;vector-effect:none;fill:#739bff;fill-opacity:1;fill-rule:nonzero;stroke:none;stroke-width:0.1;stroke-linecap:butt;stroke-linejoin:miter;stroke-miterlimit:4;stroke-dasharray:none;stroke-dashoffset:14.08327579;stroke-opacity:1"
       id="path8961-0-0"
       cx="-6.3315997"
       cy="171.16876"
       r="2.6458333" />
    <g
       id="g10916"
       transform="matrix(0.83701001,0,0,0.83701001,-79.898864,99.875353)"
       style="fill:#739bff;fill-opacity:1">
      <g
         word-spacing="normal"
         letter-spacing="normal"
         font-size-adjust="none"
         font-stretch="normal"
         font-weight="normal"
         font-variant="normal"
         font-style="normal"
         stroke-miterlimit="10.433"
         xml:space="preserve"
         transform="matrix(0.3,0,0,-0.3,-52.5,222.75)"
         id="g10914"
         style="font-style:normal;font-variant:normal;font-weight:normal;font-stretch:normal;letter-spacing:normal;word-spacing:normal;text-anchor:start;fill:#739bff;fill-opacity:1;fill-rule:evenodd;stroke:#000000;stroke-linecap:butt;stroke-linejoin:miter;stroke-miterlimit:10.43299961;stroke-dasharray:none;stroke-dashoffset:0;stroke-opacity:1"><path
           id="path10912"
           d="m 478.44,422.14 v 0.74 l -0.01,0.75 -0.02,0.75 -0.04,0.74 -0.04,0.75 -0.06,0.74 -0.08,0.74 -0.09,0.73 -0.12,0.73 -0.14,0.73 -0.16,0.72 -0.19,0.72 -0.21,0.72 -0.25,0.7 -0.28,0.7 -0.15,0.35 -0.16,0.34 c -2.28,4.8 -6.37,5.6 -8.47,5.6 -2.98,0 -6.62,-1.3 -8.67,-5.94 -1.59,-3.44 -1.84,-7.33 -1.84,-11.31 0,-3.74 0.2,-8.22 2.25,-12 2.14,-4.03 5.78,-5.03 8.22,-5.03 v 1.09 c -1.94,0 -4.89,1.25 -5.79,6.03 -0.54,2.98 -0.54,7.56 -0.54,10.52 0,3.18 0,6.46 0.4,9.15 0.94,5.94 4.68,6.38 5.93,6.38 1.64,0 4.93,-0.89 5.87,-5.83 0.5,-2.78 0.5,-6.58 0.5,-9.7 0,-3.75 0,-7.13 -0.55,-10.32 -0.75,-4.73 -3.59,-6.23 -5.82,-6.23 v 0 -1.09 c 2.68,0 6.46,1.04 8.67,5.78 1.59,3.43 1.84,7.31 1.84,11.25 z"
           inkscape:connector-curvature="0"
           style="fill:#739bff;fill-opacity:1;stroke-width:0" /></g>    </g>
    <g
       id="g10996"
       transform="matrix(0.83701001,0,0,0.83701001,-79.829216,-24.123411)"
       style="fill:#ff5161;fill-opacity:1">
      <g
         word-spacing="normal"
         letter-spacing="normal"
         font-size-adjust="none"
         font-stretch="normal"
         font-weight="normal"
         font-variant="normal"
         font-style="normal"
         stroke-miterlimit="10.433"
         xml:space="preserve"
         transform="matrix(0.3,0,0,-0.3,-52.5,222.75)"
         id="g10994"
         style="font-style:normal;font-variant:normal;font-weight:normal;font-stretch:normal;letter-spacing:normal;word-spacing:normal;text-anchor:start;fill:#ff5161;fill-opacity:1;fill-rule:evenodd;stroke:#000000;stroke-linecap:butt;stroke-linejoin:miter;stroke-miterlimit:10.43299961;stroke-dasharray:none;stroke-dashoffset:0;stroke-opacity:1"><path
           id="path10992"
           d="m 470.16,438.09 v 0.05 0.06 0.05 0.05 0.05 0.05 0.04 0.05 0.04 0.04 l -0.01,0.04 v 0.04 0.04 0.03 0.04 l -0.01,0.03 -0.01,0.07 v 0.06 l -0.02,0.05 -0.01,0.05 -0.02,0.05 -0.02,0.04 -0.02,0.04 -0.02,0.03 -0.03,0.03 -0.03,0.03 -0.04,0.03 -0.04,0.02 -0.04,0.02 -0.03,0.01 -0.02,0.01 h -0.03 l -0.02,0.01 -0.03,0.01 h -0.03 l -0.03,0.01 h -0.03 l -0.04,0.01 h -0.03 -0.04 l -0.03,0.01 h -0.04 -0.04 -0.05 -0.04 -0.04 l -0.05,0.01 h -0.05 -0.05 -0.05 -0.05 c -3.09,-3.19 -7.47,-3.19 -9.06,-3.19 v -1.55 c 1,0 3.93,0 6.51,1.3 v -25.81 c 0,-1.8 -0.14,-2.39 -4.62,-2.39 h -1.6 v -1.55 c 1.75,0.16 6.08,0.16 8.07,0.16 2,0 6.32,0 8.07,-0.16 v 1.55 h -1.59 c -4.48,0 -4.64,0.54 -4.64,2.39 z"
           inkscape:connector-curvature="0"
           style="fill:#ff5161;fill-opacity:1;stroke-width:0" /></g>    </g>
    <g
       id="g11085"
       transform="matrix(1.453019,0,0,1.453019,-95.70604,-62.287361)">
      <g
         word-spacing="normal"
         letter-spacing="normal"
         font-size-adjust="none"
         font-stretch="normal"
         font-weight="normal"
         font-variant="normal"
         font-style="normal"
         stroke-miterlimit="10.433"
         xml:space="preserve"
         transform="matrix(0.19598244,0,0,-0.19598244,-34.296928,152.74498)"
         id="g11083"
         style="font-style:normal;font-variant:normal;font-weight:normal;font-stretch:normal;letter-spacing:normal;word-spacing:normal;text-anchor:start;fill:none;fill-opacity:1;fill-rule:evenodd;stroke:#000000;stroke-linecap:butt;stroke-linejoin:miter;stroke-miterlimit:10.43299961;stroke-dasharray:none;stroke-dashoffset:0;stroke-opacity:1"><path
           id="path11075"
           d="m 478.33,423.98 0.45,0.1 0.44,0.1 0.44,0.13 0.42,0.13 0.41,0.14 0.4,0.16 0.4,0.17 0.38,0.18 0.37,0.19 0.36,0.2 0.35,0.21 0.33,0.21 0.32,0.23 0.31,0.24 0.3,0.25 0.28,0.25 0.27,0.26 0.25,0.27 0.24,0.28 0.22,0.28 0.21,0.29 0.19,0.3 0.17,0.3 0.16,0.31 0.14,0.32 0.12,0.32 0.11,0.32 0.09,0.33 0.06,0.34 0.05,0.33 0.03,0.34 0.01,0.35 c 0,4.33 -4.59,8.42 -11.06,8.42 l -0.36,-1.55 c 4.85,0 6.58,-4.23 6.58,-6.87 0,-3.19 -2.44,-7.38 -7.97,-7.38 h -7.22 v -1.09 h 9.36 c 4.94,0 7.03,-4.64 7.03,-7.97 0,-3.55 -2.59,-7.62 -7.72,-7.62 v 0 h -6.23 c -2.34,0 -2.44,0.34 -2.44,1.98 v 13.61 1.09 12.25 c 0,1.66 0.1,2 2.44,2 h 6.17 l 0.36,1.55 h -18.23 v -1.55 h 1.18 c 3.85,0 3.94,-0.54 3.94,-2.34 v -26.25 c 0,-1.8 -0.09,-2.34 -3.94,-2.34 h -1.18 v -1.55 h 19.53 c 6.62,0 11.11,4.44 11.11,9.12 0,4.33 -4.1,8.07 -9.63,8.66 z"
           inkscape:connector-curvature="0"
           style="fill:#000000;stroke-width:0" /><path
           id="path11077"
           d="m 499.61,428.21 -6.97,-0.54 v -1.55 c 3.24,0 3.69,-0.3 3.69,-2.73 v -13.41 c 0,-2.23 -0.55,-2.23 -3.89,-2.23 v -1.55 c 1.59,0.05 4.28,0.16 5.48,0.16 1.75,0 3.49,-0.11 5.19,-0.16 v 1.55 c -3.3,0 -3.5,0.25 -3.5,2.18 z"
           inkscape:connector-curvature="0"
           style="fill:#000000;stroke-width:0" /><path
           id="path11079"
           d="m 499.81,436.89 v 0.14 l -0.01,0.15 -0.02,0.14 -0.02,0.14 -0.03,0.13 -0.04,0.13 -0.04,0.13 -0.05,0.12 -0.06,0.12 -0.06,0.12 -0.07,0.11 -0.07,0.1 -0.07,0.1 -0.08,0.1 -0.09,0.1 -0.09,0.08 -0.09,0.09 -0.1,0.08 -0.1,0.07 -0.1,0.07 -0.11,0.07 -0.11,0.06 -0.11,0.05 -0.12,0.05 -0.12,0.04 -0.12,0.04 -0.12,0.03 -0.13,0.03 -0.12,0.02 -0.13,0.01 -0.13,0.01 -0.13,0.01 c -1.55,0 -2.64,-1.35 -2.64,-2.64 0,-1.35 1.09,-2.64 2.64,-2.64 1.39,0 2.64,1.04 2.64,2.64 z"
           inkscape:connector-curvature="0"
           style="fill:#000000;stroke-width:0" /><path
           id="path11081"
           d="m 513.22,426.12 h 7.12 v 1.55 h -7.12 v 9.17 h -1.25 c -0.05,-4.08 -1.55,-9.42 -6.42,-9.61 v -1.11 h 4.23 v -13.75 c 0,-6.12 4.63,-6.72 6.42,-6.72 3.53,0 4.94,3.53 4.94,6.72 v 2.84 h -1.25 v -2.73 c 0,-3.69 -1.5,-5.58 -3.34,-5.58 -3.33,0 -3.33,4.53 -3.33,5.38 z"
           inkscape:connector-curvature="0"
           style="fill:#000000;stroke-width:0" /></g>    </g>
    <g
       id="g11187"
       transform="matrix(1.453019,0,0,1.453019,8.5506139,-62.41935)">
      <g
         word-spacing="normal"
         letter-spacing="normal"
         font-size-adjust="none"
         font-stretch="normal"
         font-weight="normal"
         font-variant="normal"
         font-style="normal"
         stroke-miterlimit="10.433"
         xml:space="preserve"
         transform="matrix(0.19598244,0,0,-0.19598244,-34.296928,152.74498)"
         id="g11185"
         style="font-style:normal;font-variant:normal;font-weight:normal;font-stretch:normal;letter-spacing:normal;word-spacing:normal;text-anchor:start;fill:none;fill-opacity:1;fill-rule:evenodd;stroke:#000000;stroke-linecap:butt;stroke-linejoin:miter;stroke-miterlimit:10.43299961;stroke-dasharray:none;stroke-dashoffset:0;stroke-opacity:1"><path
           id="path11173"
           d="m 481.33,406.54 0.55,0.26 0.53,0.28 0.53,0.3 0.51,0.32 0.51,0.34 0.49,0.37 0.47,0.38 0.47,0.39 0.45,0.42 0.44,0.43 0.42,0.46 0.41,0.46 0.4,0.49 0.37,0.5 0.36,0.51 0.35,0.53 0.33,0.55 0.31,0.56 0.29,0.57 0.27,0.58 0.26,0.6 0.23,0.61 0.21,0.62 0.2,0.63 0.17,0.64 0.15,0.65 0.13,0.66 0.11,0.68 0.08,0.67 0.06,0.69 0.04,0.7 0.01,0.7 c 0,10.16 -7.53,18.23 -16.59,18.23 v -1.25 c 4.83,0 11.61,-4.28 11.61,-16.98 0,-3.89 -0.6,-10.91 -5.88,-14.8 -1.09,2.78 -2.69,5.28 -5.62,5.28 v -1.09 c 2.68,0 3.78,-2.09 4.33,-4.98 v 0 c -1.69,-0.96 -3.29,-1.14 -4.4,-1.14 -2.53,0 -2.93,2.28 -2.93,3.03 0,1.45 1.04,3.09 3,3.09 v 1.09 c -2.55,0 -4.1,-2.14 -4.1,-4.18 0,-1.35 0.66,-2.3 0.71,-2.39 v 0 c -2.69,1 -8.28,4.64 -8.28,16.09 0,12.95 6.98,16.98 11.56,16.98 v 1.25 c -8.92,0 -16.53,-7.96 -16.53,-18.23 0,-10.06 7.51,-17.98 16.57,-17.98 1.55,0 3.3,0.29 4.74,0.75 0.75,-4.74 1.45,-9.33 6.08,-9.33 5.09,0 6.03,6.62 6.03,9.17 0,0.5 0,1.05 -0.55,1.05 -0.45,0 -0.5,-0.39 -0.55,-0.89 -0.29,-2.71 -2.39,-4.19 -4.53,-4.19 -2.34,0 -3.59,1.69 -4.78,4.87 z"
           inkscape:connector-curvature="0"
           style="fill:#000000;stroke-width:0" /><path
           id="path11175"
           d="m 513.76,410.14 v -4.49 l 7.17,0.55 v 1.55 c -3.48,0 -3.89,0.34 -3.89,2.78 v 17.68 l -7.33,-0.54 v -1.55 c 3.51,0 3.89,-0.34 3.89,-2.78 v -8.88 c 0,-4.32 -2.39,-7.71 -6.03,-7.71 -4.17,0 -4.37,2.34 -4.37,4.93 v 16.53 l -7.33,-0.54 v -1.55 c 3.89,0 3.89,-0.14 3.89,-4.58 v -7.47 c 0,-3.89 0,-8.42 7.56,-8.42 2.8,0 4.99,1.39 6.44,4.49 z"
           inkscape:connector-curvature="0"
           style="fill:#000000;stroke-width:0" /><path
           id="path11177"
           d="m 530.56,424.98 v 15.8 l -7.17,-0.55 v -1.55 c 3.48,0 3.89,-0.34 3.89,-2.79 V 406.2 h 1.25 c 0.04,0.05 0.44,0.75 1.78,3.09 0.75,-1.15 2.84,-3.64 6.53,-3.64 l -0.2,1.1 c -2.24,0 -4.04,1.2 -5.22,3.04 -0.7,1.05 -0.7,1.19 -0.7,2.08 v 0 10.27 c 0,0.95 0,1 0.54,1.79 1.94,2.8 4.69,3.19 5.88,3.19 2.25,0 4.04,-1.3 5.23,-3.19 1.3,-2.04 1.45,-4.87 1.45,-6.92 0,-1.84 -0.1,-4.83 -1.54,-7.08 -1.05,-1.54 -2.94,-3.18 -5.64,-3.18 l 0.2,-1.1 c 5.94,0 11.11,4.88 11.11,11.31 0,6.33 -4.88,11.25 -10.56,11.25 -3.88,0 -6.04,-2.34 -6.83,-3.23 z"
           inkscape:connector-curvature="0"
           style="fill:#000000;stroke-width:0" /><path
           id="path11179"
           d="m 558.53,428.21 -6.97,-0.54 v -1.55 c 3.23,0 3.69,-0.3 3.69,-2.73 v -13.41 c 0,-2.23 -0.55,-2.23 -3.9,-2.23 v -1.55 c 1.6,0.05 4.29,0.16 5.49,0.16 1.75,0 3.48,-0.11 5.19,-0.16 v 1.55 c -3.3,0 -3.5,0.25 -3.5,2.18 z"
           inkscape:connector-curvature="0"
           style="fill:#000000;stroke-width:0" /><path
           id="path11181"
           d="m 558.73,436.89 v 0.14 l -0.01,0.15 -0.02,0.14 -0.03,0.14 -0.03,0.13 -0.03,0.13 -0.05,0.13 -0.05,0.12 -0.05,0.12 -0.06,0.12 -0.07,0.11 -0.07,0.1 -0.07,0.1 -0.08,0.1 -0.09,0.1 -0.09,0.08 -0.09,0.09 -0.1,0.08 -0.1,0.07 -0.1,0.07 -0.11,0.07 -0.11,0.06 -0.12,0.05 -0.11,0.05 -0.12,0.04 -0.12,0.04 -0.12,0.03 -0.13,0.03 -0.12,0.02 -0.13,0.01 -0.13,0.01 -0.13,0.01 c -1.55,0 -2.64,-1.35 -2.64,-2.64 0,-1.35 1.09,-2.64 2.64,-2.64 1.39,0 2.64,1.04 2.64,2.64 z"
           inkscape:connector-curvature="0"
           style="fill:#000000;stroke-width:0" /><path
           id="path11183"
           d="m 572.14,426.12 h 7.12 v 1.55 h -7.12 v 9.17 h -1.25 c -0.05,-4.08 -1.55,-9.42 -6.42,-9.61 v -1.11 h 4.23 v -13.75 c 0,-6.12 4.62,-6.72 6.42,-6.72 3.53,0 4.94,3.53 4.94,6.72 v 2.84 h -1.25 v -2.73 c 0,-3.69 -1.5,-5.58 -3.34,-5.58 -3.33,0 -3.33,4.53 -3.33,5.38 z"
           inkscape:connector-curvature="0"
           style="fill:#000000;stroke-width:0" /></g>    </g>
  </g>
</svg>
