<?xml version="1.0" encoding="UTF-8" standalone="no"?>
<!-- Created with Inkscape (http://www.inkscape.org/) -->

<svg
   xmlns:osb="http://www.openswatchbook.org/uri/2009/osb"
   xmlns:dc="http://purl.org/dc/elements/1.1/"
   xmlns:cc="http://creativecommons.org/ns#"
   xmlns:rdf="http://www.w3.org/1999/02/22-rdf-syntax-ns#"
   xmlns:svg="http://www.w3.org/2000/svg"
   xmlns="http://www.w3.org/2000/svg"
   xmlns:sodipodi="http://sodipodi.sourceforge.net/DTD/sodipodi-0.dtd"
   xmlns:inkscape="http://www.inkscape.org/namespaces/inkscape"
   width="122.95201mm"
   height="88.477325mm"
   viewBox="0 0 122.95201 88.477325"
   version="1.1"
   id="svg8"
   inkscape:version="0.92.4 (5da689c313, 2019-01-14)"
   sodipodi:docname="mapas-lisos-partições-unidade.svg">
  <defs
     id="defs2">
    <linearGradient
       id="linearGradient6701"
       osb:paint="solid">
      <stop
         style="stop-color:#ff7875;stop-opacity:1;"
         offset="0"
         id="stop6699" />
    </linearGradient>
    <linearGradient
       id="linearGradient6630"
       osb:paint="solid">
      <stop
         style="stop-color:#005809;stop-opacity:1;"
         offset="0"
         id="stop6628" />
    </linearGradient>
  </defs>
  <sodipodi:namedview
     id="base"
     pagecolor="#ffffff"
     bordercolor="#666666"
     borderopacity="1.0"
     inkscape:pageopacity="0.0"
     inkscape:pageshadow="2"
     inkscape:zoom="1.4"
     inkscape:cx="195.17905"
     inkscape:cy="164.4538"
     inkscape:document-units="mm"
     inkscape:current-layer="layer1"
     showgrid="false"
     inkscape:window-width="1920"
     inkscape:window-height="1024"
     inkscape:window-x="0"
     inkscape:window-y="28"
     inkscape:window-maximized="1"
     fit-margin-top="0"
     fit-margin-left="0"
     fit-margin-right="0"
     fit-margin-bottom="0" />
  <metadata
     id="metadata5">
    <rdf:RDF>
      <cc:Work
         rdf:about="">
        <dc:format>image/svg+xml</dc:format>
        <dc:type
           rdf:resource="http://purl.org/dc/dcmitype/StillImage" />
        <dc:title></dc:title>
      </cc:Work>
    </rdf:RDF>
  </metadata>
  <g
     inkscape:label="Camada 1"
     inkscape:groupmode="layer"
     id="layer1"
     transform="translate(-31.349796,-63.478422)">
    <path
       inkscape:connector-curvature="0"
       d="m 116.03869,102.72023 c -14.29086,-9.85558 -42.475075,-2.3151 -47.388765,15.07181 23.205166,3.82827 44.001395,-8.74353 47.388765,-15.07181 z M 81.642857,150.72321 C -10.694186,144.04682 41.718306,46.655914 118.68452,67.568452 c 74.68718,20.2933 11.92184,85.862558 -37.041663,83.154758 z"
       style="fill:#ff5e6d;fill-opacity:1;fill-rule:evenodd;stroke:#3a3a3a;stroke-width:1.2;stroke-linecap:round;stroke-linejoin:round;stroke-miterlimit:4;stroke-dasharray:none;stroke-dashoffset:0;stroke-opacity:1;paint-order:normal"
       id="path6666" />
    <g
       id="g5103"
       style="opacity:1;fill:#d4ffbc;fill-opacity:0.39910314;fill-rule:evenodd;stroke-width:0.5;stroke-miterlimit:4;stroke-dasharray:none">
      <path
         inkscape:connector-curvature="0"
         id="path5054"
         d="m 60.900391,115.81055 c -3.350604,0.18225 -7.017914,0.50704 -9.654297,2.82031 -0.74745,1.48802 0.587981,2.99299 1.815212,3.69982 2.04506,1.68442 4.442459,3.41602 5.100803,6.13807 0.03968,2.3312 -3.151265,3.5639 -4.871093,2.16211 -3.113786,-1.42281 -5.709573,-4.18312 -9.279297,-4.44531 -2.783797,0.29358 -3.719165,4.38812 -1.683594,6.12304 3.646932,4.75843 9.201535,7.38697 14.393499,10.0828 6.554657,3.17021 13.852232,5.32955 21.194678,4.70065 4.150017,-0.69785 8.123383,-2.14081 12.136993,-3.36277 3.404544,-1.15612 6.864522,-2.28542 10.015655,-4.03189 3.45939,-2.64759 5.41604,-7.23358 4.77958,-11.55528 -0.63914,-2.33529 -2.14041,-4.30166 -3.44555,-6.29308 -2.039539,-2.0436 -5.08208,-2.56972 -7.852416,-2.68606 -3.425615,0.0574 -6.408807,2.09944 -8.767606,4.42026 -3.220933,3.00571 -6.096497,6.68721 -10.317487,8.33302 -1.785674,0.40742 -3.178246,-1.26415 -3.835507,-2.72192 -2.053687,-3.97709 -3.138998,-8.59493 -6.356526,-11.86815 -0.894187,-0.88379 -2.076178,-1.58008 -3.373047,-1.51562 z"
         style="fill:#d4ffbc;fill-opacity:0.39910314;fill-rule:evenodd;stroke:#52cd50;stroke-width:0.69999999;stroke-linecap:butt;stroke-linejoin:miter;stroke-miterlimit:4;stroke-dasharray:0.7, 0.7;stroke-dashoffset:0;stroke-opacity:1" />
      <path
         inkscape:connector-curvature="0"
         id="path5056"
         d="m 135.60547,89.369141 c -1.06682,0.06594 -2.0334,1.224703 -1.64453,2.283203 1.4145,0.547959 1.22729,2.319558 1.37101,3.550847 0.56963,6.718189 -3.60153,13.296379 -9.53068,16.286579 -7.19668,4.41847 -15.63428,5.89641 -23.5032,8.65626 -2.945302,1.24611 -4.870865,4.02811 -6.057031,6.89262 -0.869043,1.84049 -1.942234,3.70248 -2.123851,5.75627 0.347773,2.53633 2.729146,4.04559 4.832348,5.09489 2.626744,1.34967 6.137304,1.60048 8.507574,-0.41284 3.53787,-2.6248 5.96381,-6.3791 8.73878,-9.73321 2.82064,-3.60071 6.16617,-7.22896 10.72901,-8.48326 5.70499,-1.66508 11.99875,-0.6243 17.44133,-3.2982 1.8098,-0.99174 2.4109,-3.35891 1.77645,-5.23645 -1.24228,-6.23997 -5.26667,-11.351123 -7.97666,-16.973897 -0.32028,-0.557508 -0.41564,-1.159614 -0.10502,-1.744504 0.34215,-0.732933 0.28457,-1.730523 -0.53718,-2.111074 -0.55999,-0.378683 -1.24464,-0.558376 -1.91835,-0.527234 z"
         style="fill:#d4ffbc;fill-opacity:0.39910314;fill-rule:evenodd;stroke:#52cd50;stroke-width:0.69999999;stroke-linecap:butt;stroke-linejoin:miter;stroke-miterlimit:4;stroke-dasharray:0.7, 0.7;stroke-dashoffset:0;stroke-opacity:1" />
      <path
         inkscape:connector-curvature="0"
         id="path5058"
         d="m 128.74414,76.486328 c -3.1839,0.05281 -6.71915,1.615554 -7.87891,4.779297 -0.67802,2.773247 1.31315,5.449556 3.65625,6.716797 2.8403,1.811633 6.06771,3.714545 7.24196,7.074715 1.7799,3.81183 2.82413,7.949183 4.9475,11.603023 1.55059,0.7858 3.16905,-0.52332 3.95475,-1.80069 2.35728,-2.83429 5.21381,-5.69997 5.68729,-9.536961 0.66716,-5.409173 -2.12449,-10.713123 -6.07724,-14.248092 -3.11851,-2.841788 -7.26296,-4.71429 -11.5316,-4.588089 z"
         style="fill:#d4ffbc;fill-opacity:0.39910314;fill-rule:evenodd;stroke:#52cd50;stroke-width:0.69999999;stroke-linecap:butt;stroke-linejoin:miter;stroke-miterlimit:4;stroke-dasharray:0.7, 0.7;stroke-dashoffset:0;stroke-opacity:1" />
      <path
         id="path5062"
         style="fill:#d4ffbc;fill-opacity:0.39910314;fill-rule:evenodd;stroke:#52cd50;stroke-width:0.69999999;stroke-linecap:butt;stroke-linejoin:miter;stroke-miterlimit:4;stroke-dasharray:0.7, 0.7;stroke-dashoffset:0;stroke-opacity:1"
         d="m 76.728516,76.705078 c -5.09232,0.211808 -10.372009,2.884266 -12.605036,7.634254 -2.374958,5.61072 0.26671,12.776548 5.630152,15.604167 1.360331,0.511701 2.660828,-0.359229 3.758087,-1.054827 1.863565,-0.723464 3.839656,0.09966 5.751339,0.106555 3.819589,0.353678 7.833419,0.223919 11.341043,-1.4941 3.662787,-1.420562 7.487126,-3.388567 9.455079,-6.958805 1.17659,-3.004973 -0.646643,-6.414029 -3.256446,-8.001306 C 91.138283,78.152699 83.771547,76.58319 76.728516,76.705078 Z m 5.99414,4.56836 c 3.285921,0.06253 6.495764,3.157211 5.974189,6.544385 -0.786032,2.23167 -3.409669,3.030635 -5.570083,2.931765 -2.7119,0.150541 -5.720178,-0.396553 -7.642387,-2.472244 -1.153841,-2.651028 0.887076,-5.753896 3.518824,-6.479423 1.184383,-0.438979 2.46568,-0.542254 3.719457,-0.524483 z"
         inkscape:connector-curvature="0" />
      <path
         inkscape:connector-curvature="0"
         id="path5064"
         d="m 64.216797,86.714844 c -2.316708,0.840402 -4.830716,0.84895 -7.191622,1.462072 -3.1061,1.398013 -4.643089,4.651684 -6.183503,7.48378 -1.714341,3.2436 -3.379805,6.859754 -6.660059,8.806314 -1.554935,0.64073 -3.706283,0.60528 -4.550754,2.32791 -1.603056,2.81917 -1.507932,6.8704 0.998793,9.13774 1.412569,0.78777 2.961836,-0.34198 3.807025,-1.45296 2.627545,-2.75921 4.12401,-6.69633 7.661758,-8.50619 3.710725,-1.69782 7.917807,-0.85274 11.712865,0.0734 2.531625,0.6888 5.602007,0.97719 7.717134,-0.89707 1.769571,-1.47266 2.297363,-4.21744 1.083175,-6.199883 -0.954806,-2.151509 -1.069478,-4.520254 -1.443272,-6.808153 -0.348682,-1.989781 -1.439087,-4.011752 -3.41731,-4.768412 -1.101017,-0.503102 -2.327728,-0.712961 -3.53423,-0.658518 z"
         style="fill:#d4ffbc;fill-opacity:0.39910314;fill-rule:evenodd;stroke:#52cd50;stroke-width:0.69999999;stroke-linecap:butt;stroke-linejoin:miter;stroke-miterlimit:4;stroke-dasharray:0.7, 0.7;stroke-dashoffset:0;stroke-opacity:1" />
      <path
         inkscape:connector-curvature="0"
         id="path5066"
         d="m 79.136719,95.144531 c -3.629641,0.243534 -6.924286,1.934534 -10.142578,3.486328 -1.136387,-0.174563 -2.223233,-0.573042 -3.355469,-0.767578 -2.700606,3.341149 -3.062069,7.859729 -2.892578,11.990239 0.692463,1.36933 2.155241,2.08349 3.090409,3.26106 1.123509,1.08355 2.247019,2.1671 3.370528,3.25065 -1.228938,-2.37564 -1.536541,-5.66043 0.435547,-7.73632 3.469272,-3.29779 8.850545,-3.08106 12.390625,-6.26758 1.536571,-2.10646 1.170362,-5.685635 -1.283203,-6.937502 -0.5082,-0.213781 -1.063722,-0.299735 -1.613281,-0.279297 z M 59.958984,107.48828 c -0.165604,-0.1748 -0.117042,-0.12354 0,0 z m 0.703125,0.73047 c 0.470835,0.61217 0.946368,1.31359 1.712891,1.57227 -0.639974,-0.61003 -1.279948,-1.22006 -1.919922,-1.83008 0.06901,0.0859 0.138021,0.17187 0.207031,0.25781 z"
         style="fill:#d4ffbc;fill-opacity:0.39910314;fill-rule:evenodd;stroke:#52cd50;stroke-width:0.69999999;stroke-linecap:butt;stroke-linejoin:miter;stroke-miterlimit:4;stroke-dasharray:0.7, 0.7;stroke-dashoffset:0;stroke-opacity:1" />
      <path
         inkscape:connector-curvature="0"
         id="path5068"
         d="m 105.88672,77.525391 c -3.15707,0.225222 -6.594377,1.503354 -8.183595,4.423828 -0.767962,2.760217 0.847097,5.480669 2.634765,7.46289 4.41438,5.21365 10.15603,9.042934 15.85742,12.701171 0.71405,-1.2795 0.57937,-2.819145 1.06995,-4.177615 0.32239,-1.48767 0.64477,-2.975339 0.96716,-4.463009 -1.00516,0.28246 -1.47154,-1.072633 -1.20508,-1.849609 -0.33756,-3.03648 0.31816,-6.394659 -1.44531,-9.101563 -2.49882,-2.706252 -5.83848,-5.135568 -9.69531,-4.996093 z"
         style="fill:#d4ffbc;fill-opacity:0.39910314;fill-rule:evenodd;stroke:#52cd50;stroke-width:0.69999999;stroke-linecap:butt;stroke-linejoin:miter;stroke-miterlimit:4;stroke-dasharray:0.7, 0.7;stroke-dashoffset:0;stroke-opacity:1"
         sodipodi:nodetypes="cscc" />
      <path
         inkscape:connector-curvature="0"
         id="path5070"
         d="m 111.17773,66.705078 c -3.47609,0.625618 -6.90933,3.269632 -7.31054,6.958984 0.15881,3.566415 2.70727,6.37408 5.09763,8.76913 2.34728,2.057442 5.62745,2.413215 8.17937,4.103683 2.75388,2.098838 4.71567,5.062619 6.29972,8.097092 0.9532,2.116113 1.0978,4.807535 -0.42554,6.702653 -1.00691,1.57135 -1.87719,3.23559 -2.76823,4.8642 -2.19694,2.44248 -5.51064,3.27508 -8.24866,4.92179 -5.82879,2.91404 -12.087219,5.40811 -16.815563,10.04006 -1.023337,1.42782 -0.221143,3.47475 1.228279,4.2659 3.150285,2.698 8.192304,2.64278 11.349104,-0.0191 5.61121,-3.7396 8.88672,-9.84289 13.53356,-14.56562 1.65368,-1.61986 3.86831,-2.44277 5.72113,-3.77101 1.31933,-1.06689 1.99264,-2.76283 1.88941,-4.44041 0.0788,-1.8251 0.54699,-3.673757 1.69438,-5.127607 1.84065,-3.181574 3.73329,-6.647115 3.59927,-10.431987 -0.60354,-2.156952 -2.78173,-3.233007 -4.06976,-4.924603 -5.24498,-5.559857 -10.54101,-11.355093 -17.37502,-14.98535 -0.49752,-0.22729 -1.01535,-0.491782 -1.57854,-0.457835 z"
         style="fill:#d4ffbc;fill-opacity:0.39910314;fill-rule:evenodd;stroke:#52cd50;stroke-width:0.69999999;stroke-linecap:butt;stroke-linejoin:miter;stroke-miterlimit:4;stroke-dasharray:0.7, 0.7;stroke-dashoffset:0;stroke-opacity:1" />
      <path
         inkscape:connector-curvature="0"
         id="path5080"
         d="m 67.535156,74.351562 c -6.478213,0.874625 -12.18691,4.613198 -16.767911,9.113916 -3.454453,2.663542 -7.386529,5.185794 -9.232,9.316671 -2.952311,5.660176 -4.447817,11.978431 -5.14462,18.290121 -0.263132,5.23091 1.567942,10.62915 5.361236,14.31165 2.586659,2.79042 5.603096,5.29804 9.083327,6.86766 3.250111,0.60413 6.523442,-0.28151 9.682419,-0.98079 2.245664,-0.64432 4.342773,-2.27233 4.914754,-4.62562 1.195856,-3.31932 1.247033,-7.08929 3.335217,-10.05337 0.116857,-1.22917 -1.3632,-1.61195 -1.917793,-2.50367 -2.001417,-2.21404 -4.896029,-3.5448 -6.437676,-6.18188 1.217728,1.15913 2.415133,2.34099 3.683594,3.44531 1.191452,-0.96509 1.077639,-2.88795 2.485634,-3.6626 2.834006,-3.26459 6.567572,-6.04548 7.926475,-10.323726 1.43347,-5.489776 1.178157,-11.341332 -0.226562,-16.80664 -0.825022,-2.547676 -2.342935,-5.260171 -5.02544,-6.167096 -0.565513,-0.141598 -1.148594,-0.13635 -1.720654,-0.03994 z m -7.427734,33.232418 c 0.60492,0.30328 0.03079,0.0547 0,0 z"
         style="fill:#d4ffbc;fill-opacity:0.39910314;fill-rule:evenodd;stroke:#52cd50;stroke-width:0.69999999;stroke-linecap:butt;stroke-linejoin:miter;stroke-miterlimit:4;stroke-dasharray:0.7, 0.7;stroke-dashoffset:0;stroke-opacity:1"
         sodipodi:nodetypes="csccsssscsc" />
      <path
         inkscape:connector-curvature="0"
         id="path5084"
         d="m 98.283203,66.246094 c -7.999753,1.100782 -15.990734,2.312668 -23.962604,3.614347 -2.840359,0.487562 -5.706273,0.922625 -8.521199,1.498259 -3.36718,2.151208 -6.995939,3.913376 -10.152916,6.379581 -1.062481,0.922824 -2.236654,1.937669 -2.695767,3.296517 -0.228734,1.910169 1.478519,3.395343 3.150103,3.9127 4.020786,1.96004 8.610119,1.259708 12.905745,1.03444 12.628714,-0.748232 25.281175,-1.45864 37.811795,-3.272954 2.53047,-1.119436 3.3002,-4.258382 2.89023,-6.780084 -0.78613,-5.409245 -5.95807,-9.801728 -11.425387,-9.682806 z"
         style="fill:#d4ffbc;fill-opacity:0.39910314;fill-rule:evenodd;stroke:#52cd50;stroke-width:0.69999999;stroke-linecap:butt;stroke-linejoin:miter;stroke-miterlimit:4;stroke-dasharray:0.7, 0.7;stroke-dashoffset:0;stroke-opacity:1"
         sodipodi:nodetypes="cscc" />
      <path
         inkscape:connector-curvature="0"
         id="path5086"
         d="m 120.42773,107.11523 c -7.04678,0.951 -13.09128,4.96004 -19.52643,7.66824 -5.445062,2.52054 -11.08658,5.13265 -17.184503,5.36887 -1.506078,-0.39282 -3.431321,-0.11933 -4.226246,1.38067 -2.940051,3.39737 -4.058551,7.85785 -5.980241,11.82447 -0.937397,2.83636 0.09897,6.06212 2.241088,8.07554 2.475239,2.75964 5.65907,4.92529 9.165972,6.13155 4.797766,1.30299 9.835884,0.51498 14.629505,-0.38293 5.935315,-1.45448 11.493345,-4.06723 17.303395,-5.91636 1.52095,-0.55592 3.13396,-0.98917 4.51793,-1.82977 4.2176,-5.32146 6.23252,-12.2627 5.86899,-19.01181 -0.64649,-4.27927 -2.35559,-8.31031 -4.09859,-12.23382 -0.6562,-0.77078 -1.71058,-1.15911 -2.71087,-1.07465 z"
         style="fill:#d4ffbc;fill-opacity:0.39910314;fill-rule:evenodd;stroke:#52cd50;stroke-width:0.69999999;stroke-linecap:butt;stroke-linejoin:miter;stroke-miterlimit:4;stroke-dasharray:0.7, 0.7;stroke-dashoffset:0;stroke-opacity:1"
         sodipodi:nodetypes="csccssc" />
      <path
         inkscape:connector-curvature="0"
         id="path5088"
         d="m 89.736328,64.183594 c -2.442459,-0.105246 -4.665447,1.08002 -6.949219,1.724609 -0.462451,-0.08943 -0.943319,0.107329 -0.800772,0.6507 -0.142324,2.104165 -0.663715,4.56527 0.816173,6.335728 1.951414,1.759548 4.777154,1.421119 7.193054,1.2651 4.765623,-0.486375 9.651762,-1.5594 13.678946,-4.270352 0.80273,-0.528273 1.58612,-1.724408 0.75118,-2.572911 -1.02281,-1.172397 -2.59427,-1.609716 -3.92842,-2.318666 -2.883021,-1.177728 -6.030841,-0.629299 -9.049046,-0.805001 -0.570564,-0.01348 -1.141219,-0.02004 -1.711896,-0.0092 z"
         style="fill:#d4ffbc;fill-opacity:0.39910314;fill-rule:evenodd;stroke:#52cd50;stroke-width:0.69999999;stroke-linecap:butt;stroke-linejoin:miter;stroke-miterlimit:4;stroke-dasharray:0.7, 0.7;stroke-dashoffset:0;stroke-opacity:1" />
    </g>
    <path
       inkscape:connector-curvature="0"
       id="path4996"
       d="m 59.720238,108.0119 c -3.501478,22.00536 64.633922,6.80357 58.208332,-13.985115"
       style="fill:none;fill-opacity:0.92376679;fill-rule:evenodd;stroke:#3a3a3a;stroke-width:0.9;stroke-linecap:round;stroke-linejoin:round;stroke-miterlimit:4;stroke-dasharray:none;stroke-dashoffset:0;stroke-opacity:1;paint-order:normal" />
    <g
       id="g7072"
       style="opacity:1;fill:#148dff;fill-opacity:0.3183857;stroke:#000000;stroke-width:0.5;stroke-miterlimit:4;stroke-dasharray:1.5, 1.5;stroke-dashoffset:0;stroke-opacity:1"
       transform="translate(-0.60135644,-1.2027129)">
      <ellipse
         ry="3.6081386"
         rx="3.8085907"
         cy="136.77191"
         cx="97.486565"
         id="path7003"
         style="opacity:1;fill:#148dff;fill-opacity:0.3183857;fill-rule:evenodd;stroke:#000000;stroke-width:0.5;stroke-linecap:round;stroke-linejoin:round;stroke-miterlimit:4;stroke-dasharray:1.5, 1.5;stroke-dashoffset:0;stroke-opacity:1;paint-order:normal" />
      <ellipse
         ry="3.8754082"
         rx="4.1426778"
         cy="132.36197"
         cx="100.89424"
         id="path7005"
         style="opacity:1;fill:#148dff;fill-opacity:0.3183857;fill-rule:evenodd;stroke:#000000;stroke-width:0.5;stroke-linecap:round;stroke-linejoin:round;stroke-miterlimit:4;stroke-dasharray:1.5, 1.5;stroke-dashoffset:0;stroke-opacity:1;paint-order:normal" />
      <ellipse
         ry="4.07586"
         rx="4.2094951"
         cy="131.22607"
         cx="94.27932"
         id="path7007"
         style="opacity:1;fill:#148dff;fill-opacity:0.3183857;fill-rule:evenodd;stroke:#000000;stroke-width:0.5;stroke-linecap:round;stroke-linejoin:round;stroke-miterlimit:4;stroke-dasharray:1.5, 1.5;stroke-dashoffset:0;stroke-opacity:1;paint-order:normal" />
      <ellipse
         ry="3.4076865"
         rx="3.8085907"
         cy="127.61794"
         cx="99.223808"
         id="path7009"
         style="opacity:1;fill:#148dff;fill-opacity:0.3183857;fill-rule:evenodd;stroke:#000000;stroke-width:0.5;stroke-linecap:round;stroke-linejoin:round;stroke-miterlimit:4;stroke-dasharray:1.5, 1.5;stroke-dashoffset:0;stroke-opacity:1;paint-order:normal" />
      <ellipse
         ry="2.6726952"
         rx="3.4076865"
         cy="127.28384"
         cx="93.34388"
         id="path7011"
         style="opacity:1;fill:#148dff;fill-opacity:0.3183857;fill-rule:evenodd;stroke:#000000;stroke-width:0.5;stroke-linecap:round;stroke-linejoin:round;stroke-miterlimit:4;stroke-dasharray:1.5, 1.5;stroke-dashoffset:0;stroke-opacity:1;paint-order:normal" />
      <ellipse
         ry="1.9377041"
         rx="2.3386083"
         cy="124.94524"
         cx="96.283844"
         id="path7013"
         style="opacity:1;fill:#148dff;fill-opacity:0.3183857;fill-rule:evenodd;stroke:#000000;stroke-width:0.5;stroke-linecap:round;stroke-linejoin:round;stroke-miterlimit:4;stroke-dasharray:1.5, 1.5;stroke-dashoffset:0;stroke-opacity:1;paint-order:normal" />
      <ellipse
         ry="1.2695302"
         rx="2.6726952"
         cy="122.80708"
         cx="93.410698"
         id="path7015"
         style="opacity:1;fill:#148dff;fill-opacity:0.3183857;fill-rule:evenodd;stroke:#000000;stroke-width:0.5;stroke-linecap:round;stroke-linejoin:round;stroke-miterlimit:4;stroke-dasharray:1.5, 1.5;stroke-dashoffset:0;stroke-opacity:1;paint-order:normal" />
      <ellipse
         ry="1.8040693"
         rx="3.7417734"
         cy="121.06983"
         cx="96.35067"
         id="path7017"
         style="opacity:1;fill:#148dff;fill-opacity:0.3183857;fill-rule:evenodd;stroke:#000000;stroke-width:0.5;stroke-linecap:round;stroke-linejoin:round;stroke-miterlimit:4;stroke-dasharray:1.5, 1.5;stroke-dashoffset:0;stroke-opacity:1;paint-order:normal" />
      <ellipse
         ry="2.271791"
         rx="3.0735996"
         cy="124.07661"
         cx="89.268021"
         id="path7019"
         style="opacity:1;fill:#148dff;fill-opacity:0.3183857;fill-rule:evenodd;stroke:#000000;stroke-width:0.5;stroke-linecap:round;stroke-linejoin:round;stroke-miterlimit:4;stroke-dasharray:1.5, 1.5;stroke-dashoffset:0;stroke-opacity:1;paint-order:normal" />
      <ellipse
         ry="3.8085907"
         rx="4.4767647"
         cy="135.36876"
         cx="91.472992"
         id="path7021"
         style="opacity:1;fill:#148dff;fill-opacity:0.3183857;fill-rule:evenodd;stroke:#000000;stroke-width:0.5;stroke-linecap:round;stroke-linejoin:round;stroke-miterlimit:4;stroke-dasharray:1.5, 1.5;stroke-dashoffset:0;stroke-opacity:1;paint-order:normal" />
      <ellipse
         ry="4.2763124"
         rx="4.8108511"
         cy="141.04823"
         cx="98.22155"
         id="path7023"
         style="opacity:1;fill:#148dff;fill-opacity:0.3183857;fill-rule:evenodd;stroke:#000000;stroke-width:0.5;stroke-linecap:round;stroke-linejoin:round;stroke-miterlimit:4;stroke-dasharray:1.5, 1.5;stroke-dashoffset:0;stroke-opacity:1;paint-order:normal" />
      <ellipse
         ry="6.2808337"
         rx="6.8153729"
         cy="133.96559"
         cx="102.76513"
         id="path7025"
         style="opacity:1;fill:#148dff;fill-opacity:0.3183857;fill-rule:evenodd;stroke:#000000;stroke-width:0.5;stroke-linecap:round;stroke-linejoin:round;stroke-miterlimit:4;stroke-dasharray:1.5, 1.5;stroke-dashoffset:0;stroke-opacity:1;paint-order:normal" />
      <ellipse
         ry="3.2740517"
         rx="3.8085907"
         cy="137.64055"
         cx="107.77644"
         id="path7027"
         style="opacity:1;fill:#148dff;fill-opacity:0.3183857;fill-rule:evenodd;stroke:#000000;stroke-width:0.5;stroke-linecap:round;stroke-linejoin:round;stroke-miterlimit:4;stroke-dasharray:1.5, 1.5;stroke-dashoffset:0;stroke-opacity:1;paint-order:normal" />
      <ellipse
         ry="2.781549"
         rx="2.9945841"
         cy="143.02797"
         cx="100.94887"
         id="path7029"
         style="opacity:1;fill:#148dff;fill-opacity:0.3183857;fill-rule:evenodd;stroke:#000000;stroke-width:0.5;stroke-linecap:round;stroke-linejoin:round;stroke-miterlimit:4;stroke-dasharray:1.5, 1.5;stroke-dashoffset:0;stroke-opacity:1;paint-order:normal" />
      <ellipse
         ry="1.9377041"
         rx="2.80633"
         cy="139.77869"
         cx="104.23512"
         id="path7031"
         style="opacity:1;fill:#148dff;fill-opacity:0.3183857;fill-rule:evenodd;stroke:#000000;stroke-width:0.5;stroke-linecap:round;stroke-linejoin:round;stroke-miterlimit:4;stroke-dasharray:1.5, 1.5;stroke-dashoffset:0;stroke-opacity:1;paint-order:normal" />
      <ellipse
         ry="1.2695302"
         rx="2.2049735"
         cy="144.4559"
         cx="104.97011"
         id="path7033"
         style="opacity:1;fill:#148dff;fill-opacity:0.3183857;fill-rule:evenodd;stroke:#000000;stroke-width:0.5;stroke-linecap:round;stroke-linejoin:round;stroke-miterlimit:4;stroke-dasharray:1.5, 1.5;stroke-dashoffset:0;stroke-opacity:1;paint-order:normal" />
      <ellipse
         ry="1.4699824"
         rx="2.80633"
         cy="145.85909"
         cx="97.018837"
         id="path7035"
         style="opacity:1;fill:#148dff;fill-opacity:0.3183857;fill-rule:evenodd;stroke:#000000;stroke-width:0.5;stroke-linecap:round;stroke-linejoin:round;stroke-miterlimit:4;stroke-dasharray:1.5, 1.5;stroke-dashoffset:0;stroke-opacity:1;paint-order:normal" />
      <ellipse
         ry="1.7372519"
         rx="3.4076865"
         cy="142.38457"
         cx="106.97463"
         id="path7037"
         style="opacity:1;fill:#148dff;fill-opacity:0.3183857;fill-rule:evenodd;stroke:#000000;stroke-width:0.5;stroke-linecap:round;stroke-linejoin:round;stroke-miterlimit:4;stroke-dasharray:1.5, 1.5;stroke-dashoffset:0;stroke-opacity:1;paint-order:normal" />
      <ellipse
         ry="3.3408689"
         rx="4.8776689"
         cy="124.74479"
         cx="103.63376"
         id="path7039"
         style="opacity:1;fill:#148dff;fill-opacity:0.3183857;fill-rule:evenodd;stroke:#000000;stroke-width:0.5;stroke-linecap:round;stroke-linejoin:round;stroke-miterlimit:4;stroke-dasharray:1.5, 1.5;stroke-dashoffset:0;stroke-opacity:1;paint-order:normal" />
      <ellipse
         ry="4.2094951"
         rx="5.2117558"
         cy="130.82516"
         cx="106.90781"
         id="path7041"
         style="opacity:1;fill:#148dff;fill-opacity:0.3183857;fill-rule:evenodd;stroke:#000000;stroke-width:0.5;stroke-linecap:round;stroke-linejoin:round;stroke-miterlimit:4;stroke-dasharray:1.5, 1.5;stroke-dashoffset:0;stroke-opacity:1;paint-order:normal" />
      <ellipse
         ry="5.8799295"
         rx="6.2140164"
         cy="136.37102"
         cx="85.993965"
         id="path7043"
         style="opacity:1;fill:#148dff;fill-opacity:0.3183857;fill-rule:evenodd;stroke:#000000;stroke-width:0.5;stroke-linecap:round;stroke-linejoin:round;stroke-miterlimit:4;stroke-dasharray:1.5, 1.5;stroke-dashoffset:0;stroke-opacity:1;paint-order:normal" />
      <ellipse
         ry="5.1449385"
         rx="4.9444861"
         cy="138.84325"
         cx="90.737999"
         id="path7045"
         style="opacity:1;fill:#148dff;fill-opacity:0.3183857;fill-rule:evenodd;stroke:#000000;stroke-width:0.5;stroke-linecap:round;stroke-linejoin:round;stroke-miterlimit:4;stroke-dasharray:1.5, 1.5;stroke-dashoffset:0;stroke-opacity:1;paint-order:normal" />
      <ellipse
         ry="5.6126599"
         rx="5.5458426"
         cy="130.09018"
         cx="89.602112"
         id="path7047"
         style="opacity:1;fill:#148dff;fill-opacity:0.3183857;fill-rule:evenodd;stroke:#000000;stroke-width:0.5;stroke-linecap:round;stroke-linejoin:round;stroke-miterlimit:4;stroke-dasharray:1.5, 1.5;stroke-dashoffset:0;stroke-opacity:1;paint-order:normal" />
    </g>
  </g>
</svg>
