<?xml version="1.0" encoding="UTF-8" standalone="no"?>
<!-- Created with Inkscape (http://www.inkscape.org/) -->

<svg
   xmlns:dc="http://purl.org/dc/elements/1.1/"
   xmlns:cc="http://creativecommons.org/ns#"
   xmlns:rdf="http://www.w3.org/1999/02/22-rdf-syntax-ns#"
   xmlns:svg="http://www.w3.org/2000/svg"
   xmlns="http://www.w3.org/2000/svg"
   xmlns:sodipodi="http://sodipodi.sourceforge.net/DTD/sodipodi-0.dtd"
   xmlns:inkscape="http://www.inkscape.org/namespaces/inkscape"
   width="124.69622mm"
   height="137.929mm"
   viewBox="0 0 124.69622 137.92899"
   version="1.1"
   id="svg8"
   inkscape:version="0.92.5 (2060ec1f9f, 2020-04-08)"
   sodipodi:docname="qubit2.svg">
  <defs
     id="defs2">
    <marker
       inkscape:isstock="true"
       style="overflow:visible"
       id="marker5107"
       refX="0"
       refY="0"
       orient="auto"
       inkscape:stockid="Arrow2Mend">
      <path
         transform="scale(-0.6)"
         d="M 8.7185878,4.0337352 -2.2072895,0.01601326 8.7185884,-4.0017078 c -1.7454984,2.3720609 -1.7354408,5.6174519 -6e-7,8.035443 z"
         style="fill:#739bff;fill-opacity:1;fill-rule:evenodd;stroke:#739bff;stroke-width:0.625;stroke-linejoin:round;stroke-opacity:1"
         id="path5105"
         inkscape:connector-curvature="0" />
    </marker>
    <marker
       inkscape:isstock="true"
       style="overflow:visible"
       id="marker5103"
       refX="0"
       refY="0"
       orient="auto"
       inkscape:stockid="Arrow2Mend">
      <path
         transform="scale(-0.6)"
         d="M 8.7185878,4.0337352 -2.2072895,0.01601326 8.7185884,-4.0017078 c -1.7454984,2.3720609 -1.7354408,5.6174519 -6e-7,8.035443 z"
         style="fill:#63ff89;fill-opacity:1;fill-rule:evenodd;stroke:#63ff89;stroke-width:0.625;stroke-linejoin:round;stroke-opacity:1"
         id="path5101"
         inkscape:connector-curvature="0" />
    </marker>
    <marker
       inkscape:isstock="true"
       style="overflow:visible"
       id="marker5097"
       refX="0"
       refY="0"
       orient="auto"
       inkscape:stockid="Arrow2Lend">
      <path
         transform="matrix(-1.1,0,0,-1.1,-1.1,0)"
         d="M 8.7185878,4.0337352 -2.2072895,0.01601326 8.7185884,-4.0017078 c -1.7454984,2.3720609 -1.7354408,5.6174519 -6e-7,8.035443 z"
         style="fill:#739bff;fill-opacity:1;fill-rule:evenodd;stroke:#739bff;stroke-width:0.625;stroke-linejoin:round;stroke-opacity:1"
         id="path5095"
         inkscape:connector-curvature="0" />
    </marker>
    <marker
       inkscape:isstock="true"
       style="overflow:visible"
       id="marker5093"
       refX="0"
       refY="0"
       orient="auto"
       inkscape:stockid="Arrow2Lend">
      <path
         transform="matrix(-1.1,0,0,-1.1,-1.1,0)"
         d="M 8.7185878,4.0337352 -2.2072895,0.01601326 8.7185884,-4.0017078 c -1.7454984,2.3720609 -1.7354408,5.6174519 -6e-7,8.035443 z"
         style="fill:#63ff89;fill-opacity:1;fill-rule:evenodd;stroke:#63ff89;stroke-width:0.625;stroke-linejoin:round;stroke-opacity:1"
         id="path5091"
         inkscape:connector-curvature="0" />
    </marker>
    <marker
       inkscape:isstock="true"
       style="overflow:visible"
       id="marker5086"
       refX="0"
       refY="0"
       orient="auto"
       inkscape:stockid="Arrow1Send">
      <path
         transform="matrix(-0.2,0,0,-0.2,-1.2,0)"
         style="fill:#739bff;fill-opacity:1;fill-rule:evenodd;stroke:#739bff;stroke-width:1.00000003pt;stroke-opacity:1"
         d="M 0,0 5,-5 -12.5,0 5,5 Z"
         id="path5084"
         inkscape:connector-curvature="0" />
    </marker>
    <marker
       inkscape:isstock="true"
       style="overflow:visible"
       id="marker5082"
       refX="0"
       refY="0"
       orient="auto"
       inkscape:stockid="Arrow1Send">
      <path
         transform="matrix(-0.2,0,0,-0.2,-1.2,0)"
         style="fill:#63ff89;fill-opacity:1;fill-rule:evenodd;stroke:#63ff89;stroke-width:1.00000003pt;stroke-opacity:1"
         d="M 0,0 5,-5 -12.5,0 5,5 Z"
         id="path5080"
         inkscape:connector-curvature="0" />
    </marker>
    <marker
       inkscape:isstock="true"
       style="overflow:visible"
       id="marker5076"
       refX="0"
       refY="0"
       orient="auto"
       inkscape:stockid="Arrow1Lend">
      <path
         transform="matrix(-0.8,0,0,-0.8,-10,0)"
         style="fill:#739bff;fill-opacity:1;fill-rule:evenodd;stroke:#739bff;stroke-width:1.00000003pt;stroke-opacity:1"
         d="M 0,0 5,-5 -12.5,0 5,5 Z"
         id="path5074"
         inkscape:connector-curvature="0" />
    </marker>
    <marker
       inkscape:isstock="true"
       style="overflow:visible"
       id="marker5072"
       refX="0"
       refY="0"
       orient="auto"
       inkscape:stockid="Arrow1Lend">
      <path
         transform="matrix(-0.8,0,0,-0.8,-10,0)"
         style="fill:#63ff89;fill-opacity:1;fill-rule:evenodd;stroke:#63ff89;stroke-width:1.00000003pt;stroke-opacity:1"
         d="M 0,0 5,-5 -12.5,0 5,5 Z"
         id="path5070"
         inkscape:connector-curvature="0" />
    </marker>
    <marker
       inkscape:isstock="true"
       style="overflow:visible"
       id="marker11204"
       refX="0"
       refY="0"
       orient="auto"
       inkscape:stockid="Arrow2Mend">
      <path
         inkscape:connector-curvature="0"
         transform="scale(-0.6)"
         d="M 8.7185878,4.0337352 -2.2072895,0.01601326 8.7185884,-4.0017078 c -1.7454984,2.3720609 -1.7354408,5.6174519 -6e-7,8.035443 z"
         style="fill:#000000;fill-opacity:1;fill-rule:evenodd;stroke:#000000;stroke-width:0.625;stroke-linejoin:round;stroke-opacity:1"
         id="path11202" />
    </marker>
    <marker
       inkscape:isstock="true"
       style="overflow:visible"
       id="marker8965"
       refX="0"
       refY="0"
       orient="auto"
       inkscape:stockid="Arrow2Mend">
      <path
         transform="scale(-0.6)"
         d="M 8.7185878,4.0337352 -2.2072895,0.01601326 8.7185884,-4.0017078 c -1.7454984,2.3720609 -1.7354408,5.6174519 -6e-7,8.035443 z"
         style="fill:#000000;fill-opacity:0.99545456;fill-rule:evenodd;stroke:none;stroke-width:0.625;stroke-linejoin:round;stroke-opacity:1"
         id="path8963"
         inkscape:connector-curvature="0" />
    </marker>
    <marker
       inkscape:isstock="true"
       style="overflow:visible"
       id="marker7204"
       refX="0"
       refY="0"
       orient="auto"
       inkscape:stockid="Arrow2Mend">
      <path
         transform="scale(-0.6)"
         d="M 8.7185878,4.0337352 -2.2072895,0.01601326 8.7185884,-4.0017078 c -1.7454984,2.3720609 -1.7354408,5.6174519 -6e-7,8.035443 z"
         style="fill:#000000;fill-opacity:0.99545456;fill-rule:evenodd;stroke:none;stroke-width:0.625;stroke-linejoin:round;stroke-opacity:1"
         id="path7202"
         inkscape:connector-curvature="0" />
    </marker>
    <marker
       inkscape:isstock="true"
       style="overflow:visible"
       id="marker5974"
       refX="0"
       refY="0"
       orient="auto"
       inkscape:stockid="Arrow2Mend">
      <path
         transform="scale(-0.6)"
         d="M 8.7185878,4.0337352 -2.2072895,0.01601326 8.7185884,-4.0017078 c -1.7454984,2.3720609 -1.7354408,5.6174519 -6e-7,8.035443 z"
         style="fill:#63ff89;fill-opacity:1;fill-rule:evenodd;stroke:#63ff89;stroke-width:0.625;stroke-linejoin:round;stroke-opacity:1"
         id="path5972"
         inkscape:connector-curvature="0" />
    </marker>
    <marker
       inkscape:isstock="true"
       style="overflow:visible"
       id="marker5396"
       refX="0"
       refY="0"
       orient="auto"
       inkscape:stockid="Arrow2Mend">
      <path
         transform="scale(-0.6)"
         d="M 8.7185878,4.0337352 -2.2072895,0.01601326 8.7185884,-4.0017078 c -1.7454984,2.3720609 -1.7354408,5.6174519 -6e-7,8.035443 z"
         style="fill:#739bff;fill-opacity:1;fill-rule:evenodd;stroke:#739bff;stroke-width:0.625;stroke-linejoin:round;stroke-opacity:1"
         id="path5394"
         inkscape:connector-curvature="0" />
    </marker>
    <marker
       inkscape:stockid="Arrow2Send"
       orient="auto"
       refY="0"
       refX="0"
       id="Arrow2Send"
       style="overflow:visible"
       inkscape:isstock="true">
      <path
         id="path4559"
         style="fill:#000000;fill-opacity:1;fill-rule:evenodd;stroke:#000000;stroke-width:0.625;stroke-linejoin:round;stroke-opacity:1"
         d="M 8.7185878,4.0337352 -2.2072895,0.01601326 8.7185884,-4.0017078 c -1.7454984,2.3720609 -1.7354408,5.6174519 -6e-7,8.035443 z"
         transform="matrix(-0.3,0,0,-0.3,0.69,0)"
         inkscape:connector-curvature="0" />
    </marker>
    <marker
       inkscape:stockid="Arrow2Lend"
       orient="auto"
       refY="0"
       refX="0"
       id="Arrow2Lend"
       style="overflow:visible"
       inkscape:isstock="true">
      <path
         id="path4547"
         style="fill:#000000;fill-opacity:1;fill-rule:evenodd;stroke:#000000;stroke-width:0.625;stroke-linejoin:round;stroke-opacity:1"
         d="M 8.7185878,4.0337352 -2.2072895,0.01601326 8.7185884,-4.0017078 c -1.7454984,2.3720609 -1.7354408,5.6174519 -6e-7,8.035443 z"
         transform="matrix(-1.1,0,0,-1.1,-1.1,0)"
         inkscape:connector-curvature="0" />
    </marker>
    <marker
       inkscape:stockid="Arrow1Lend"
       orient="auto"
       refY="0"
       refX="0"
       id="marker5006"
       style="overflow:visible"
       inkscape:isstock="true">
      <path
         id="path5004"
         d="M 0,0 5,-5 -12.5,0 5,5 Z"
         style="fill:#000000;fill-opacity:1;fill-rule:evenodd;stroke:#000000;stroke-width:1.00000003pt;stroke-opacity:1"
         transform="matrix(-0.8,0,0,-0.8,-10,0)"
         inkscape:connector-curvature="0" />
    </marker>
    <marker
       inkscape:stockid="Arrow1Lend"
       orient="auto"
       refY="0"
       refX="0"
       id="marker4978"
       style="overflow:visible"
       inkscape:isstock="true">
      <path
         id="path4976"
         d="M 0,0 5,-5 -12.5,0 5,5 Z"
         style="fill:#000000;fill-opacity:1;fill-rule:evenodd;stroke:#000000;stroke-width:1.00000003pt;stroke-opacity:1"
         transform="matrix(-0.8,0,0,-0.8,-10,0)"
         inkscape:connector-curvature="0" />
    </marker>
    <marker
       inkscape:stockid="Arrow1Lend"
       orient="auto"
       refY="0"
       refX="0"
       id="Arrow1Lend"
       style="overflow:visible"
       inkscape:isstock="true">
      <path
         id="path4529"
         d="M 0,0 5,-5 -12.5,0 5,5 Z"
         style="fill:#000000;fill-opacity:1;fill-rule:evenodd;stroke:#000000;stroke-width:1.00000003pt;stroke-opacity:1"
         transform="matrix(-0.8,0,0,-0.8,-10,0)"
         inkscape:connector-curvature="0" />
    </marker>
  </defs>
  <sodipodi:namedview
     id="base"
     pagecolor="#ffffff"
     bordercolor="#666666"
     borderopacity="1.0"
     inkscape:pageopacity="0.0"
     inkscape:pageshadow="2"
     inkscape:zoom="1.2977784"
     inkscape:cx="105.85515"
     inkscape:cy="302.43854"
     inkscape:document-units="mm"
     inkscape:current-layer="content"
     showgrid="true"
     inkscape:window-width="1920"
     inkscape:window-height="1025"
     inkscape:window-x="0"
     inkscape:window-y="27"
     inkscape:window-maximized="1"
     fit-margin-top="0"
     fit-margin-left="0"
     fit-margin-right="0"
     fit-margin-bottom="0"
     inkscape:snap-page="true"
     inkscape:snap-grids="false"
     inkscape:snap-to-guides="false"
     inkscape:snap-others="false"
     inkscape:object-nodes="false"
     inkscape:snap-nodes="false"
     inkscape:object-paths="true"
     inkscape:snap-intersection-paths="false"
     inkscape:snap-smooth-nodes="false">
    <inkscape:grid
       empopacity="0.25098039"
       empcolor="#3fa1ff"
       opacity="0.1254902"
       color="#ff683f"
       empspacing="5"
       dotted="true"
       spacingy="1.3229167"
       spacingx="1.3229167"
       visible="true"
       id="grid815"
       type="xygrid"
       originx="-34.855779"
       originy="-108.86681" />
  </sodipodi:namedview>
  <metadata
     id="metadata5">
    <rdf:RDF>
      <cc:Work
         rdf:about="">
        <dc:format>image/svg+xml</dc:format>
        <dc:type
           rdf:resource="http://purl.org/dc/dcmitype/StillImage" />
        <dc:title />
      </cc:Work>
    </rdf:RDF>
  </metadata>
  <g
     inkscape:label="Camada 1"
     inkscape:groupmode="layer"
     id="layer1"
     transform="translate(-34.855771,-50.20409)">
    <circle
       style="opacity:0.822;fill:none;fill-opacity:0.99545456;fill-rule:nonzero;stroke:#000000;stroke-width:1.60399997;stroke-linecap:butt;stroke-linejoin:round;stroke-miterlimit:4;stroke-dasharray:none;stroke-dashoffset:0;stroke-opacity:1"
       id="path4520"
       cx="105.83333"
       cy="118.40624"
       r="52.916664" />
    <path
       style="opacity:0.822;fill:none;fill-opacity:0.99545456;fill-rule:nonzero;stroke:#000000;stroke-width:0.57461518;stroke-linecap:butt;stroke-linejoin:round;stroke-miterlimit:4;stroke-dasharray:2.2984607, 1.14923034;stroke-dashoffset:3.7262001;stroke-opacity:1"
       d="m 59.629889,92.379842 a 46.126352,9.5046538 0 0 1 46.126351,-9.504651 46.126352,9.5046538 0 0 1 46.12636,9.504651"
       id="path4522-9"
       inkscape:connector-curvature="0" />
    <path
       style="opacity:0.822;fill:none;fill-opacity:0.99545456;fill-rule:nonzero;stroke:#000000;stroke-width:0.53399998;stroke-linecap:butt;stroke-linejoin:round;stroke-miterlimit:4;stroke-dasharray:2.136, 1.068;stroke-dashoffset:2.7110467;stroke-opacity:1"
       d="m 53.060206,118.40636 a 52.773121,13.553745 0 0 1 52.773124,-13.55374 52.773121,13.553745 0 0 1 52.77312,13.55374"
       id="path4522"
       inkscape:connector-curvature="0" />
    <path
       style="fill:none;stroke:#739bff;stroke-width:1.98699999;stroke-linecap:butt;stroke-linejoin:miter;stroke-miterlimit:4;stroke-dasharray:none;stroke-opacity:1"
       d="M 105.83333,118.40624 V 170"
       id="path5296"
       inkscape:connector-curvature="0" />
    <path
       style="opacity:1;fill:#ca5a23;fill-opacity:0.46788994;stroke:#c25c00;stroke-width:0.90000015;stroke-miterlimit:4;stroke-dasharray:none;stroke-dashoffset:0;stroke-opacity:1"
       id="path4741"
       sodipodi:type="arc"
       sodipodi:cx="-118.56086"
       sodipodi:cy="105.97063"
       sodipodi:rx="53.119789"
       sodipodi:ry="40.094059"
       sodipodi:start="0"
       sodipodi:end="0.96289533"
       d="m -65.441071,105.97063 a 53.119789,40.094059 0 0 1 -22.780647,32.91115 l -30.339142,-32.91115 z"
       transform="matrix(-0.00143718,-0.99999897,0.99999739,-0.00228501,0,0)" />
    <path
       style="fill:none;stroke:#ff5161;stroke-width:1.98699999;stroke-linecap:butt;stroke-linejoin:miter;stroke-miterlimit:4;stroke-dasharray:none;stroke-opacity:1"
       d="M 105.83333,118.40624 V 66.812494"
       id="path4524"
       inkscape:connector-curvature="0" />
    <path
       style="opacity:1;fill:none;fill-opacity:0.45871558;stroke:#728271;stroke-width:0.90000015;stroke-miterlimit:4;stroke-dasharray:0.90000016, 0.90000016;stroke-dashoffset:0;stroke-opacity:1"
       id="path4741-6"
       sodipodi:type="arc"
       sodipodi:cx="-118.56086"
       sodipodi:cy="105.97063"
       sodipodi:rx="53.119793"
       sodipodi:ry="40.094059"
       sodipodi:start="0.96975555"
       sodipodi:end="1.7336257"
       d="m -88.521555,139.0381 a 53.119793,40.094059 0 0 1 -38.650595,6.49624 l 8.61129,-39.56371 z"
       transform="matrix(-0.00143718,-0.99999897,0.99999739,-0.00228501,0,0)" />
    <path
       style="opacity:1;vector-effect:none;fill:none;fill-opacity:1;stroke:#9afe77;stroke-width:1.80799997;stroke-linecap:butt;stroke-linejoin:miter;stroke-miterlimit:4;stroke-dasharray:none;stroke-dashoffset:0;stroke-opacity:1"
       d="M 105.69277,118.33971 137.7668,89.070264"
       id="path5944"
       inkscape:connector-curvature="0"
       sodipodi:nodetypes="cc"
       inkscape:transform-center-x="-15.94237"
       inkscape:transform-center-y="-14.793839" />
    <path
       style="opacity:0.822;fill:none;fill-opacity:0.99545456;fill-rule:nonzero;stroke:#000000;stroke-width:0.65767133;stroke-linecap:butt;stroke-linejoin:round;stroke-miterlimit:4;stroke-dasharray:none;stroke-dashoffset:0;stroke-opacity:1"
       d="m 150.90819,144.95975 v 0 a 44.997759,12.805736 0 0 1 -44.99777,12.80573 44.997759,12.805736 0 0 1 -44.997755,-12.80573"
       id="path7441-2-1"
       inkscape:connector-curvature="0" />
    <path
       style="opacity:0.822;fill:none;fill-opacity:0.99545456;fill-rule:nonzero;stroke:#000000;stroke-width:0.57272458;stroke-linecap:butt;stroke-linejoin:round;stroke-miterlimit:4;stroke-dasharray:2.29089851, 1.14544924;stroke-dashoffset:3.7262001;stroke-opacity:1"
       d="m 60.881324,144.92945 a 45.0291,9.6722976 0 0 1 45.029096,-9.67229 45.0291,9.6722976 0 0 1 45.02912,9.67229"
       id="path4522-9-2"
       inkscape:connector-curvature="0" />
    <g
       id="g10338"
       transform="matrix(0.83821281,0,0,0.83821281,28.682459,-24.968511)"
       style="fill-opacity:1">
      <g
         word-spacing="normal"
         letter-spacing="normal"
         font-size-adjust="none"
         font-stretch="normal"
         font-weight="normal"
         font-variant="normal"
         font-style="normal"
         stroke-miterlimit="10.433"
         xml:space="preserve"
         transform="matrix(0.3,0,0,-0.3,-52.5,222.75)"
         id="content"
         style="font-style:normal;font-variant:normal;font-weight:normal;font-stretch:normal;letter-spacing:normal;word-spacing:normal;text-anchor:start;fill-opacity:1;fill-rule:evenodd;stroke:#000000;stroke-linecap:butt;stroke-linejoin:miter;stroke-miterlimit:10.43299961;stroke-dasharray:none;stroke-dashoffset:0;stroke-opacity:1"><path
           id="path10331"
           d="m 463.44,441.78 v 0.16 0.17 l -0.01,0.16 v 0.08 0.08 l -0.01,0.08 -0.01,0.08 -0.01,0.07 -0.01,0.07 -0.02,0.07 -0.01,0.07 -0.02,0.07 -0.02,0.06 -0.03,0.06 -0.03,0.06 -0.03,0.06 -0.03,0.05 -0.04,0.05 -0.04,0.05 -0.05,0.04 -0.05,0.04 -0.03,0.01 -0.03,0.02 -0.03,0.02 -0.03,0.01 -0.03,0.01 -0.03,0.02 -0.03,0.01 -0.04,0.01 -0.04,0.01 -0.03,0.01 h -0.04 l -0.04,0.01 h -0.04 l -0.05,0.01 h -0.04 -0.05 c -1,0 -1,-0.89 -1,-1.78 v -46.24 c 0,-0.9 0,-1.79 1,-1.79 1,0 1,0.89 1,1.79 z"
           inkscape:connector-curvature="0"
           style="fill-opacity:1;stroke-width:0" /><path
           id="path10333"
           d="m 483.14925,-62.142116 v 0.05 0.06 0.05 0.05 0.05 0.05 0.04 l -0.01,0.05 v 0.04 0.04 0.04 0.04 0.04 0.03 l -0.01,0.04 v 0.03 l -0.01,0.07 -0.01,0.06 -0.01,0.05 -0.01,0.05 -0.02,0.05 -0.02,0.04 -0.02,0.04 -0.03,0.03 -0.02,0.03 -0.04,0.03 -0.03,0.03 -0.04,0.02 -0.05,0.02 -0.02,0.01 -0.02,0.01 h -0.03 l -0.03,0.01 -0.02,0.01 h -0.03 l -0.04,0.01 h -0.03 l -0.03,0.01 h -0.04 -0.03 l -0.04,0.01 h -0.04 -0.04 -0.04 -0.04 -0.05 l -0.04,0.01 h -0.05 -0.05 -0.05 -0.05 c -3.1,-3.19 -7.47,-3.19 -9.07,-3.19 v -1.55 c 1,0 3.94,0 6.52,1.3 v -25.81 c 0,-1.8 -0.14,-2.39 -4.63,-2.39 h -1.59 v -1.55 c 1.75,0.16 6.08,0.16 8.06,0.16 2,0 6.33,0 8.08,-0.16 v 1.55 h -1.59 c -4.49,0 -4.64,0.54 -4.64,2.39 z"
           inkscape:connector-curvature="0"
           style="fill-opacity:1;stroke-width:0" /><path
           id="path10335"
           d="m 507.87,417.81 0.01,0.03 0.01,0.02 0.01,0.03 0.01,0.02 0.01,0.03 0.01,0.02 0.01,0.03 0.01,0.02 0.01,0.02 0.01,0.02 0.01,0.02 v 0.03 l 0.02,0.03 0.01,0.04 0.01,0.04 0.02,0.03 0.01,0.03 0.01,0.03 v 0.03 l 0.01,0.02 0.01,0.03 0.01,0.02 v 0.02 l 0.01,0.02 v 0.02 0.02 l 0.01,0.02 v 0.01 0.02 0.01 0.02 l 0.01,0.01 v 0.03 0.03 0.02 c 0,0.16 0,0.25 -0.25,0.85 l -8.72,22.92 c -0.3,0.84 -0.6,1.14 -1.14,1.14 -0.55,0 -1,-0.44 -1,-0.99 0,-0.15 0,-0.25 0.25,-0.79 l 8.83,-23.13 -8.83,-23.01 c -0.25,-0.55 -0.25,-0.64 -0.25,-0.89 0,-0.55 0.45,-1 1,-1 0.65,0 0.84,0.5 1.04,1 z"
           inkscape:connector-curvature="0"
           style="fill-opacity:1;stroke-width:0" /></g>    </g>
    <g
       id="g10399"
       transform="matrix(0.89036591,0,0,0.89036591,23.774665,94.978564)"
       style="fill-opacity:1">
      <g
         word-spacing="normal"
         letter-spacing="normal"
         font-size-adjust="none"
         font-stretch="normal"
         font-weight="normal"
         font-variant="normal"
         font-style="normal"
         stroke-miterlimit="10.433"
         xml:space="preserve"
         transform="matrix(0.3,0,0,-0.3,-52.5,222.75)"
         id="g10397"
         style="font-style:normal;font-variant:normal;font-weight:normal;font-stretch:normal;letter-spacing:normal;word-spacing:normal;text-anchor:start;fill-opacity:1;fill-rule:evenodd;stroke:#000000;stroke-linecap:butt;stroke-linejoin:miter;stroke-miterlimit:10.43299961;stroke-dasharray:none;stroke-dashoffset:0;stroke-opacity:1"><path
           id="path10391"
           d="m 463.44,441.78 v 0.16 0.17 l -0.01,0.16 v 0.08 0.08 l -0.01,0.08 -0.01,0.08 -0.01,0.07 -0.01,0.07 -0.02,0.07 -0.01,0.07 -0.02,0.07 -0.02,0.06 -0.03,0.06 -0.03,0.06 -0.03,0.06 -0.03,0.05 -0.04,0.05 -0.04,0.05 -0.05,0.04 -0.05,0.04 -0.03,0.01 -0.03,0.02 -0.03,0.02 -0.03,0.01 -0.03,0.01 -0.03,0.02 -0.03,0.01 -0.04,0.01 -0.04,0.01 -0.03,0.01 h -0.04 l -0.04,0.01 h -0.04 l -0.05,0.01 h -0.04 -0.05 c -1,0 -1,-0.89 -1,-1.78 v -46.24 c 0,-0.9 0,-1.79 1,-1.79 1,0 1,0.89 1,1.79 z"
           inkscape:connector-curvature="0"
           style="fill-opacity:1;stroke-width:0" /><path
           id="path10393"
           d="m 491.47674,888.49151 -0.01,0.74 -0.01,0.75 -0.02,0.75 -0.03,0.74 -0.04,0.75 -0.06,0.74 -0.08,0.74 -0.1,0.73 -0.11,0.73 -0.14,0.73 -0.16,0.72 -0.19,0.72 -0.22,0.72 -0.24,0.7 -0.28,0.7 -0.15,0.35 -0.16,0.34 c -2.28,4.8 -6.38,5.6 -8.47,5.6 -2.98,0 -6.63,-1.3 -8.67,-5.94 -1.6,-3.44 -1.85,-7.33 -1.85,-11.31 0,-3.74 0.21,-8.22 2.25,-12 2.14,-4.03 5.79,-5.03 8.22,-5.03 v 1.09 c -1.93,0 -4.89,1.25 -5.78,6.03 -0.55,2.98 -0.55,7.56 -0.55,10.52 0,3.18 0,6.46 0.41,9.15 0.94,5.94 4.67,6.38 5.92,6.38 1.64,0 4.94,-0.89 5.88,-5.83 0.5,-2.78 0.5,-6.58 0.5,-9.7 0,-3.75 0,-7.13 -0.55,-10.32 -0.75,-4.73 -3.59,-6.23 -5.83,-6.23 v 0 -1.09 c 2.69,0 6.47,1.04 8.67,5.78 1.6,3.43 1.85,7.31 1.85,11.25 z"
           inkscape:connector-curvature="0"
           style="fill-opacity:1;stroke-width:0" /><path
           id="path10395"
           d="m 507.87,417.81 0.01,0.03 0.01,0.02 0.01,0.03 0.01,0.02 0.01,0.03 0.01,0.02 0.01,0.03 0.01,0.02 0.01,0.02 0.01,0.02 0.01,0.02 v 0.03 l 0.02,0.03 0.01,0.04 0.01,0.04 0.02,0.03 0.01,0.03 0.01,0.03 v 0.03 l 0.01,0.02 0.01,0.03 0.01,0.02 v 0.02 l 0.01,0.02 v 0.02 0.02 l 0.01,0.02 v 0.01 0.02 0.01 0.02 l 0.01,0.01 v 0.03 0.03 0.02 c 0,0.16 0,0.25 -0.25,0.85 l -8.72,22.92 c -0.3,0.84 -0.6,1.14 -1.14,1.14 -0.55,0 -1,-0.44 -1,-0.99 0,-0.15 0,-0.25 0.25,-0.79 l 8.83,-23.13 -8.83,-23.01 c -0.25,-0.55 -0.25,-0.64 -0.25,-0.89 0,-0.55 0.45,-1 1,-1 0.65,0 0.84,0.5 1.04,1 z"
           inkscape:connector-curvature="0"
           style="fill-opacity:1;stroke-width:0" /></g>    </g>
    <ellipse
       style="opacity:1;vector-effect:none;fill:#9afe77;fill-opacity:1;fill-rule:nonzero;stroke:none;stroke-width:0.15663691;stroke-linecap:butt;stroke-linejoin:miter;stroke-miterlimit:4;stroke-dasharray:none;stroke-dashoffset:14.08327579;stroke-opacity:1"
       id="path8961-0-3"
       cx="71.743271"
       cy="149.00693"
       inkscape:transform-center-x="-0.37356676"
       inkscape:transform-center-y="-0.22752253"
       transform="matrix(0.84302931,-0.53786763,0.52407469,0.85167231,0,0)"
       rx="4.128036"
       ry="4.1607313" />
    <path
       style="opacity:0.822;fill:none;fill-opacity:0.99545456;fill-rule:nonzero;stroke:#000000;stroke-width:0.60155529;stroke-linecap:butt;stroke-linejoin:round;stroke-miterlimit:4;stroke-dasharray:none;stroke-dashoffset:0;stroke-opacity:1"
       d="m 151.86766,92.372363 v 0 A 46.111407,10.454912 0 0 1 105.75624,102.82727 46.111407,10.454912 0 0 1 59.644834,92.372363"
       id="path7441-2"
       inkscape:connector-curvature="0" />
    <path
       style="opacity:1;vector-effect:none;fill:#ae5fbe;fill-opacity:0.60550459;stroke:none;stroke-width:0.72299999;stroke-linecap:round;stroke-linejoin:miter;stroke-miterlimit:4;stroke-dasharray:none;stroke-dashoffset:0;stroke-opacity:1"
       id="path4793"
       sodipodi:type="arc"
       sodipodi:cx="105.83333"
       sodipodi:cy="118.40636"
       sodipodi:rx="53.080154"
       sodipodi:ry="13.422867"
       sodipodi:start="0.70739415"
       sodipodi:end="4.3230404"
       d="M 146.17732,127.12928 A 53.080154,13.422867 0 0 1 88.041074,131.05269 53.080154,13.422867 0 0 1 52.768166,118.72536 53.080154,13.422867 0 0 1 85.684854,105.9881 l 20.148476,12.41826 z" />
    <path
       style="fill:none;stroke:#000000;stroke-width:0.86500001;stroke-linecap:butt;stroke-linejoin:miter;stroke-miterlimit:4;stroke-dasharray:0.865, 0.865;stroke-dashoffset:0;stroke-opacity:1"
       d="M 106.10118,118.42184 85.900078,105.85949"
       id="path4801"
       inkscape:connector-curvature="0"
       sodipodi:nodetypes="cc" />
    <circle
       style="opacity:1;vector-effect:none;fill:#606060;fill-opacity:1;fill-rule:nonzero;stroke:none;stroke-width:0.06428571;stroke-linecap:butt;stroke-linejoin:miter;stroke-miterlimit:4;stroke-dasharray:none;stroke-dashoffset:14.08327579;stroke-opacity:1"
       id="path8961-0-9"
       cx="105.85173"
       cy="118.5555"
       r="1.7008928" />
    <path
       style="opacity:0.822;fill:none;fill-opacity:0.99545456;fill-rule:nonzero;stroke:#000000;stroke-width:0.73273551;stroke-linecap:butt;stroke-linejoin:round;stroke-miterlimit:4;stroke-dasharray:none;stroke-dashoffset:0;stroke-opacity:1"
       d="m 158.60645,118.40636 v 0 a 52.773121,13.553745 0 0 1 -52.77312,13.55375 52.773121,13.553745 0 0 1 -52.773124,-13.55375"
       id="path7441"
       inkscape:connector-curvature="0" />
    <circle
       style="opacity:1;vector-effect:none;fill:#ff5161;fill-opacity:1;fill-rule:nonzero;stroke:none;stroke-width:0.15036567;stroke-linecap:butt;stroke-linejoin:miter;stroke-miterlimit:4;stroke-dasharray:none;stroke-dashoffset:14.08327579;stroke-opacity:1"
       id="path8961-7"
       cx="105.83333"
       cy="65.489578"
       r="3.9784245" />
    <circle
       style="opacity:1;vector-effect:none;fill:#739bff;fill-opacity:1;fill-rule:nonzero;stroke:none;stroke-width:0.15036567;stroke-linecap:butt;stroke-linejoin:miter;stroke-miterlimit:4;stroke-dasharray:none;stroke-dashoffset:14.08327579;stroke-opacity:1"
       id="path8961-0"
       cx="105.73481"
       cy="171.24539"
       r="3.9784245" />
    <g
       id="g1785"
       transform="translate(-30.866139,23.273399)"
       style="fill:#a342b7;fill-opacity:1;stroke:#a342b7;stroke-width:0.30000001;stroke-miterlimit:4;stroke-dasharray:none;stroke-opacity:1">
      <g
         word-spacing="normal"
         letter-spacing="normal"
         font-size-adjust="none"
         font-stretch="normal"
         font-weight="normal"
         font-variant="normal"
         font-style="normal"
         stroke-miterlimit="10.433"
         xml:space="preserve"
         transform="matrix(0.23250004,0,0,-0.23250004,-40.687508,201.4375)"
         id="g1783"
         style="font-style:normal;font-variant:normal;font-weight:normal;font-stretch:normal;letter-spacing:normal;word-spacing:normal;text-anchor:start;fill:#a342b7;fill-opacity:1;fill-rule:evenodd;stroke:#a342b7;stroke-width:1.2903223;stroke-linecap:butt;stroke-linejoin:miter;stroke-miterlimit:4;stroke-dasharray:none;stroke-dashoffset:0;stroke-opacity:1"><path
           id="path1779"
           d="m 488.1,438.73 0.02,0.03 0.03,0.02 0.02,0.03 0.02,0.03 0.03,0.02 0.02,0.03 0.04,0.05 0.04,0.04 0.03,0.05 0.03,0.04 0.03,0.05 0.03,0.04 0.03,0.04 0.02,0.03 0.02,0.04 0.02,0.03 0.02,0.04 0.01,0.03 0.02,0.03 0.01,0.03 0.01,0.03 0.01,0.03 0.01,0.02 v 0.03 l 0.01,0.02 v 0.03 l 0.01,0.02 v 0.02 0.03 0.04 0.04 0.04 c 0,0.54 -0.43,1 -0.98,1 -0.31,0 -0.61,-0.16 -1.11,-0.71 l -27.64,-31.82 c -0.45,-0.5 -0.59,-0.66 -0.59,-1.05 0,-1 0.93,-1 1.78,-1 h 26.81 c 0.84,0 1.73,0 1.73,1 0,1 -0.89,1 -1.73,1 H 461.5 Z"
           inkscape:connector-curvature="0"
           style="fill:#a342b7;fill-opacity:1;stroke:#a342b7;stroke-width:1.2903223;stroke-miterlimit:4;stroke-dasharray:none;stroke-opacity:1" /><path
           id="path1781"
           d="m 504.68,427.96 -0.58,-0.15 -0.58,-0.18 -0.56,-0.21 -0.55,-0.24 -0.54,-0.26 -0.53,-0.28 -0.52,-0.31 -0.5,-0.33 -0.49,-0.35 -0.48,-0.38 -0.47,-0.39 -0.44,-0.41 -0.44,-0.42 -0.41,-0.45 -0.4,-0.46 -0.38,-0.47 -0.37,-0.49 -0.34,-0.5 -0.33,-0.51 -0.3,-0.52 -0.28,-0.53 -0.27,-0.53 -0.24,-0.55 -0.22,-0.55 -0.19,-0.56 -0.17,-0.56 -0.15,-0.57 -0.12,-0.56 -0.09,-0.57 -0.07,-0.57 -0.04,-0.57 -0.02,-0.57 c 0,-4.78 3.19,-8.35 7.88,-8.35 v 1.09 c -2.75,0 -4.78,2.09 -4.78,5.87 0,3.14 1.84,12.5 8.56,14.3 v 0 c 1.25,-2.28 2.73,-4.98 2.73,-8.56 0,-3.3 -1.89,-11.61 -6.51,-11.61 v -1.09 c 5.83,0 9.95,7.81 9.95,14.68 0,4.55 -1.98,7.03 -3.69,9.27 -1.78,2.25 -4.71,5.98 -4.71,8.17 0,1.11 0.98,2.3 2.73,2.3 1.5,0 2.48,-0.64 3.53,-1.35 1,-0.59 2,-1.25 2.75,-1.25 1.23,0 1.98,1.21 1.98,2 0,1.1 -0.79,1.24 -2.59,1.64 -2.58,0.55 -3.28,0.55 -4.08,0.55 -3.89,0 -5.68,-2.14 -5.68,-5.12 0,-2.71 1.45,-5.49 3,-8.54 z"
           inkscape:connector-curvature="0"
           style="fill:#a342b7;fill-opacity:1;stroke:#a342b7;stroke-width:1.2903223;stroke-miterlimit:4;stroke-dasharray:none;stroke-opacity:1" /></g>    </g>
    <g
       id="g1874"
       transform="translate(60.74192,-41.429951)"
       style="fill:#c95a22;fill-opacity:0.98165134;stroke:#c95a22;stroke-width:0.2;stroke-miterlimit:4;stroke-dasharray:none;stroke-opacity:1">
      <g
         word-spacing="normal"
         letter-spacing="normal"
         font-size-adjust="none"
         font-stretch="normal"
         font-weight="normal"
         font-variant="normal"
         font-style="normal"
         stroke-miterlimit="10.433"
         xml:space="preserve"
         transform="matrix(0.23250004,0,0,-0.23250004,-40.687508,201.4375)"
         id="g1872"
         style="font-style:normal;font-variant:normal;font-weight:normal;font-stretch:normal;letter-spacing:normal;word-spacing:normal;text-anchor:start;fill:#c95a22;fill-opacity:0.98165134;fill-rule:evenodd;stroke:#c95a22;stroke-width:0.86021489;stroke-linecap:butt;stroke-linejoin:miter;stroke-miterlimit:4;stroke-dasharray:none;stroke-dashoffset:0;stroke-opacity:1"><path
           id="path1866"
           d="m 488.1,438.73 0.02,0.03 0.03,0.02 0.02,0.03 0.02,0.03 0.03,0.02 0.02,0.03 0.04,0.05 0.04,0.04 0.03,0.05 0.03,0.04 0.03,0.05 0.03,0.04 0.03,0.04 0.02,0.03 0.02,0.04 0.02,0.03 0.02,0.04 0.01,0.03 0.02,0.03 0.01,0.03 0.01,0.03 0.01,0.03 0.01,0.02 v 0.03 l 0.01,0.02 v 0.03 l 0.01,0.02 v 0.02 0.03 0.04 0.04 0.04 c 0,0.54 -0.43,1 -0.98,1 -0.31,0 -0.61,-0.16 -1.11,-0.71 l -27.64,-31.82 c -0.45,-0.5 -0.59,-0.66 -0.59,-1.05 0,-1 0.93,-1 1.78,-1 h 26.81 c 0.84,0 1.73,0 1.73,1 0,1 -0.89,1 -1.73,1 H 461.5 Z"
           inkscape:connector-curvature="0"
           style="fill:#c95a22;fill-opacity:0.98165134;stroke:#c95a22;stroke-width:0.86021489;stroke-miterlimit:4;stroke-dasharray:none;stroke-opacity:1" /><path
           id="path1870"
           d="m 514.13689,440.36709 v 0.01 0.01 0 0.01 0.01 l 0.01,0.01 v 0 0.01 0.02 l 0.01,0.03 v 0.02 l 0.01,0.02 v 0.03 l 0.01,0.03 v 0.02 l 0.01,0.03 0.01,0.03 0.01,0.03 0.01,0.06 0.01,0.06 0.01,0.03 0.01,0.02 0.01,0.03 v 0.03 l 0.01,0.02 v 0.02 l 0.01,0.02 v 0.02 l 0.01,0.01 v 0.01 0.01 0.01 0 0.01 l 0.01,0.01 v 0 0.01 0 0 0.01 c 0,0.04 0,0.5 -0.6,0.5 -0.5,0 -0.54,-0.16 -0.75,-1 l -2.89,-11.5 c -7.92,-0.25 -15.25,-6.88 -15.25,-13.66 0,-4.73 3.49,-8.67 9.57,-9.01 l 0.25,1.09 c -2.99,0.14 -6.58,1.89 -6.58,6.87 0,5.99 4.3,12.96 11.72,13.6 l -5.14,-20.47 -0.25,-1.09 c -0.39,-1.55 -0.74,-3.15 -1.14,-4.69 -0.6,-2.35 -1.1,-4.24 -1.1,-4.39 0,-0.49 0.35,-0.55 0.6,-0.55 0.25,0 0.36,0.06 0.5,0.2 0.09,0.1 0.4,1.3 0.54,2 l 1.89,7.43 0.25,1.09 5.14,20.47 c 3.79,-0.19 6.63,-2.49 6.63,-6.88 0,-5.87 -4.28,-13 -11.77,-13.59 l -0.25,-1.09 c 8.03,0.25 15.25,6.96 15.25,13.64 0,3.93 -2.64,8.53 -9.56,9.03 z"
           inkscape:connector-curvature="0"
           style="fill:#c95a22;fill-opacity:0.98165134;stroke:#c95a22;stroke-width:0.86021489;stroke-miterlimit:4;stroke-dasharray:none;stroke-opacity:1" /></g>    </g>
    <circle
       style="opacity:1;vector-effect:none;fill:#343434;fill-opacity:1;fill-rule:nonzero;stroke:none;stroke-width:0.075504;stroke-linecap:butt;stroke-linejoin:miter;stroke-miterlimit:4;stroke-dasharray:none;stroke-dashoffset:14.08327579;stroke-opacity:1"
       id="path8961-7-3"
       cx="85.866936"
       cy="105.52"
       r="1.99771" />
    <circle
       style="opacity:1;vector-effect:none;fill:#80a279;fill-opacity:1;fill-rule:nonzero;stroke:none;stroke-width:0.075504;stroke-linecap:butt;stroke-linejoin:miter;stroke-miterlimit:4;stroke-dasharray:none;stroke-dashoffset:14.08327579;stroke-opacity:1"
       id="path8961-7-3-6"
       cx="145.6185"
       cy="126.97775"
       r="1.9977101" />
  </g>
</svg>
